G75*
G70*
%OFA0B0*%
%FSLAX24Y24*%
%IPPOS*%
%LPD*%
%AMOC8*
5,1,8,0,0,1.08239X$1,22.5*
%
%ADD10C,0.0000*%
%ADD11C,0.0740*%
%ADD12OC8,0.0740*%
%ADD13C,0.0555*%
%ADD14C,0.0640*%
%ADD15C,0.0560*%
%ADD16OC8,0.0660*%
%ADD17C,0.0750*%
%ADD18C,0.1050*%
%ADD19C,0.0860*%
%ADD20R,0.0740X0.0740*%
%ADD21C,0.0650*%
%ADD22C,0.0080*%
%ADD23C,0.0400*%
D10*
X000133Y000100D02*
X000133Y016096D01*
X029003Y016096D01*
X029003Y000100D01*
X000133Y000100D01*
X000983Y001600D02*
X000985Y001650D01*
X000991Y001700D01*
X001001Y001750D01*
X001014Y001798D01*
X001031Y001846D01*
X001052Y001892D01*
X001076Y001936D01*
X001104Y001978D01*
X001135Y002018D01*
X001169Y002055D01*
X001206Y002090D01*
X001245Y002121D01*
X001286Y002150D01*
X001330Y002175D01*
X001376Y002197D01*
X001423Y002215D01*
X001471Y002229D01*
X001520Y002240D01*
X001570Y002247D01*
X001620Y002250D01*
X001671Y002249D01*
X001721Y002244D01*
X001771Y002235D01*
X001819Y002223D01*
X001867Y002206D01*
X001913Y002186D01*
X001958Y002163D01*
X002001Y002136D01*
X002041Y002106D01*
X002079Y002073D01*
X002114Y002037D01*
X002147Y001998D01*
X002176Y001957D01*
X002202Y001914D01*
X002225Y001869D01*
X002244Y001822D01*
X002259Y001774D01*
X002271Y001725D01*
X002279Y001675D01*
X002283Y001625D01*
X002283Y001575D01*
X002279Y001525D01*
X002271Y001475D01*
X002259Y001426D01*
X002244Y001378D01*
X002225Y001331D01*
X002202Y001286D01*
X002176Y001243D01*
X002147Y001202D01*
X002114Y001163D01*
X002079Y001127D01*
X002041Y001094D01*
X002001Y001064D01*
X001958Y001037D01*
X001913Y001014D01*
X001867Y000994D01*
X001819Y000977D01*
X001771Y000965D01*
X001721Y000956D01*
X001671Y000951D01*
X001620Y000950D01*
X001570Y000953D01*
X001520Y000960D01*
X001471Y000971D01*
X001423Y000985D01*
X001376Y001003D01*
X001330Y001025D01*
X001286Y001050D01*
X001245Y001079D01*
X001206Y001110D01*
X001169Y001145D01*
X001135Y001182D01*
X001104Y001222D01*
X001076Y001264D01*
X001052Y001308D01*
X001031Y001354D01*
X001014Y001402D01*
X001001Y001450D01*
X000991Y001500D01*
X000985Y001550D01*
X000983Y001600D01*
X000983Y014600D02*
X000985Y014650D01*
X000991Y014700D01*
X001001Y014750D01*
X001014Y014798D01*
X001031Y014846D01*
X001052Y014892D01*
X001076Y014936D01*
X001104Y014978D01*
X001135Y015018D01*
X001169Y015055D01*
X001206Y015090D01*
X001245Y015121D01*
X001286Y015150D01*
X001330Y015175D01*
X001376Y015197D01*
X001423Y015215D01*
X001471Y015229D01*
X001520Y015240D01*
X001570Y015247D01*
X001620Y015250D01*
X001671Y015249D01*
X001721Y015244D01*
X001771Y015235D01*
X001819Y015223D01*
X001867Y015206D01*
X001913Y015186D01*
X001958Y015163D01*
X002001Y015136D01*
X002041Y015106D01*
X002079Y015073D01*
X002114Y015037D01*
X002147Y014998D01*
X002176Y014957D01*
X002202Y014914D01*
X002225Y014869D01*
X002244Y014822D01*
X002259Y014774D01*
X002271Y014725D01*
X002279Y014675D01*
X002283Y014625D01*
X002283Y014575D01*
X002279Y014525D01*
X002271Y014475D01*
X002259Y014426D01*
X002244Y014378D01*
X002225Y014331D01*
X002202Y014286D01*
X002176Y014243D01*
X002147Y014202D01*
X002114Y014163D01*
X002079Y014127D01*
X002041Y014094D01*
X002001Y014064D01*
X001958Y014037D01*
X001913Y014014D01*
X001867Y013994D01*
X001819Y013977D01*
X001771Y013965D01*
X001721Y013956D01*
X001671Y013951D01*
X001620Y013950D01*
X001570Y013953D01*
X001520Y013960D01*
X001471Y013971D01*
X001423Y013985D01*
X001376Y014003D01*
X001330Y014025D01*
X001286Y014050D01*
X001245Y014079D01*
X001206Y014110D01*
X001169Y014145D01*
X001135Y014182D01*
X001104Y014222D01*
X001076Y014264D01*
X001052Y014308D01*
X001031Y014354D01*
X001014Y014402D01*
X001001Y014450D01*
X000991Y014500D01*
X000985Y014550D01*
X000983Y014600D01*
D11*
X005133Y011100D03*
X005133Y010100D03*
X005133Y009100D03*
X005133Y008100D03*
X005133Y007100D03*
X005133Y006100D03*
X005133Y005100D03*
X009133Y005100D03*
X010633Y005100D03*
X013133Y003100D03*
X014133Y003100D03*
X015133Y003100D03*
X016133Y003100D03*
X017133Y003100D03*
X018133Y003100D03*
X019133Y003100D03*
X020133Y003100D03*
X021133Y003100D03*
X022133Y003100D03*
X023133Y003100D03*
X024133Y003100D03*
X020633Y001100D03*
X017633Y001100D03*
X014633Y001100D03*
X013633Y001100D03*
X010633Y008100D03*
X009133Y008100D03*
X013133Y009100D03*
X014133Y009100D03*
X015133Y009100D03*
X016133Y009100D03*
X017133Y009100D03*
X018133Y009100D03*
X019133Y009100D03*
X020133Y009100D03*
X021133Y009100D03*
X022133Y009100D03*
X023133Y009100D03*
X024133Y009100D03*
X022133Y010600D03*
X022133Y011600D03*
X019133Y011600D03*
X019133Y010600D03*
X017133Y010600D03*
X017133Y011600D03*
X014133Y011600D03*
X014133Y010600D03*
D12*
X003633Y007100D03*
X002633Y007100D03*
X001633Y007100D03*
X001633Y006100D03*
X002633Y006100D03*
X003633Y006100D03*
D13*
X009133Y009850D03*
X009133Y010600D03*
X009133Y011350D03*
D14*
X009133Y013131D03*
X008346Y013131D03*
X009921Y013131D03*
X005921Y013131D03*
X005133Y013131D03*
X004346Y013131D03*
X007633Y002600D03*
X008633Y002600D03*
X009633Y002600D03*
X009633Y001600D03*
X008633Y001600D03*
X007633Y001600D03*
D15*
X026633Y005206D03*
X026633Y005994D03*
D16*
X026633Y002950D03*
X026633Y002100D03*
X026633Y001250D03*
D17*
X027133Y010100D03*
D18*
X026129Y009096D03*
X028137Y009096D03*
X028137Y011104D03*
X026129Y011104D03*
D19*
X026133Y014100D03*
X027133Y014100D03*
X025133Y014100D03*
X019133Y014100D03*
X018133Y014100D03*
X017133Y014100D03*
X016133Y014100D03*
D20*
X005133Y004100D03*
D21*
X024633Y002100D03*
X024633Y001100D03*
X028133Y001100D03*
X028133Y002100D03*
D22*
X028033Y002080D01*
X026773Y002080D01*
X026633Y002100D01*
X026633Y001250D02*
X026773Y001180D01*
X028033Y001180D01*
X028133Y001100D01*
X026633Y001250D02*
X026593Y001180D01*
X026053Y001180D01*
X026053Y005320D01*
X026593Y005860D01*
X026633Y005994D01*
X026593Y006040D01*
X026233Y006400D01*
X026233Y008920D01*
X026129Y009096D01*
X026233Y009100D01*
X028033Y009100D01*
X028137Y009096D01*
X028213Y009100D01*
X028213Y011080D01*
X028137Y011104D01*
X027133Y010180D02*
X026953Y010360D01*
X026953Y013240D01*
X026233Y013960D01*
X026133Y014100D01*
X025153Y013960D02*
X025133Y014100D01*
X025153Y013960D02*
X026053Y013060D01*
X026053Y011260D01*
X026129Y011104D01*
X027133Y010180D02*
X027133Y010100D01*
X024793Y009640D02*
X024793Y008920D01*
X022633Y006760D01*
X022633Y002440D01*
X022093Y002440D01*
X021553Y002980D01*
X021193Y002980D01*
X021133Y003100D01*
X022133Y003100D02*
X022273Y003160D01*
X022453Y003340D01*
X022453Y008560D01*
X022633Y008740D01*
X022633Y011080D01*
X022273Y011440D01*
X022133Y011600D01*
X022133Y010600D02*
X022093Y010540D01*
X020293Y010540D01*
X020293Y009100D01*
X020133Y009100D01*
X019133Y010600D02*
X019033Y010720D01*
X018133Y011620D01*
X018133Y013960D01*
X018133Y014100D01*
X019133Y014100D02*
X019213Y013960D01*
X020473Y013960D01*
X024793Y009640D01*
X017233Y010720D02*
X017133Y010600D01*
X017233Y010720D02*
X017233Y011440D01*
X017133Y011600D01*
X017053Y011620D01*
X017053Y013060D01*
X016153Y013960D01*
X016133Y014100D01*
X014133Y011600D02*
X014173Y011440D01*
X014713Y010900D01*
X014713Y009640D01*
X014173Y009100D01*
X014133Y009100D01*
X014173Y009100D01*
X014173Y004960D01*
X015973Y003160D01*
X016133Y003100D01*
X015973Y003160D01*
X013993Y001180D01*
X013633Y001180D01*
X013633Y001100D01*
X014633Y001100D02*
X014713Y001180D01*
X017593Y001180D01*
X017633Y001100D01*
X019033Y001180D02*
X020473Y001180D01*
X020633Y001100D01*
X019033Y001180D02*
X017233Y002980D01*
X017133Y003100D01*
X018133Y003100D02*
X018133Y003160D01*
X014533Y006760D01*
X014533Y007480D01*
X012913Y008200D02*
X010033Y005320D01*
X010033Y005140D01*
X009133Y004240D01*
X009133Y002440D01*
X008953Y002260D01*
X008953Y001900D01*
X008773Y001720D01*
X008633Y001600D01*
X009133Y001360D02*
X008773Y001000D01*
X005713Y001000D01*
X005713Y006400D01*
X005173Y006940D01*
X005133Y007100D01*
X004633Y007120D02*
X004633Y010540D01*
X004993Y010180D01*
X005133Y010100D01*
X004633Y010540D02*
X004633Y012160D01*
X008413Y012160D01*
X008413Y013060D01*
X008346Y013131D01*
X009921Y013131D02*
X010033Y013060D01*
X013633Y009460D01*
X013633Y006580D01*
X010633Y005100D02*
X010573Y004960D01*
X010573Y003520D01*
X009673Y002620D01*
X009633Y002600D01*
X009853Y002080D02*
X010393Y002620D01*
X010393Y002980D01*
X013093Y002980D01*
X013133Y003100D01*
X014173Y002080D02*
X015073Y002980D01*
X015133Y003100D01*
X014173Y002080D02*
X014173Y001720D01*
X009673Y001720D01*
X009633Y001600D01*
X009133Y001360D02*
X009133Y002080D01*
X009853Y002080D01*
X008633Y002600D02*
X008593Y002620D01*
X008593Y006400D01*
X007153Y006400D02*
X007153Y002080D01*
X007513Y001720D01*
X007633Y001600D01*
X009133Y005100D02*
X009133Y005140D01*
X008953Y005320D01*
X008953Y007480D01*
X008593Y007840D01*
X008593Y009280D01*
X009133Y009820D01*
X009133Y009850D01*
X009673Y010000D02*
X009673Y008740D01*
X009133Y008200D01*
X009133Y008100D01*
X009673Y010000D02*
X009133Y010540D01*
X009133Y010600D01*
X009133Y011350D02*
X009133Y011440D01*
X008413Y012160D01*
X005133Y013131D02*
X004993Y013060D01*
X004633Y012700D01*
X004633Y012160D01*
X004273Y013060D02*
X004346Y013131D01*
X004273Y013060D02*
X004273Y007660D01*
X003733Y007120D01*
X003633Y007100D01*
X003733Y006220D02*
X004633Y007120D01*
X003733Y006220D02*
X003633Y006100D01*
X004993Y005140D02*
X001753Y005140D01*
X001033Y005860D01*
X001033Y006400D01*
X001573Y006940D01*
X001633Y007100D01*
X004993Y005140D02*
X005133Y005100D01*
X024633Y001100D02*
X024793Y001180D01*
X026053Y001180D01*
X028033Y002260D02*
X028133Y002100D01*
X028033Y002260D02*
X028033Y003880D01*
X026773Y005140D01*
X026633Y005206D01*
D23*
X014533Y007480D03*
X012913Y008200D03*
X013633Y006580D03*
X008593Y006400D03*
X007153Y006400D03*
M02*
