G75*
G70*
%OFA0B0*%
%FSLAX24Y24*%
%IPPOS*%
%LPD*%
%AMOC8*
5,1,8,0,0,1.08239X$1,22.5*
%
%ADD10C,0.0000*%
D10*
X001100Y000100D02*
X027970Y000100D01*
X028030Y000102D01*
X028091Y000107D01*
X028150Y000116D01*
X028209Y000129D01*
X028268Y000145D01*
X028325Y000165D01*
X028380Y000188D01*
X028435Y000215D01*
X028487Y000244D01*
X028538Y000277D01*
X028587Y000313D01*
X028633Y000351D01*
X028677Y000393D01*
X028719Y000437D01*
X028757Y000483D01*
X028793Y000532D01*
X028826Y000583D01*
X028855Y000635D01*
X028882Y000690D01*
X028905Y000745D01*
X028925Y000802D01*
X028941Y000861D01*
X028954Y000920D01*
X028963Y000979D01*
X028968Y001040D01*
X028970Y001100D01*
X028970Y015096D01*
X028968Y015156D01*
X028963Y015217D01*
X028954Y015276D01*
X028941Y015335D01*
X028925Y015394D01*
X028905Y015451D01*
X028882Y015506D01*
X028855Y015561D01*
X028826Y015613D01*
X028793Y015664D01*
X028757Y015713D01*
X028719Y015759D01*
X028677Y015803D01*
X028633Y015845D01*
X028587Y015883D01*
X028538Y015919D01*
X028487Y015952D01*
X028435Y015981D01*
X028380Y016008D01*
X028325Y016031D01*
X028268Y016051D01*
X028209Y016067D01*
X028150Y016080D01*
X028091Y016089D01*
X028030Y016094D01*
X027970Y016096D01*
X001100Y016096D01*
X001040Y016094D01*
X000979Y016089D01*
X000920Y016080D01*
X000861Y016067D01*
X000802Y016051D01*
X000745Y016031D01*
X000690Y016008D01*
X000635Y015981D01*
X000583Y015952D01*
X000532Y015919D01*
X000483Y015883D01*
X000437Y015845D01*
X000393Y015803D01*
X000351Y015759D01*
X000313Y015713D01*
X000277Y015664D01*
X000244Y015613D01*
X000215Y015561D01*
X000188Y015506D01*
X000165Y015451D01*
X000145Y015394D01*
X000129Y015335D01*
X000116Y015276D01*
X000107Y015217D01*
X000102Y015156D01*
X000100Y015096D01*
X000100Y001100D01*
X000102Y001040D01*
X000107Y000979D01*
X000116Y000920D01*
X000129Y000861D01*
X000145Y000802D01*
X000165Y000745D01*
X000188Y000690D01*
X000215Y000635D01*
X000244Y000583D01*
X000277Y000532D01*
X000313Y000483D01*
X000351Y000437D01*
X000393Y000393D01*
X000437Y000351D01*
X000483Y000313D01*
X000532Y000277D01*
X000583Y000244D01*
X000635Y000215D01*
X000690Y000188D01*
X000745Y000165D01*
X000802Y000145D01*
X000861Y000129D01*
X000920Y000116D01*
X000979Y000107D01*
X001040Y000102D01*
X001100Y000100D01*
X000950Y001600D02*
X000952Y001650D01*
X000958Y001700D01*
X000968Y001750D01*
X000981Y001798D01*
X000998Y001846D01*
X001019Y001892D01*
X001043Y001936D01*
X001071Y001978D01*
X001102Y002018D01*
X001136Y002055D01*
X001173Y002090D01*
X001212Y002121D01*
X001253Y002150D01*
X001297Y002175D01*
X001343Y002197D01*
X001390Y002215D01*
X001438Y002229D01*
X001487Y002240D01*
X001537Y002247D01*
X001587Y002250D01*
X001638Y002249D01*
X001688Y002244D01*
X001738Y002235D01*
X001786Y002223D01*
X001834Y002206D01*
X001880Y002186D01*
X001925Y002163D01*
X001968Y002136D01*
X002008Y002106D01*
X002046Y002073D01*
X002081Y002037D01*
X002114Y001998D01*
X002143Y001957D01*
X002169Y001914D01*
X002192Y001869D01*
X002211Y001822D01*
X002226Y001774D01*
X002238Y001725D01*
X002246Y001675D01*
X002250Y001625D01*
X002250Y001575D01*
X002246Y001525D01*
X002238Y001475D01*
X002226Y001426D01*
X002211Y001378D01*
X002192Y001331D01*
X002169Y001286D01*
X002143Y001243D01*
X002114Y001202D01*
X002081Y001163D01*
X002046Y001127D01*
X002008Y001094D01*
X001968Y001064D01*
X001925Y001037D01*
X001880Y001014D01*
X001834Y000994D01*
X001786Y000977D01*
X001738Y000965D01*
X001688Y000956D01*
X001638Y000951D01*
X001587Y000950D01*
X001537Y000953D01*
X001487Y000960D01*
X001438Y000971D01*
X001390Y000985D01*
X001343Y001003D01*
X001297Y001025D01*
X001253Y001050D01*
X001212Y001079D01*
X001173Y001110D01*
X001136Y001145D01*
X001102Y001182D01*
X001071Y001222D01*
X001043Y001264D01*
X001019Y001308D01*
X000998Y001354D01*
X000981Y001402D01*
X000968Y001450D01*
X000958Y001500D01*
X000952Y001550D01*
X000950Y001600D01*
X000950Y014600D02*
X000952Y014650D01*
X000958Y014700D01*
X000968Y014750D01*
X000981Y014798D01*
X000998Y014846D01*
X001019Y014892D01*
X001043Y014936D01*
X001071Y014978D01*
X001102Y015018D01*
X001136Y015055D01*
X001173Y015090D01*
X001212Y015121D01*
X001253Y015150D01*
X001297Y015175D01*
X001343Y015197D01*
X001390Y015215D01*
X001438Y015229D01*
X001487Y015240D01*
X001537Y015247D01*
X001587Y015250D01*
X001638Y015249D01*
X001688Y015244D01*
X001738Y015235D01*
X001786Y015223D01*
X001834Y015206D01*
X001880Y015186D01*
X001925Y015163D01*
X001968Y015136D01*
X002008Y015106D01*
X002046Y015073D01*
X002081Y015037D01*
X002114Y014998D01*
X002143Y014957D01*
X002169Y014914D01*
X002192Y014869D01*
X002211Y014822D01*
X002226Y014774D01*
X002238Y014725D01*
X002246Y014675D01*
X002250Y014625D01*
X002250Y014575D01*
X002246Y014525D01*
X002238Y014475D01*
X002226Y014426D01*
X002211Y014378D01*
X002192Y014331D01*
X002169Y014286D01*
X002143Y014243D01*
X002114Y014202D01*
X002081Y014163D01*
X002046Y014127D01*
X002008Y014094D01*
X001968Y014064D01*
X001925Y014037D01*
X001880Y014014D01*
X001834Y013994D01*
X001786Y013977D01*
X001738Y013965D01*
X001688Y013956D01*
X001638Y013951D01*
X001587Y013950D01*
X001537Y013953D01*
X001487Y013960D01*
X001438Y013971D01*
X001390Y013985D01*
X001343Y014003D01*
X001297Y014025D01*
X001253Y014050D01*
X001212Y014079D01*
X001173Y014110D01*
X001136Y014145D01*
X001102Y014182D01*
X001071Y014222D01*
X001043Y014264D01*
X001019Y014308D01*
X000998Y014354D01*
X000981Y014402D01*
X000968Y014450D01*
X000958Y014500D01*
X000952Y014550D01*
X000950Y014600D01*
X027150Y007700D02*
X027152Y007750D01*
X027158Y007800D01*
X027168Y007850D01*
X027181Y007898D01*
X027198Y007946D01*
X027219Y007992D01*
X027243Y008036D01*
X027271Y008078D01*
X027302Y008118D01*
X027336Y008155D01*
X027373Y008190D01*
X027412Y008221D01*
X027453Y008250D01*
X027497Y008275D01*
X027543Y008297D01*
X027590Y008315D01*
X027638Y008329D01*
X027687Y008340D01*
X027737Y008347D01*
X027787Y008350D01*
X027838Y008349D01*
X027888Y008344D01*
X027938Y008335D01*
X027986Y008323D01*
X028034Y008306D01*
X028080Y008286D01*
X028125Y008263D01*
X028168Y008236D01*
X028208Y008206D01*
X028246Y008173D01*
X028281Y008137D01*
X028314Y008098D01*
X028343Y008057D01*
X028369Y008014D01*
X028392Y007969D01*
X028411Y007922D01*
X028426Y007874D01*
X028438Y007825D01*
X028446Y007775D01*
X028450Y007725D01*
X028450Y007675D01*
X028446Y007625D01*
X028438Y007575D01*
X028426Y007526D01*
X028411Y007478D01*
X028392Y007431D01*
X028369Y007386D01*
X028343Y007343D01*
X028314Y007302D01*
X028281Y007263D01*
X028246Y007227D01*
X028208Y007194D01*
X028168Y007164D01*
X028125Y007137D01*
X028080Y007114D01*
X028034Y007094D01*
X027986Y007077D01*
X027938Y007065D01*
X027888Y007056D01*
X027838Y007051D01*
X027787Y007050D01*
X027737Y007053D01*
X027687Y007060D01*
X027638Y007071D01*
X027590Y007085D01*
X027543Y007103D01*
X027497Y007125D01*
X027453Y007150D01*
X027412Y007179D01*
X027373Y007210D01*
X027336Y007245D01*
X027302Y007282D01*
X027271Y007322D01*
X027243Y007364D01*
X027219Y007408D01*
X027198Y007454D01*
X027181Y007502D01*
X027168Y007550D01*
X027158Y007600D01*
X027152Y007650D01*
X027150Y007700D01*
M02*
