%
M48
M72
T01C0.0157
T02C0.0276
T03C0.0315
T04C0.0320
T05C0.0354
T06C0.0400
T07C0.0500
T08C0.0700
T09C0.1300
%
T01
X6940Y4960
X8560Y5500
X11440Y7660
T02
X9887Y13131
X9100Y13131
X8313Y13131
X5887Y13131
X5100Y13131
X4313Y13131
X15600Y14100
X16600Y14100
X17600Y14100
X18600Y14100
X24600Y14100
X25600Y14100
X26600Y14100
X28150Y2734
X24584Y1100
X22616Y1100
X28150Y766
T03
X26600Y4606
X26600Y5394
X8900Y9350
X8900Y10100
X8900Y10850
T04
X26600Y2950
X26600Y2100
X26600Y1250
X14600Y1100
X13600Y1100
T05
X17600Y1100
X20600Y1100
X10600Y5100
X9100Y5100
X9100Y8100
X10600Y8100
X14100Y10600
X14100Y11600
X17100Y11600
X17100Y10600
X19100Y10600
X19100Y11600
X22100Y11600
X22100Y10600
T06
X22100Y9100
X21100Y9100
X20100Y9100
X19100Y9100
X18100Y9100
X17100Y9100
X16100Y9100
X15100Y9100
X14100Y9100
X13100Y9100
X5100Y9100
X5100Y10100
X5100Y11100
X5100Y8100
X5100Y7100
X3600Y7100
X2600Y7100
X1600Y7100
X1600Y6100
X2600Y6100
X3600Y6100
X5100Y6100
X5100Y5100
X5100Y4100
X7600Y2600
X8600Y2600
X9600Y2600
X9600Y1600
X8600Y1600
X7600Y1600
X13100Y3100
X14100Y3100
X15100Y3100
X16100Y3100
X17100Y3100
X18100Y3100
X19100Y3100
X20100Y3100
X21100Y3100
X22100Y3100
X23100Y3100
X24100Y3100
X24100Y9100
X23100Y9100
T07
X27050Y10450
T08
X26046Y9446
X28054Y9446
X28054Y11454
X26046Y11454
T09
X1600Y1600
X1600Y14600
X27800Y7700
M30
