G75*
G70*
%OFA0B0*%
%FSLAX24Y24*%
%IPPOS*%
%LPD*%
%AMOC8*
5,1,8,0,0,1.08239X$1,22.5*
%
%ADD10C,0.0000*%
D10*
X001100Y000180D02*
X027970Y000180D01*
X028030Y000182D01*
X028091Y000187D01*
X028150Y000196D01*
X028209Y000209D01*
X028268Y000225D01*
X028325Y000245D01*
X028380Y000268D01*
X028435Y000295D01*
X028487Y000324D01*
X028538Y000357D01*
X028587Y000393D01*
X028633Y000431D01*
X028677Y000473D01*
X028719Y000517D01*
X028757Y000563D01*
X028793Y000612D01*
X028826Y000663D01*
X028855Y000715D01*
X028882Y000770D01*
X028905Y000825D01*
X028925Y000882D01*
X028941Y000941D01*
X028954Y001000D01*
X028963Y001059D01*
X028968Y001120D01*
X028970Y001180D01*
X028970Y015176D01*
X028968Y015236D01*
X028963Y015297D01*
X028954Y015356D01*
X028941Y015415D01*
X028925Y015474D01*
X028905Y015531D01*
X028882Y015586D01*
X028855Y015641D01*
X028826Y015693D01*
X028793Y015744D01*
X028757Y015793D01*
X028719Y015839D01*
X028677Y015883D01*
X028633Y015925D01*
X028587Y015963D01*
X028538Y015999D01*
X028487Y016032D01*
X028435Y016061D01*
X028380Y016088D01*
X028325Y016111D01*
X028268Y016131D01*
X028209Y016147D01*
X028150Y016160D01*
X028091Y016169D01*
X028030Y016174D01*
X027970Y016176D01*
X001100Y016176D01*
X001040Y016174D01*
X000979Y016169D01*
X000920Y016160D01*
X000861Y016147D01*
X000802Y016131D01*
X000745Y016111D01*
X000690Y016088D01*
X000635Y016061D01*
X000583Y016032D01*
X000532Y015999D01*
X000483Y015963D01*
X000437Y015925D01*
X000393Y015883D01*
X000351Y015839D01*
X000313Y015793D01*
X000277Y015744D01*
X000244Y015693D01*
X000215Y015641D01*
X000188Y015586D01*
X000165Y015531D01*
X000145Y015474D01*
X000129Y015415D01*
X000116Y015356D01*
X000107Y015297D01*
X000102Y015236D01*
X000100Y015176D01*
X000100Y001180D01*
X000102Y001120D01*
X000107Y001059D01*
X000116Y001000D01*
X000129Y000941D01*
X000145Y000882D01*
X000165Y000825D01*
X000188Y000770D01*
X000215Y000715D01*
X000244Y000663D01*
X000277Y000612D01*
X000313Y000563D01*
X000351Y000517D01*
X000393Y000473D01*
X000437Y000431D01*
X000483Y000393D01*
X000532Y000357D01*
X000583Y000324D01*
X000635Y000295D01*
X000690Y000268D01*
X000745Y000245D01*
X000802Y000225D01*
X000861Y000209D01*
X000920Y000196D01*
X000979Y000187D01*
X001040Y000182D01*
X001100Y000180D01*
X000950Y001680D02*
X000952Y001730D01*
X000958Y001780D01*
X000968Y001830D01*
X000981Y001878D01*
X000998Y001926D01*
X001019Y001972D01*
X001043Y002016D01*
X001071Y002058D01*
X001102Y002098D01*
X001136Y002135D01*
X001173Y002170D01*
X001212Y002201D01*
X001253Y002230D01*
X001297Y002255D01*
X001343Y002277D01*
X001390Y002295D01*
X001438Y002309D01*
X001487Y002320D01*
X001537Y002327D01*
X001587Y002330D01*
X001638Y002329D01*
X001688Y002324D01*
X001738Y002315D01*
X001786Y002303D01*
X001834Y002286D01*
X001880Y002266D01*
X001925Y002243D01*
X001968Y002216D01*
X002008Y002186D01*
X002046Y002153D01*
X002081Y002117D01*
X002114Y002078D01*
X002143Y002037D01*
X002169Y001994D01*
X002192Y001949D01*
X002211Y001902D01*
X002226Y001854D01*
X002238Y001805D01*
X002246Y001755D01*
X002250Y001705D01*
X002250Y001655D01*
X002246Y001605D01*
X002238Y001555D01*
X002226Y001506D01*
X002211Y001458D01*
X002192Y001411D01*
X002169Y001366D01*
X002143Y001323D01*
X002114Y001282D01*
X002081Y001243D01*
X002046Y001207D01*
X002008Y001174D01*
X001968Y001144D01*
X001925Y001117D01*
X001880Y001094D01*
X001834Y001074D01*
X001786Y001057D01*
X001738Y001045D01*
X001688Y001036D01*
X001638Y001031D01*
X001587Y001030D01*
X001537Y001033D01*
X001487Y001040D01*
X001438Y001051D01*
X001390Y001065D01*
X001343Y001083D01*
X001297Y001105D01*
X001253Y001130D01*
X001212Y001159D01*
X001173Y001190D01*
X001136Y001225D01*
X001102Y001262D01*
X001071Y001302D01*
X001043Y001344D01*
X001019Y001388D01*
X000998Y001434D01*
X000981Y001482D01*
X000968Y001530D01*
X000958Y001580D01*
X000952Y001630D01*
X000950Y001680D01*
X000950Y014680D02*
X000952Y014730D01*
X000958Y014780D01*
X000968Y014830D01*
X000981Y014878D01*
X000998Y014926D01*
X001019Y014972D01*
X001043Y015016D01*
X001071Y015058D01*
X001102Y015098D01*
X001136Y015135D01*
X001173Y015170D01*
X001212Y015201D01*
X001253Y015230D01*
X001297Y015255D01*
X001343Y015277D01*
X001390Y015295D01*
X001438Y015309D01*
X001487Y015320D01*
X001537Y015327D01*
X001587Y015330D01*
X001638Y015329D01*
X001688Y015324D01*
X001738Y015315D01*
X001786Y015303D01*
X001834Y015286D01*
X001880Y015266D01*
X001925Y015243D01*
X001968Y015216D01*
X002008Y015186D01*
X002046Y015153D01*
X002081Y015117D01*
X002114Y015078D01*
X002143Y015037D01*
X002169Y014994D01*
X002192Y014949D01*
X002211Y014902D01*
X002226Y014854D01*
X002238Y014805D01*
X002246Y014755D01*
X002250Y014705D01*
X002250Y014655D01*
X002246Y014605D01*
X002238Y014555D01*
X002226Y014506D01*
X002211Y014458D01*
X002192Y014411D01*
X002169Y014366D01*
X002143Y014323D01*
X002114Y014282D01*
X002081Y014243D01*
X002046Y014207D01*
X002008Y014174D01*
X001968Y014144D01*
X001925Y014117D01*
X001880Y014094D01*
X001834Y014074D01*
X001786Y014057D01*
X001738Y014045D01*
X001688Y014036D01*
X001638Y014031D01*
X001587Y014030D01*
X001537Y014033D01*
X001487Y014040D01*
X001438Y014051D01*
X001390Y014065D01*
X001343Y014083D01*
X001297Y014105D01*
X001253Y014130D01*
X001212Y014159D01*
X001173Y014190D01*
X001136Y014225D01*
X001102Y014262D01*
X001071Y014302D01*
X001043Y014344D01*
X001019Y014388D01*
X000998Y014434D01*
X000981Y014482D01*
X000968Y014530D01*
X000958Y014580D01*
X000952Y014630D01*
X000950Y014680D01*
X027150Y007780D02*
X027152Y007830D01*
X027158Y007880D01*
X027168Y007930D01*
X027181Y007978D01*
X027198Y008026D01*
X027219Y008072D01*
X027243Y008116D01*
X027271Y008158D01*
X027302Y008198D01*
X027336Y008235D01*
X027373Y008270D01*
X027412Y008301D01*
X027453Y008330D01*
X027497Y008355D01*
X027543Y008377D01*
X027590Y008395D01*
X027638Y008409D01*
X027687Y008420D01*
X027737Y008427D01*
X027787Y008430D01*
X027838Y008429D01*
X027888Y008424D01*
X027938Y008415D01*
X027986Y008403D01*
X028034Y008386D01*
X028080Y008366D01*
X028125Y008343D01*
X028168Y008316D01*
X028208Y008286D01*
X028246Y008253D01*
X028281Y008217D01*
X028314Y008178D01*
X028343Y008137D01*
X028369Y008094D01*
X028392Y008049D01*
X028411Y008002D01*
X028426Y007954D01*
X028438Y007905D01*
X028446Y007855D01*
X028450Y007805D01*
X028450Y007755D01*
X028446Y007705D01*
X028438Y007655D01*
X028426Y007606D01*
X028411Y007558D01*
X028392Y007511D01*
X028369Y007466D01*
X028343Y007423D01*
X028314Y007382D01*
X028281Y007343D01*
X028246Y007307D01*
X028208Y007274D01*
X028168Y007244D01*
X028125Y007217D01*
X028080Y007194D01*
X028034Y007174D01*
X027986Y007157D01*
X027938Y007145D01*
X027888Y007136D01*
X027838Y007131D01*
X027787Y007130D01*
X027737Y007133D01*
X027687Y007140D01*
X027638Y007151D01*
X027590Y007165D01*
X027543Y007183D01*
X027497Y007205D01*
X027453Y007230D01*
X027412Y007259D01*
X027373Y007290D01*
X027336Y007325D01*
X027302Y007362D01*
X027271Y007402D01*
X027243Y007444D01*
X027219Y007488D01*
X027198Y007534D01*
X027181Y007582D01*
X027168Y007630D01*
X027158Y007680D01*
X027152Y007730D01*
X027150Y007780D01*
M02*
