G75*
G70*
%OFA0B0*%
%FSLAX24Y24*%
%IPPOS*%
%LPD*%
%AMOC8*
5,1,8,0,0,1.08239X$1,22.5*
%
%ADD10C,0.0060*%
%ADD11C,0.0040*%
D10*
X011499Y007410D02*
X011393Y007517D01*
X011393Y007730D01*
X011499Y007837D01*
X011606Y007837D01*
X011820Y007730D01*
X011820Y008051D01*
X011393Y008051D01*
X012037Y007944D02*
X012144Y008051D01*
X012464Y008051D01*
X012464Y007410D01*
X012144Y007410D01*
X012037Y007517D01*
X012037Y007944D01*
X012682Y008051D02*
X013109Y007410D01*
X013433Y007410D02*
X013433Y008051D01*
X013753Y007730D01*
X013326Y007730D01*
X013971Y007517D02*
X013971Y007944D01*
X014078Y008051D01*
X014398Y008051D01*
X014398Y007410D01*
X014078Y007410D01*
X013971Y007517D01*
X015258Y007517D02*
X015258Y007410D01*
X015365Y007410D01*
X015365Y007517D01*
X015258Y007517D01*
X015581Y007624D02*
X015581Y007837D01*
X015794Y008051D01*
X016012Y007837D02*
X016439Y007410D01*
X016656Y007410D02*
X016870Y007624D01*
X016763Y007624D02*
X017083Y007624D01*
X017083Y007410D02*
X017083Y008051D01*
X016763Y008051D01*
X016656Y007944D01*
X016656Y007730D01*
X016763Y007624D01*
X016439Y007837D02*
X016012Y007410D01*
X015794Y007410D02*
X015581Y007624D01*
X015365Y007730D02*
X015365Y007837D01*
X015258Y007837D01*
X015258Y007730D01*
X015365Y007730D01*
X017301Y008051D02*
X017728Y007410D01*
X017945Y007410D02*
X018373Y007837D01*
X018373Y007410D02*
X017945Y007837D01*
X018590Y008051D02*
X019017Y008051D01*
X018804Y008051D02*
X018804Y007410D01*
X019233Y007410D02*
X019447Y007624D01*
X019447Y007837D01*
X019233Y008051D01*
X020414Y008051D02*
X020414Y007410D01*
X020308Y007410D02*
X020521Y007410D01*
X020739Y007410D02*
X021059Y007410D01*
X021166Y007517D01*
X021059Y007624D01*
X020739Y007624D01*
X020739Y007730D02*
X020739Y007410D01*
X020739Y007730D02*
X020845Y007837D01*
X021059Y007837D01*
X021489Y007837D02*
X021489Y007410D01*
X021595Y007410D02*
X021382Y007410D01*
X021489Y007837D02*
X021595Y007837D01*
X021812Y007837D02*
X021919Y007837D01*
X022132Y007624D01*
X022132Y007837D02*
X022132Y007410D01*
X022350Y007624D02*
X022777Y007624D01*
X022777Y007730D02*
X022777Y007517D01*
X022670Y007410D01*
X022457Y007410D01*
X022350Y007624D02*
X022350Y007730D01*
X022457Y007837D01*
X022670Y007837D01*
X022777Y007730D01*
X022994Y007624D02*
X022994Y007517D01*
X023101Y007410D01*
X023315Y007410D01*
X023422Y007517D01*
X023638Y007410D02*
X023744Y007517D01*
X023744Y007944D01*
X023638Y007837D02*
X023851Y007837D01*
X024067Y007730D02*
X024281Y007730D01*
X024498Y007730D02*
X024605Y007837D01*
X024819Y007837D01*
X024925Y007730D01*
X024925Y007517D01*
X024819Y007410D01*
X024605Y007410D01*
X024498Y007517D01*
X024498Y007730D01*
X024174Y007944D02*
X024067Y008051D01*
X024174Y007944D02*
X024174Y007410D01*
X024281Y007051D02*
X024281Y006410D01*
X024067Y006624D01*
X023854Y006410D01*
X023854Y007051D01*
X023530Y007051D02*
X023530Y007157D01*
X023530Y006837D02*
X023530Y006410D01*
X023636Y006410D02*
X023423Y006410D01*
X023207Y006410D02*
X023207Y006837D01*
X023207Y006624D02*
X022993Y006837D01*
X022886Y006837D01*
X022670Y006730D02*
X022563Y006837D01*
X022349Y006837D01*
X022242Y006730D01*
X022242Y006624D01*
X022670Y006624D01*
X022670Y006730D02*
X022670Y006517D01*
X022563Y006410D01*
X022349Y006410D01*
X022025Y006410D02*
X022025Y006517D01*
X021918Y006517D01*
X021918Y006410D01*
X022025Y006410D01*
X022025Y006730D02*
X022025Y006837D01*
X021918Y006837D01*
X021918Y006730D01*
X022025Y006730D01*
X021058Y006410D02*
X020738Y006410D01*
X020631Y006517D01*
X020631Y006944D01*
X020738Y007051D01*
X021058Y007051D01*
X021058Y006410D01*
X020414Y006517D02*
X020307Y006410D01*
X020093Y006410D01*
X019987Y006517D01*
X019987Y006624D01*
X020093Y006730D01*
X020200Y006730D01*
X020093Y006730D02*
X019987Y006837D01*
X019987Y006944D01*
X020093Y007051D01*
X020307Y007051D01*
X020414Y006944D01*
X020306Y006051D02*
X019986Y006051D01*
X019879Y005944D01*
X019879Y005517D01*
X019986Y005410D01*
X020306Y005410D01*
X020306Y006051D01*
X020524Y005837D02*
X020524Y005410D01*
X020951Y005410D02*
X020951Y005837D01*
X020737Y006051D01*
X020524Y005837D01*
X020524Y005730D02*
X020951Y005730D01*
X021813Y005837D02*
X021813Y005303D01*
X021920Y005196D01*
X022026Y005196D01*
X021918Y005051D02*
X021705Y005051D01*
X021598Y004944D01*
X021598Y004837D01*
X022025Y004410D01*
X021598Y004410D01*
X022242Y004517D02*
X022349Y004410D01*
X022670Y004410D01*
X022670Y005051D01*
X022349Y005051D01*
X022242Y004944D01*
X022242Y004517D01*
X022025Y004944D02*
X021918Y005051D01*
X021813Y005410D02*
X022133Y005410D01*
X022240Y005517D01*
X022240Y005837D01*
X022457Y005837D02*
X022563Y005837D01*
X022777Y005624D01*
X022777Y005837D02*
X022777Y005410D01*
X022994Y005624D02*
X023422Y005624D01*
X023422Y005730D02*
X023422Y005517D01*
X023315Y005410D01*
X023101Y005410D01*
X022994Y005624D02*
X022994Y005730D01*
X023101Y005837D01*
X023315Y005837D01*
X023422Y005730D01*
X023638Y005837D02*
X023851Y005837D01*
X023744Y005944D02*
X023744Y005517D01*
X023638Y005410D01*
X024067Y005410D02*
X024174Y005517D01*
X024174Y005944D01*
X024281Y005837D02*
X024067Y005837D01*
X024498Y005730D02*
X024498Y005410D01*
X024819Y005410D01*
X024925Y005517D01*
X024819Y005624D01*
X024498Y005624D01*
X024498Y005730D02*
X024605Y005837D01*
X024819Y005837D01*
X025143Y005837D02*
X025143Y005944D01*
X025250Y006051D01*
X025570Y006051D01*
X025570Y005410D01*
X025250Y005410D01*
X025143Y005517D01*
X025143Y005624D01*
X025250Y005730D01*
X025570Y005730D01*
X025250Y005730D02*
X025143Y005837D01*
X025143Y006410D02*
X025570Y006410D01*
X025356Y006410D02*
X025356Y007051D01*
X025570Y006837D01*
X024925Y006730D02*
X024498Y006730D01*
X023636Y006837D02*
X023530Y006837D01*
X022994Y007624D02*
X023101Y007730D01*
X023315Y007730D01*
X023422Y007837D01*
X023422Y007944D01*
X023315Y008051D01*
X023101Y008051D01*
X022994Y007944D01*
X021489Y008051D02*
X021489Y008157D01*
X020521Y008051D02*
X020414Y008051D01*
X019555Y006051D02*
X019341Y006051D01*
X019235Y005944D01*
X019017Y005837D02*
X019017Y005730D01*
X018910Y005730D01*
X018910Y005837D01*
X019017Y005837D01*
X019017Y005517D02*
X019017Y005410D01*
X018910Y005410D01*
X018910Y005517D01*
X019017Y005517D01*
X019235Y005517D02*
X019341Y005410D01*
X019555Y005410D01*
X019662Y005517D01*
X019662Y005944D01*
X019555Y006051D01*
X018050Y005837D02*
X018050Y005410D01*
X017623Y005410D02*
X017623Y005837D01*
X017837Y006051D01*
X018050Y005837D01*
X018050Y005730D02*
X017623Y005730D01*
X017406Y005517D02*
X017406Y005944D01*
X017299Y006051D01*
X017085Y006051D01*
X016979Y005944D01*
X017406Y005517D01*
X017299Y005410D01*
X017085Y005410D01*
X016979Y005517D01*
X016979Y005944D01*
X011820Y007517D02*
X011713Y007410D01*
X011499Y007410D01*
X023530Y004837D02*
X023530Y004730D01*
X023636Y004730D01*
X023636Y004837D01*
X023530Y004837D01*
X023854Y004944D02*
X023961Y005051D01*
X024281Y005051D01*
X024281Y004410D01*
X023961Y004410D01*
X023854Y004517D01*
X023854Y004944D01*
X024498Y005051D02*
X024925Y005051D01*
X024925Y004410D01*
X024498Y004410D01*
X024712Y004730D02*
X024925Y004730D01*
X025143Y004410D02*
X025570Y004410D01*
X025570Y005051D01*
X023636Y004517D02*
X023636Y004410D01*
X023530Y004410D01*
X023530Y004517D01*
X023636Y004517D01*
X025250Y007410D02*
X025463Y007410D01*
X025570Y007517D01*
X025250Y007410D02*
X025143Y007517D01*
X025143Y007624D01*
X025250Y007730D01*
X025463Y007730D01*
X025570Y007837D01*
X025570Y007944D01*
X025463Y008051D01*
X025250Y008051D01*
X025143Y007944D01*
X013070Y014910D02*
X012750Y014910D01*
X012643Y015017D01*
X012643Y015230D01*
X012750Y015337D01*
X013070Y015337D01*
X013070Y015551D02*
X013070Y014910D01*
X012425Y015017D02*
X012319Y015124D01*
X011998Y015124D01*
X011998Y015230D02*
X011998Y014910D01*
X012319Y014910D01*
X012425Y015017D01*
X012319Y015337D02*
X012105Y015337D01*
X011998Y015230D01*
X011781Y015230D02*
X011674Y015337D01*
X011354Y015337D01*
X011136Y015337D02*
X011030Y015337D01*
X011030Y014910D01*
X011136Y014910D02*
X010923Y014910D01*
X010707Y015017D02*
X010600Y014910D01*
X010280Y014910D01*
X010707Y015017D02*
X010707Y015230D01*
X010600Y015337D01*
X010280Y015337D01*
X011030Y015551D02*
X011030Y015657D01*
X011461Y015124D02*
X011674Y015124D01*
X011781Y015230D01*
X011461Y015124D02*
X011354Y015017D01*
X011461Y014910D01*
X011781Y014910D01*
X009418Y015337D02*
X009204Y015337D01*
X009311Y015444D02*
X009311Y015017D01*
X009204Y014910D01*
X008988Y014910D02*
X008988Y015337D01*
X008988Y015124D02*
X008774Y015337D01*
X008668Y015337D01*
X008344Y015337D02*
X008130Y015337D01*
X008024Y015230D01*
X008024Y014910D01*
X008344Y014910D01*
X008451Y015017D01*
X008344Y015124D01*
X008024Y015124D01*
X007806Y015230D02*
X007806Y015017D01*
X007699Y014910D01*
X007379Y014910D01*
X007162Y014910D02*
X007162Y015551D01*
X007379Y015337D02*
X007699Y015337D01*
X007806Y015230D01*
X007162Y015124D02*
X006841Y015337D01*
X006625Y015230D02*
X006518Y015337D01*
X006304Y015337D01*
X006197Y015230D01*
X006197Y015124D01*
X006625Y015124D01*
X006625Y015230D02*
X006625Y015017D01*
X006518Y014910D01*
X006304Y014910D01*
X005980Y014910D02*
X005980Y015337D01*
X005980Y015124D02*
X005766Y015337D01*
X005660Y015337D01*
X004798Y015337D02*
X004585Y014910D01*
X004371Y015337D01*
X004154Y015337D02*
X003940Y015551D01*
X003940Y014910D01*
X003727Y014910D02*
X004154Y014910D01*
X006841Y014910D02*
X007162Y015124D01*
D11*
X010644Y001977D02*
X010721Y001900D01*
X010951Y001900D01*
X010875Y002053D02*
X010721Y002053D01*
X010644Y001977D01*
X010644Y002207D02*
X010875Y002207D01*
X010951Y002130D01*
X010875Y002053D01*
X011105Y002053D02*
X011412Y002053D01*
X011412Y001977D02*
X011412Y002130D01*
X011335Y002207D01*
X011182Y002207D01*
X011105Y002130D01*
X011105Y002053D01*
X011182Y001900D02*
X011335Y001900D01*
X011412Y001977D01*
X011565Y001900D02*
X011565Y002130D01*
X011642Y002207D01*
X011719Y002130D01*
X011719Y001900D01*
X011872Y001900D02*
X011872Y002207D01*
X011795Y002207D01*
X011719Y002130D01*
X012026Y001900D02*
X012179Y001900D01*
X012102Y001900D02*
X012102Y002360D01*
X012179Y002360D01*
X012333Y002130D02*
X012409Y002207D01*
X012563Y002207D01*
X012639Y002130D01*
X012639Y001977D01*
X012563Y001900D01*
X012409Y001900D01*
X012333Y001977D01*
X012333Y002130D01*
X012793Y002130D02*
X012793Y001900D01*
X013100Y001900D02*
X013100Y002360D01*
X013253Y002360D02*
X013253Y002437D01*
X013253Y002207D02*
X013253Y001823D01*
X013330Y001747D01*
X013407Y001747D01*
X013560Y001900D02*
X013560Y002130D01*
X013637Y002207D01*
X013714Y002130D01*
X013714Y001900D01*
X013867Y001900D02*
X013867Y002207D01*
X013790Y002207D01*
X013714Y002130D01*
X014021Y002360D02*
X014328Y001900D01*
X014481Y001900D02*
X014481Y002130D01*
X014558Y002207D01*
X014635Y002130D01*
X014635Y001900D01*
X014788Y001900D02*
X014788Y002207D01*
X014711Y002207D01*
X014635Y002130D01*
X014941Y002130D02*
X014941Y001977D01*
X015018Y001900D01*
X015172Y001900D01*
X015248Y001977D01*
X015248Y002130D01*
X015172Y002207D01*
X015018Y002207D01*
X014941Y002130D01*
X015402Y002207D02*
X015632Y002207D01*
X015709Y002130D01*
X015709Y001977D01*
X015632Y001900D01*
X015402Y001900D01*
X015862Y001900D02*
X015862Y001977D01*
X015939Y001977D01*
X015939Y001900D01*
X015862Y001900D01*
X016092Y001977D02*
X016092Y002130D01*
X016169Y002207D01*
X016399Y002207D01*
X016399Y002360D02*
X016399Y001900D01*
X016169Y001900D01*
X016092Y001977D01*
X016553Y001900D02*
X016553Y002207D01*
X016860Y002207D02*
X016860Y001977D01*
X016783Y001900D01*
X016553Y001900D01*
X017013Y001900D02*
X017013Y002130D01*
X017090Y002207D01*
X017243Y002207D01*
X017320Y002130D01*
X017474Y002207D02*
X017627Y002207D01*
X017550Y002284D02*
X017550Y001977D01*
X017474Y001900D01*
X017320Y001900D02*
X017320Y002360D01*
X017857Y002360D02*
X017857Y002437D01*
X017857Y002207D02*
X017857Y001900D01*
X017781Y001900D02*
X017934Y001900D01*
X018087Y001900D02*
X018318Y001900D01*
X018394Y001977D01*
X018394Y002130D01*
X018318Y002207D01*
X018087Y002207D01*
X018087Y001823D01*
X018164Y001747D01*
X018241Y001747D01*
X018855Y001900D02*
X018548Y002360D01*
X019008Y002360D02*
X019315Y001900D01*
X019469Y001900D02*
X019469Y001977D01*
X019545Y001977D01*
X019545Y001900D01*
X019469Y001900D01*
X019699Y001977D02*
X019776Y001900D01*
X020006Y001900D01*
X020159Y001900D02*
X020236Y001977D01*
X020236Y002284D01*
X020313Y002207D02*
X020159Y002207D01*
X020006Y002207D02*
X019776Y002207D01*
X019699Y002130D01*
X019699Y001977D01*
X019545Y002130D02*
X019545Y002207D01*
X019469Y002207D01*
X019469Y002130D01*
X019545Y002130D01*
X020006Y002207D02*
X020006Y001747D01*
X020466Y001900D02*
X020543Y001977D01*
X020543Y002284D01*
X020620Y002207D02*
X020466Y002207D01*
X020773Y002130D02*
X020773Y001900D01*
X021080Y001900D02*
X021080Y002360D01*
X021003Y002207D02*
X020850Y002207D01*
X020773Y002130D01*
X021003Y002207D02*
X021080Y002130D01*
X017934Y002207D02*
X017857Y002207D01*
X013100Y002130D02*
X013023Y002207D01*
X012870Y002207D01*
X012793Y002130D01*
X012773Y013900D02*
X013080Y013900D01*
X012773Y014207D01*
X012773Y014284D01*
X012850Y014360D01*
X013003Y014360D01*
X013080Y014284D01*
X012620Y014284D02*
X012620Y013977D01*
X012313Y014284D01*
X012313Y013977D01*
X012389Y013900D01*
X012543Y013900D01*
X012620Y013977D01*
X012159Y013900D02*
X011852Y013900D01*
X011699Y013900D02*
X011392Y014207D01*
X011392Y014284D01*
X011469Y014360D01*
X011622Y014360D01*
X011699Y014284D01*
X012006Y014360D02*
X012006Y013900D01*
X011699Y013900D02*
X011392Y013900D01*
X011238Y014130D02*
X010932Y014130D01*
X010778Y013977D02*
X010471Y014284D01*
X010471Y013977D01*
X010548Y013900D01*
X010701Y013900D01*
X010778Y013977D01*
X010778Y014284D01*
X010701Y014360D01*
X010548Y014360D01*
X010471Y014284D01*
X010318Y014284D02*
X010318Y014207D01*
X010241Y014130D01*
X010087Y014130D01*
X010011Y014053D01*
X010011Y013977D01*
X010087Y013900D01*
X010241Y013900D01*
X010318Y013977D01*
X010318Y014053D01*
X010241Y014130D01*
X010087Y014130D02*
X010011Y014207D01*
X010011Y014284D01*
X010087Y014360D01*
X010241Y014360D01*
X010318Y014284D01*
X009857Y014130D02*
X009550Y014130D01*
X009397Y014284D02*
X009320Y014360D01*
X009167Y014360D01*
X009090Y014284D01*
X009090Y014207D01*
X009397Y013900D01*
X009090Y013900D01*
X008936Y013977D02*
X008860Y013900D01*
X008706Y013900D01*
X008630Y013977D01*
X008630Y014284D01*
X008706Y014360D01*
X008860Y014360D01*
X008936Y014284D01*
X008936Y014207D01*
X008860Y014130D01*
X008630Y014130D01*
X012006Y014360D02*
X012159Y014207D01*
X012313Y014284D02*
X012389Y014360D01*
X012543Y014360D01*
X012620Y014284D01*
M02*
