%
M48
M72
T01C0.0177
T02C0.0276
T03C0.0315
T04C0.0320
T05C0.0354
T06C0.0400
T07C0.0500
T08C0.0700
T09C0.1300
%
T01
X18640Y6840
T02
X28150Y2814
X24584Y1180
X22616Y1180
X28150Y846
X9887Y13211
X9100Y13211
X8313Y13211
X5887Y13211
X5100Y13211
X4313Y13211
X15600Y14180
X16600Y14180
X17600Y14180
X18600Y14180
X24600Y14180
X25600Y14180
X26600Y14180
T03
X26600Y5474
X26600Y4686
X8900Y9430
X8900Y10180
X8900Y10930
T04
X26600Y3030
X26600Y2180
X26600Y1330
X14600Y1180
X13600Y1180
T05
X17600Y1180
X20600Y1180
X10600Y5180
X9100Y5180
X9100Y8180
X10600Y8180
X14100Y10680
X14100Y11680
X17100Y11680
X17100Y10680
X19100Y10680
X19100Y11680
X22100Y11680
X22100Y10680
T06
X22100Y9180
X21100Y9180
X20100Y9180
X19100Y9180
X18100Y9180
X17100Y9180
X16100Y9180
X15100Y9180
X14100Y9180
X13100Y9180
X5100Y9180
X5100Y8180
X5100Y7180
X3600Y7180
X2600Y7180
X1600Y7180
X1600Y6180
X2600Y6180
X3600Y6180
X5100Y6180
X5100Y5180
X5100Y4180
X7600Y2680
X8600Y2680
X9600Y2680
X9600Y1680
X8600Y1680
X7600Y1680
X13100Y3180
X14100Y3180
X15100Y3180
X16100Y3180
X17100Y3180
X18100Y3180
X19100Y3180
X20100Y3180
X21100Y3180
X22100Y3180
X23100Y3180
X24100Y3180
X24100Y9180
X23100Y9180
X5100Y10180
X5100Y11180
T07
X27050Y10530
T08
X26046Y9526
X28054Y9526
X28054Y11534
X26046Y11534
T09
X1600Y1680
X1600Y14680
X27800Y7780
M30
