G75*
G70*
%OFA0B0*%
%FSLAX24Y24*%
%IPPOS*%
%LPD*%
%AMOC8*
5,1,8,0,0,1.08239X$1,22.5*
%
%ADD10C,0.0020*%
%ADD11R,0.3000X0.3000*%
%ADD12C,0.0160*%
%ADD13C,0.0060*%
%ADD14C,0.0050*%
%ADD15C,0.0030*%
%ADD16C,0.0070*%
%ADD17C,0.0010*%
%ADD18C,0.0080*%
%ADD19C,0.0040*%
%ADD20C,0.0100*%
D10*
X004903Y001110D02*
X005123Y001110D01*
X004903Y001110D01*
X005013Y001110D02*
X005013Y001257D01*
X005013Y001110D01*
X004903Y001257D02*
X005123Y001257D01*
X004903Y001257D01*
X004977Y001331D02*
X004903Y001404D01*
X004977Y001478D01*
X005123Y001478D01*
X004977Y001478D01*
X004903Y001404D01*
X004977Y001331D01*
X005123Y001331D01*
X004977Y001331D01*
X005013Y001331D02*
X005013Y001478D01*
X005013Y001331D01*
X005013Y001552D02*
X005013Y001662D01*
X005050Y001699D01*
X005087Y001699D01*
X005123Y001662D01*
X005123Y001552D01*
X004903Y001552D01*
X004903Y001662D01*
X004940Y001699D01*
X004977Y001699D01*
X005013Y001662D01*
X005013Y001552D01*
X004903Y001552D02*
X004903Y001662D01*
X004940Y001699D01*
X004977Y001699D01*
X005013Y001662D01*
X005050Y001699D01*
X005087Y001699D01*
X005123Y001662D01*
X005123Y001552D01*
X004903Y001552D01*
X005403Y001552D02*
X005623Y001552D01*
X005623Y001699D01*
X005587Y001773D02*
X005623Y001810D01*
X005623Y001883D01*
X005587Y001920D01*
X005440Y001920D01*
X005403Y001883D01*
X005403Y001810D01*
X005440Y001773D01*
X005587Y001773D01*
X005587Y001478D02*
X005623Y001441D01*
X005623Y001331D01*
X005403Y001331D01*
X005403Y001441D01*
X005440Y001478D01*
X005477Y001478D01*
X005513Y001441D01*
X005513Y001331D01*
X005587Y001257D02*
X005403Y001257D01*
X005403Y001110D02*
X005587Y001110D01*
X005623Y001147D01*
X005623Y001220D01*
X005587Y001257D01*
X005513Y001441D02*
X005550Y001478D01*
X005587Y001478D01*
X005623Y001994D02*
X005403Y002141D01*
X005403Y001994D02*
X005623Y002141D01*
X005123Y002104D02*
X005123Y002031D01*
X005087Y001994D01*
X005123Y002031D01*
X005123Y002104D01*
X005087Y002141D01*
X005050Y002141D01*
X005013Y002104D01*
X005013Y002031D01*
X004977Y001994D01*
X004940Y001994D01*
X004903Y002031D01*
X004903Y002104D01*
X004940Y002141D01*
X004903Y002104D01*
X004903Y002031D01*
X004940Y001994D01*
X004977Y001994D01*
X005013Y002031D01*
X005013Y002104D01*
X005050Y002141D01*
X005087Y002141D01*
X005123Y002104D01*
X005087Y002215D02*
X005123Y002252D01*
X005123Y002325D01*
X005087Y002362D01*
X004903Y002362D01*
X005087Y002362D01*
X005123Y002325D01*
X005123Y002252D01*
X005087Y002215D01*
X004903Y002215D01*
X005087Y002215D01*
X005123Y002436D02*
X004903Y002436D01*
X004903Y002546D01*
X004940Y002583D01*
X005013Y002583D01*
X005050Y002546D01*
X005050Y002436D01*
X005050Y002546D01*
X005013Y002583D01*
X004940Y002583D01*
X004903Y002546D01*
X004903Y002436D01*
X005123Y002436D01*
X005123Y002657D02*
X004903Y002657D01*
X004903Y002767D01*
X004940Y002804D01*
X005013Y002804D01*
X005050Y002767D01*
X005050Y002657D01*
X005050Y002767D01*
X005013Y002804D01*
X004940Y002804D01*
X004903Y002767D01*
X004903Y002657D01*
X005123Y002657D01*
X005123Y002878D02*
X004903Y002878D01*
X005123Y002878D01*
X005123Y003025D01*
X005123Y002878D01*
X005403Y002878D02*
X005623Y003025D01*
X005587Y003099D02*
X005623Y003136D01*
X005623Y003209D01*
X005587Y003246D01*
X005550Y003246D01*
X005513Y003209D01*
X005513Y003099D01*
X005587Y003099D01*
X005513Y003099D02*
X005440Y003172D01*
X005403Y003246D01*
X005123Y003246D02*
X005123Y003393D01*
X005123Y003246D01*
X004903Y003246D01*
X004903Y003393D01*
X004903Y003246D01*
X005123Y003246D01*
X005123Y003172D02*
X005123Y003099D01*
X005123Y003172D01*
X005123Y003136D02*
X004903Y003136D01*
X005123Y003136D01*
X005013Y003246D02*
X005013Y003320D01*
X005013Y003246D01*
X004903Y003172D02*
X004903Y003099D01*
X004903Y003172D01*
X005403Y003025D02*
X005623Y002878D01*
X005623Y002804D02*
X005477Y002804D01*
X005403Y002730D01*
X005477Y002657D01*
X005623Y002657D01*
X005623Y002583D02*
X005403Y002583D01*
X005477Y002509D01*
X005403Y002436D01*
X005623Y002436D01*
X005513Y002657D02*
X005513Y002804D01*
X005087Y003467D02*
X005123Y003504D01*
X005123Y003577D01*
X005087Y003614D01*
X005050Y003614D01*
X005013Y003577D01*
X005013Y003504D01*
X004977Y003467D01*
X004940Y003467D01*
X004903Y003504D01*
X004903Y003577D01*
X004940Y003614D01*
X004903Y003577D01*
X004903Y003504D01*
X004940Y003467D01*
X004977Y003467D01*
X005013Y003504D01*
X005013Y003577D01*
X005050Y003614D01*
X005087Y003614D01*
X005123Y003577D01*
X005123Y003504D01*
X005087Y003467D01*
X006143Y004147D02*
X006180Y004110D01*
X006253Y004110D01*
X006290Y004147D01*
X006290Y004183D01*
X006253Y004220D01*
X006180Y004220D01*
X006143Y004257D01*
X006143Y004293D01*
X006180Y004330D01*
X006253Y004330D01*
X006290Y004293D01*
X006364Y004293D02*
X006364Y004147D01*
X006401Y004110D01*
X006474Y004110D01*
X006511Y004147D01*
X006585Y004110D02*
X006732Y004110D01*
X006585Y004110D02*
X006585Y004330D01*
X006511Y004293D02*
X006474Y004330D01*
X006401Y004330D01*
X006364Y004293D01*
X007403Y003662D02*
X007403Y003589D01*
X007440Y003552D01*
X007587Y003552D01*
X007623Y003589D01*
X007623Y003662D01*
X007587Y003699D01*
X007440Y003699D02*
X007403Y003662D01*
X007440Y003478D02*
X007403Y003441D01*
X007403Y003368D01*
X007440Y003331D01*
X007587Y003331D01*
X007623Y003368D01*
X007623Y003441D01*
X007587Y003478D01*
X007550Y003257D02*
X007403Y003257D01*
X007550Y003257D02*
X007623Y003183D01*
X007550Y003110D01*
X007403Y003110D01*
X008403Y003110D02*
X008477Y003183D01*
X008403Y003257D01*
X008623Y003257D01*
X008587Y003331D02*
X008623Y003368D01*
X008623Y003441D01*
X008587Y003478D01*
X008440Y003478D01*
X008403Y003441D01*
X008403Y003368D01*
X008440Y003331D01*
X008587Y003331D01*
X008587Y003552D02*
X008623Y003589D01*
X008623Y003662D01*
X008587Y003699D01*
X008550Y003699D01*
X008513Y003662D01*
X008513Y003589D01*
X008477Y003552D01*
X008440Y003552D01*
X008403Y003589D01*
X008403Y003662D01*
X008440Y003699D01*
X008403Y003773D02*
X008403Y003846D01*
X008403Y003810D02*
X008623Y003810D01*
X008623Y003846D02*
X008623Y003773D01*
X009403Y003662D02*
X009403Y003552D01*
X009623Y003552D01*
X009623Y003662D01*
X009587Y003699D01*
X009440Y003699D01*
X009403Y003662D01*
X009403Y003478D02*
X009623Y003478D01*
X009403Y003331D01*
X009623Y003331D01*
X009587Y003257D02*
X009513Y003257D01*
X009513Y003183D01*
X009440Y003110D02*
X009587Y003110D01*
X009623Y003147D01*
X009623Y003220D01*
X009587Y003257D01*
X009440Y003257D02*
X009403Y003220D01*
X009403Y003147D01*
X009440Y003110D01*
X008623Y003110D02*
X008403Y003110D01*
X010403Y002972D02*
X010403Y002862D01*
X010623Y002862D01*
X010550Y002862D02*
X010550Y002972D01*
X010513Y003009D01*
X010440Y003009D01*
X010403Y002972D01*
X010440Y002788D02*
X010403Y002751D01*
X010403Y002678D01*
X010440Y002641D01*
X010477Y002641D01*
X010513Y002678D01*
X010513Y002751D01*
X010550Y002788D01*
X010587Y002788D01*
X010623Y002751D01*
X010623Y002678D01*
X010587Y002641D01*
X010623Y002567D02*
X010623Y002494D01*
X010623Y002531D02*
X010403Y002531D01*
X010403Y002567D02*
X010403Y002494D01*
X010440Y002199D02*
X010513Y002199D01*
X010550Y002162D01*
X010550Y002052D01*
X010623Y002052D02*
X010403Y002052D01*
X010403Y002162D01*
X010440Y002199D01*
X010550Y002125D02*
X010623Y002199D01*
X010550Y001978D02*
X010403Y001978D01*
X010550Y001978D02*
X010623Y001904D01*
X010550Y001831D01*
X010403Y001831D01*
X010477Y001757D02*
X010623Y001757D01*
X010513Y001757D02*
X010513Y001610D01*
X010477Y001610D02*
X010623Y001610D01*
X010477Y001610D02*
X010403Y001683D01*
X010477Y001757D01*
X009403Y001199D02*
X009403Y001052D01*
X009403Y001125D02*
X009623Y001125D01*
X009587Y000978D02*
X009623Y000941D01*
X009623Y000868D01*
X009587Y000831D01*
X009513Y000868D02*
X009513Y000941D01*
X009550Y000978D01*
X009587Y000978D01*
X009513Y000868D02*
X009477Y000831D01*
X009440Y000831D01*
X009403Y000868D01*
X009403Y000941D01*
X009440Y000978D01*
X009440Y000757D02*
X009513Y000757D01*
X009550Y000720D01*
X009550Y000610D01*
X009623Y000610D02*
X009403Y000610D01*
X009403Y000720D01*
X009440Y000757D01*
X009550Y000683D02*
X009623Y000757D01*
X008623Y000720D02*
X008623Y000647D01*
X008587Y000610D01*
X008513Y000647D02*
X008513Y000720D01*
X008550Y000757D01*
X008587Y000757D01*
X008623Y000720D01*
X008587Y000831D02*
X008623Y000868D01*
X008623Y000941D01*
X008587Y000978D01*
X008623Y001052D02*
X008403Y001052D01*
X008440Y000978D02*
X008403Y000941D01*
X008403Y000868D01*
X008440Y000831D01*
X008587Y000831D01*
X008440Y000757D02*
X008403Y000720D01*
X008403Y000647D01*
X008440Y000610D01*
X008477Y000610D01*
X008513Y000647D01*
X008550Y001052D02*
X008403Y001199D01*
X008513Y001089D02*
X008623Y001199D01*
X007623Y001236D02*
X007623Y001309D01*
X007587Y001346D01*
X007440Y001346D01*
X007403Y001309D01*
X007403Y001236D01*
X007440Y001199D01*
X007587Y001199D01*
X007623Y001236D01*
X007587Y001125D02*
X007623Y001088D01*
X007623Y001015D01*
X007587Y000978D01*
X007623Y000904D02*
X007623Y000831D01*
X007623Y000868D02*
X007403Y000868D01*
X007403Y000904D02*
X007403Y000831D01*
X007403Y000757D02*
X007623Y000757D01*
X007623Y000610D02*
X007403Y000610D01*
X007477Y000683D01*
X007403Y000757D01*
X007440Y000978D02*
X007477Y000978D01*
X007513Y001015D01*
X007513Y001088D01*
X007550Y001125D01*
X007587Y001125D01*
X007440Y001125D02*
X007403Y001088D01*
X007403Y001015D01*
X007440Y000978D01*
X003732Y004647D02*
X003732Y004793D01*
X003695Y004830D01*
X003585Y004830D01*
X003585Y004610D01*
X003695Y004610D01*
X003732Y004647D01*
X003511Y004610D02*
X003511Y004830D01*
X003364Y004830D02*
X003364Y004610D01*
X003290Y004647D02*
X003290Y004720D01*
X003217Y004720D01*
X003290Y004647D02*
X003253Y004610D01*
X003180Y004610D01*
X003143Y004647D01*
X003143Y004793D01*
X003180Y004830D01*
X003253Y004830D01*
X003290Y004793D01*
X003364Y004830D02*
X003511Y004610D01*
X002732Y004647D02*
X002732Y004793D01*
X002695Y004830D01*
X002585Y004830D01*
X002585Y004610D01*
X002695Y004610D01*
X002732Y004647D01*
X002511Y004610D02*
X002364Y004830D01*
X002290Y004830D02*
X002143Y004830D01*
X002217Y004830D02*
X002217Y004610D01*
X002364Y004610D02*
X002511Y004830D01*
X001732Y004610D02*
X001585Y004610D01*
X001585Y004830D01*
X001511Y004793D02*
X001474Y004830D01*
X001401Y004830D01*
X001364Y004793D01*
X001364Y004647D01*
X001401Y004610D01*
X001474Y004610D01*
X001511Y004647D01*
X001290Y004647D02*
X001253Y004610D01*
X001180Y004610D01*
X001143Y004647D01*
X001180Y004720D02*
X001253Y004720D01*
X001290Y004683D01*
X001290Y004647D01*
X001180Y004720D02*
X001143Y004757D01*
X001143Y004793D01*
X001180Y004830D01*
X001253Y004830D01*
X001290Y004793D01*
X000623Y005147D02*
X000623Y005220D01*
X000587Y005257D01*
X000587Y005331D02*
X000623Y005368D01*
X000623Y005441D01*
X000587Y005478D01*
X000550Y005478D01*
X000513Y005441D01*
X000513Y005368D01*
X000477Y005331D01*
X000440Y005331D01*
X000403Y005368D01*
X000403Y005441D01*
X000440Y005478D01*
X000440Y005552D02*
X000587Y005552D01*
X000623Y005589D01*
X000623Y005662D01*
X000587Y005699D01*
X000513Y005699D01*
X000513Y005625D01*
X000440Y005552D02*
X000403Y005589D01*
X000403Y005662D01*
X000440Y005699D01*
X000440Y005773D02*
X000477Y005773D01*
X000513Y005810D01*
X000513Y005883D01*
X000550Y005920D01*
X000587Y005920D01*
X000623Y005883D01*
X000623Y005810D01*
X000587Y005773D01*
X000440Y005773D02*
X000403Y005810D01*
X000403Y005883D01*
X000440Y005920D01*
X000403Y005994D02*
X000623Y005994D01*
X000513Y005994D02*
X000513Y006141D01*
X000440Y006215D02*
X000587Y006215D01*
X000623Y006252D01*
X000623Y006325D01*
X000587Y006362D01*
X000440Y006362D01*
X000403Y006325D01*
X000403Y006252D01*
X000440Y006215D01*
X000403Y006141D02*
X000623Y006141D01*
X000623Y006436D02*
X000403Y006436D01*
X000403Y006546D01*
X000440Y006583D01*
X000513Y006583D01*
X000550Y006546D01*
X000550Y006436D01*
X000623Y006878D02*
X000403Y006878D01*
X000477Y006951D01*
X000403Y007025D01*
X000623Y007025D01*
X000623Y007099D02*
X000477Y007099D01*
X000403Y007172D01*
X000477Y007246D01*
X000623Y007246D01*
X000623Y007320D02*
X000403Y007467D01*
X000513Y007541D02*
X000513Y007651D01*
X000550Y007688D01*
X000587Y007688D01*
X000623Y007651D01*
X000623Y007578D01*
X000587Y007541D01*
X000513Y007541D01*
X000440Y007614D01*
X000403Y007688D01*
X000623Y007467D02*
X000403Y007320D01*
X000513Y007246D02*
X000513Y007099D01*
X001180Y008110D02*
X001143Y008147D01*
X001180Y008110D02*
X001253Y008110D01*
X001290Y008147D01*
X001290Y008183D01*
X001253Y008220D01*
X001180Y008220D01*
X001143Y008257D01*
X001143Y008293D01*
X001180Y008330D01*
X001253Y008330D01*
X001290Y008293D01*
X001364Y008330D02*
X001474Y008330D01*
X001511Y008293D01*
X001511Y008147D01*
X001474Y008110D01*
X001364Y008110D01*
X001364Y008330D01*
X001585Y008257D02*
X001659Y008330D01*
X001732Y008257D01*
X001732Y008110D01*
X001732Y008220D02*
X001585Y008220D01*
X001585Y008257D02*
X001585Y008110D01*
X002143Y008110D02*
X002143Y008330D01*
X002253Y008330D01*
X002290Y008293D01*
X002290Y008220D01*
X002253Y008183D01*
X002143Y008183D01*
X002217Y008183D02*
X002290Y008110D01*
X002364Y008110D02*
X002511Y008330D01*
X002585Y008330D02*
X002585Y008110D01*
X002695Y008110D01*
X002732Y008147D01*
X002732Y008293D01*
X002695Y008330D01*
X002585Y008330D01*
X002364Y008330D02*
X002511Y008110D01*
X003143Y008183D02*
X003217Y008110D01*
X003290Y008183D01*
X003290Y008330D01*
X003364Y008293D02*
X003364Y008147D01*
X003401Y008110D01*
X003474Y008110D01*
X003511Y008147D01*
X003585Y008147D02*
X003622Y008110D01*
X003695Y008110D01*
X003732Y008147D01*
X003732Y008293D02*
X003695Y008330D01*
X003622Y008330D01*
X003585Y008293D01*
X003585Y008147D01*
X003511Y008293D02*
X003474Y008330D01*
X003401Y008330D01*
X003364Y008293D01*
X003143Y008330D02*
X003143Y008183D01*
X006143Y008110D02*
X006143Y008330D01*
X006290Y008110D01*
X006290Y008330D01*
X006511Y008330D02*
X006364Y008110D01*
X006585Y008147D02*
X006585Y008293D01*
X006622Y008330D01*
X006695Y008330D01*
X006732Y008293D01*
X006732Y008147D02*
X006695Y008110D01*
X006622Y008110D01*
X006585Y008147D01*
X006585Y007330D02*
X006695Y007330D01*
X006732Y007293D01*
X006732Y007147D01*
X006695Y007110D01*
X006585Y007110D01*
X006585Y007330D01*
X006511Y007330D02*
X006364Y007110D01*
X006290Y007110D02*
X006217Y007183D01*
X006253Y007183D02*
X006143Y007183D01*
X006143Y007110D02*
X006143Y007330D01*
X006253Y007330D01*
X006290Y007293D01*
X006290Y007220D01*
X006253Y007183D01*
X006364Y007330D02*
X006511Y007110D01*
X006511Y006330D02*
X006364Y006110D01*
X006511Y006110D02*
X006364Y006330D01*
X006290Y006330D02*
X006143Y006330D01*
X006217Y006330D02*
X006217Y006110D01*
X006585Y006110D02*
X006695Y006110D01*
X006732Y006147D01*
X006732Y006293D01*
X006695Y006330D01*
X006585Y006330D01*
X006585Y006110D01*
X006659Y005330D02*
X006732Y005257D01*
X006732Y005110D01*
X006732Y005220D02*
X006585Y005220D01*
X006585Y005257D02*
X006659Y005330D01*
X006585Y005257D02*
X006585Y005110D01*
X006511Y005147D02*
X006511Y005293D01*
X006474Y005330D01*
X006364Y005330D01*
X006364Y005110D01*
X006474Y005110D01*
X006511Y005147D01*
X006290Y005147D02*
X006290Y005183D01*
X006253Y005220D01*
X006180Y005220D01*
X006143Y005257D01*
X006143Y005293D01*
X006180Y005330D01*
X006253Y005330D01*
X006290Y005293D01*
X006290Y005147D02*
X006253Y005110D01*
X006180Y005110D01*
X006143Y005147D01*
X000623Y005147D02*
X000587Y005110D01*
X000440Y005110D01*
X000403Y005147D01*
X000403Y005220D01*
X000440Y005257D01*
X006143Y009110D02*
X006143Y009330D01*
X006290Y009110D01*
X006290Y009330D01*
X006511Y009330D02*
X006364Y009110D01*
X006585Y009147D02*
X006585Y009293D01*
X006622Y009330D01*
X006695Y009330D01*
X006732Y009293D01*
X006732Y009147D02*
X006695Y009110D01*
X006622Y009110D01*
X006585Y009147D01*
X006585Y010110D02*
X006695Y010110D01*
X006732Y010147D01*
X006732Y010293D01*
X006695Y010330D01*
X006585Y010330D01*
X006585Y010110D01*
X006511Y010110D02*
X006511Y010330D01*
X006364Y010330D02*
X006364Y010110D01*
X006290Y010147D02*
X006290Y010220D01*
X006217Y010220D01*
X006290Y010147D02*
X006253Y010110D01*
X006180Y010110D01*
X006143Y010147D01*
X006143Y010293D01*
X006180Y010330D01*
X006253Y010330D01*
X006290Y010293D01*
X006364Y010330D02*
X006511Y010110D01*
X006474Y011110D02*
X006511Y011147D01*
X006474Y011110D02*
X006401Y011110D01*
X006364Y011147D01*
X006364Y011293D01*
X006401Y011330D01*
X006474Y011330D01*
X006511Y011293D01*
X006585Y011293D02*
X006585Y011147D01*
X006622Y011110D01*
X006695Y011110D01*
X006732Y011147D01*
X006732Y011293D02*
X006695Y011330D01*
X006622Y011330D01*
X006585Y011293D01*
X006290Y011330D02*
X006290Y011183D01*
X006217Y011110D01*
X006143Y011183D01*
X006143Y011330D01*
X006217Y011947D02*
X006143Y012020D01*
X006363Y012020D01*
X006363Y011947D02*
X006363Y012094D01*
X006253Y012168D02*
X006253Y012315D01*
X006143Y012389D02*
X006363Y012389D01*
X006290Y012462D01*
X006363Y012536D01*
X006143Y012536D01*
X005363Y012499D02*
X005363Y012389D01*
X005143Y012389D01*
X005143Y012499D01*
X005180Y012536D01*
X005327Y012536D01*
X005363Y012499D01*
X005363Y012315D02*
X005143Y012315D01*
X005143Y012168D02*
X005363Y012315D01*
X005363Y012168D02*
X005143Y012168D01*
X005180Y012094D02*
X005143Y012057D01*
X005143Y011984D01*
X005180Y011947D01*
X005327Y011947D01*
X005363Y011984D01*
X005363Y012057D01*
X005327Y012094D01*
X005253Y012094D01*
X005253Y012020D01*
X004363Y012020D02*
X004290Y011947D01*
X004143Y011947D01*
X004143Y012094D02*
X004290Y012094D01*
X004363Y012020D01*
X004327Y012168D02*
X004363Y012205D01*
X004363Y012278D01*
X004327Y012315D01*
X004327Y012389D02*
X004363Y012426D01*
X004363Y012499D01*
X004327Y012536D01*
X004327Y012389D02*
X004180Y012389D01*
X004143Y012426D01*
X004143Y012499D01*
X004180Y012536D01*
X004180Y012315D02*
X004143Y012278D01*
X004143Y012205D01*
X004180Y012168D01*
X004327Y012168D01*
X007143Y013032D02*
X007143Y013142D01*
X007180Y013179D01*
X007327Y013179D01*
X007363Y013142D01*
X007363Y013032D01*
X007143Y013032D01*
X007143Y013253D02*
X007363Y013253D01*
X007363Y013400D01*
X007363Y013474D02*
X007143Y013474D01*
X007143Y013584D01*
X007180Y013621D01*
X007217Y013621D01*
X007253Y013584D01*
X007253Y013474D01*
X007253Y013584D02*
X007290Y013621D01*
X007327Y013621D01*
X007363Y013584D01*
X007363Y013474D01*
X007253Y013326D02*
X007253Y013253D01*
X007143Y013253D02*
X007143Y013400D01*
X007143Y013695D02*
X007327Y013695D01*
X007363Y013731D01*
X007363Y013805D01*
X007327Y013842D01*
X007143Y013842D01*
X007180Y013916D02*
X007327Y013916D01*
X007363Y013952D01*
X007363Y014026D01*
X007327Y014063D01*
X007253Y014063D01*
X007253Y013989D01*
X007180Y013916D02*
X007143Y013952D01*
X007143Y014026D01*
X007180Y014063D01*
X007180Y014358D02*
X007217Y014358D01*
X007253Y014394D01*
X007253Y014468D01*
X007290Y014505D01*
X007327Y014505D01*
X007363Y014468D01*
X007363Y014394D01*
X007327Y014358D01*
X007180Y014358D02*
X007143Y014394D01*
X007143Y014468D01*
X007180Y014505D01*
X007143Y014579D02*
X007363Y014579D01*
X007363Y014726D01*
X007363Y014800D02*
X007143Y014800D01*
X007143Y014910D01*
X007180Y014946D01*
X007253Y014946D01*
X007290Y014910D01*
X007290Y014800D01*
X007290Y014873D02*
X007363Y014946D01*
X007363Y015021D02*
X007363Y015094D01*
X007363Y015057D02*
X007143Y015057D01*
X007143Y015021D02*
X007143Y015094D01*
X007217Y015168D02*
X007143Y015241D01*
X007217Y015315D01*
X007363Y015315D01*
X007363Y015389D02*
X007143Y015389D01*
X007253Y015315D02*
X007253Y015168D01*
X007217Y015168D02*
X007363Y015168D01*
X007363Y015389D02*
X007363Y015536D01*
X007143Y014726D02*
X007143Y014579D01*
X007253Y014579D02*
X007253Y014652D01*
X003363Y014505D02*
X003363Y014358D01*
X003363Y014431D02*
X003143Y014431D01*
X003217Y014358D01*
X003253Y014579D02*
X003253Y014726D01*
X003143Y014800D02*
X003363Y014800D01*
X003290Y014873D01*
X003363Y014946D01*
X003143Y014946D01*
X003143Y015021D02*
X003143Y015094D01*
X003143Y015057D02*
X003363Y015057D01*
X003363Y015021D02*
X003363Y015094D01*
X003363Y015168D02*
X003143Y015168D01*
X003143Y015278D01*
X003180Y015315D01*
X003253Y015315D01*
X003290Y015278D01*
X003290Y015168D01*
X003290Y015241D02*
X003363Y015315D01*
X003363Y015389D02*
X003143Y015389D01*
X003143Y015536D01*
X003253Y015462D02*
X003253Y015389D01*
X003363Y015389D02*
X003363Y015536D01*
X008143Y012499D02*
X008143Y012389D01*
X008363Y012389D01*
X008363Y012499D01*
X008327Y012536D01*
X008180Y012536D01*
X008143Y012499D01*
X008143Y012315D02*
X008363Y012315D01*
X008143Y012168D01*
X008363Y012168D01*
X008327Y012094D02*
X008253Y012094D01*
X008253Y012020D01*
X008180Y011947D02*
X008327Y011947D01*
X008363Y011984D01*
X008363Y012057D01*
X008327Y012094D01*
X008180Y012094D02*
X008143Y012057D01*
X008143Y011984D01*
X008180Y011947D01*
X009143Y012021D02*
X009143Y012131D01*
X009180Y012167D01*
X009253Y012167D01*
X009290Y012131D01*
X009290Y012021D01*
X009290Y012094D02*
X009363Y012167D01*
X009363Y012242D02*
X009143Y012388D01*
X009143Y012463D02*
X009143Y012536D01*
X009143Y012499D02*
X009363Y012499D01*
X009363Y012463D02*
X009363Y012536D01*
X009363Y012388D02*
X009143Y012242D01*
X009143Y012021D02*
X009363Y012021D01*
X010143Y012020D02*
X010363Y012020D01*
X010363Y012168D02*
X010143Y012315D01*
X010180Y012389D02*
X010327Y012389D01*
X010363Y012426D01*
X010363Y012499D01*
X010327Y012536D01*
X010180Y012536D01*
X010143Y012499D01*
X010143Y012426D01*
X010180Y012389D01*
X010363Y012315D02*
X010143Y012168D01*
X010143Y012094D02*
X010143Y011947D01*
X027143Y004293D02*
X027180Y004330D01*
X027253Y004330D01*
X027290Y004293D01*
X027290Y004257D01*
X027253Y004220D01*
X027290Y004183D01*
X027290Y004147D01*
X027253Y004110D01*
X027180Y004110D01*
X027143Y004147D01*
X027217Y004220D02*
X027253Y004220D01*
X027364Y004147D02*
X027401Y004147D01*
X027401Y004110D01*
X027364Y004110D01*
X027364Y004147D01*
X027475Y004220D02*
X027622Y004220D01*
X027696Y004257D02*
X027769Y004110D01*
X027843Y004257D01*
X027917Y004220D02*
X028064Y004220D01*
X028138Y004257D02*
X028211Y004330D01*
X028211Y004110D01*
X028138Y004110D02*
X028285Y004110D01*
X028359Y004110D02*
X028506Y004257D01*
X028506Y004293D01*
X028469Y004330D01*
X028395Y004330D01*
X028359Y004293D01*
X028359Y004110D02*
X028506Y004110D01*
X028653Y004110D02*
X028727Y004257D01*
X028580Y004257D02*
X028653Y004110D01*
X027585Y004110D02*
X027585Y004330D01*
X027475Y004220D01*
X025084Y002293D02*
X025084Y002257D01*
X025047Y002220D01*
X025084Y002183D01*
X025084Y002147D01*
X025047Y002110D01*
X024974Y002110D01*
X024937Y002147D01*
X024863Y002147D02*
X024863Y002110D01*
X024826Y002110D01*
X024826Y002147D01*
X024863Y002147D01*
X024752Y002147D02*
X024716Y002110D01*
X024642Y002110D01*
X024605Y002147D01*
X024679Y002220D02*
X024716Y002220D01*
X024752Y002183D01*
X024752Y002147D01*
X024716Y002220D02*
X024752Y002257D01*
X024752Y002293D01*
X024716Y002330D01*
X024642Y002330D01*
X024605Y002293D01*
X024937Y002293D02*
X024974Y002330D01*
X025047Y002330D01*
X025084Y002293D01*
X025047Y002220D02*
X025010Y002220D01*
X025158Y002257D02*
X025231Y002110D01*
X025305Y002257D01*
X024311Y002110D02*
X024237Y002110D01*
X024274Y002110D02*
X024274Y002257D01*
X024237Y002257D01*
X024274Y002330D02*
X024274Y002367D01*
X024163Y002220D02*
X024163Y002110D01*
X024163Y002220D02*
X024126Y002257D01*
X024016Y002257D01*
X024016Y002110D01*
X023942Y002110D02*
X023869Y002110D01*
X023906Y002110D02*
X023906Y002257D01*
X023869Y002257D01*
X023906Y002330D02*
X023906Y002367D01*
X023795Y002220D02*
X023795Y002110D01*
X023721Y002110D02*
X023721Y002220D01*
X023758Y002257D01*
X023795Y002220D01*
X023721Y002220D02*
X023685Y002257D01*
X023648Y002257D01*
X023648Y002110D01*
X023353Y002147D02*
X023353Y002220D01*
X023316Y002257D01*
X023243Y002257D01*
X023206Y002220D01*
X023206Y002147D01*
X023243Y002110D01*
X023316Y002110D01*
X023353Y002147D01*
X023132Y002257D02*
X023095Y002257D01*
X023022Y002183D01*
X023022Y002110D02*
X023022Y002257D01*
X022948Y002293D02*
X022948Y002220D01*
X022911Y002183D01*
X022801Y002183D01*
X022801Y002110D02*
X022801Y002330D01*
X022911Y002330D01*
X022948Y002293D01*
X022506Y002220D02*
X022469Y002257D01*
X022395Y002257D01*
X022359Y002220D01*
X022359Y002147D01*
X022395Y002110D01*
X022469Y002110D01*
X022506Y002147D01*
X022506Y002220D01*
X022285Y002220D02*
X022285Y002110D01*
X022285Y002220D02*
X022248Y002257D01*
X022138Y002257D01*
X022138Y002110D01*
X022064Y002110D02*
X021990Y002110D01*
X022027Y002110D02*
X022027Y002257D01*
X021990Y002257D01*
X021916Y002257D02*
X021916Y002110D01*
X021806Y002110D01*
X021769Y002147D01*
X021769Y002257D01*
X021695Y002257D02*
X021585Y002257D01*
X021548Y002220D01*
X021548Y002147D01*
X021585Y002110D01*
X021695Y002110D01*
X021695Y002330D01*
X021474Y002257D02*
X021438Y002257D01*
X021364Y002183D01*
X021364Y002110D02*
X021364Y002257D01*
X021290Y002257D02*
X021217Y002330D01*
X021143Y002257D01*
X021143Y002110D01*
X021143Y002220D02*
X021290Y002220D01*
X021290Y002257D02*
X021290Y002110D01*
X022027Y002330D02*
X022027Y002367D01*
X017058Y000793D02*
X017021Y000830D01*
X016948Y000830D01*
X016911Y000793D01*
X016837Y000793D02*
X016837Y000647D01*
X016800Y000610D01*
X016690Y000610D01*
X016690Y000830D01*
X016800Y000830D01*
X016837Y000793D01*
X016911Y000610D02*
X017058Y000757D01*
X017058Y000793D01*
X017058Y000610D02*
X016911Y000610D01*
X016395Y000610D02*
X016395Y000720D01*
X016358Y000757D01*
X016248Y000757D01*
X016248Y000610D01*
X016174Y000647D02*
X016174Y000720D01*
X016137Y000757D01*
X016064Y000757D01*
X016027Y000720D01*
X016027Y000647D01*
X016064Y000610D01*
X016137Y000610D01*
X016174Y000647D01*
X015732Y000647D02*
X015732Y000793D01*
X015695Y000830D01*
X015585Y000830D01*
X015585Y000610D01*
X015695Y000610D01*
X015732Y000647D01*
X015511Y000610D02*
X015364Y000610D01*
X015364Y000830D01*
X015511Y000830D01*
X015438Y000720D02*
X015364Y000720D01*
X015290Y000610D02*
X015143Y000610D01*
X015143Y000830D01*
D11*
G36*
X022754Y006014D02*
X020633Y003893D01*
X018512Y006014D01*
X020633Y008135D01*
X022754Y006014D01*
G37*
D12*
X023133Y006100D02*
X023135Y006144D01*
X023141Y006188D01*
X023151Y006231D01*
X023164Y006273D01*
X023181Y006314D01*
X023202Y006353D01*
X023226Y006390D01*
X023253Y006425D01*
X023283Y006457D01*
X023316Y006487D01*
X023352Y006513D01*
X023389Y006537D01*
X023429Y006556D01*
X023470Y006573D01*
X023513Y006585D01*
X023556Y006594D01*
X023600Y006599D01*
X023644Y006600D01*
X023688Y006597D01*
X023732Y006590D01*
X023775Y006579D01*
X023817Y006565D01*
X023857Y006547D01*
X023896Y006525D01*
X023932Y006501D01*
X023966Y006473D01*
X023998Y006442D01*
X024027Y006408D01*
X024053Y006372D01*
X024075Y006334D01*
X024094Y006294D01*
X024109Y006252D01*
X024121Y006210D01*
X024129Y006166D01*
X024133Y006122D01*
X024133Y006078D01*
X024129Y006034D01*
X024121Y005990D01*
X024109Y005948D01*
X024094Y005906D01*
X024075Y005866D01*
X024053Y005828D01*
X024027Y005792D01*
X023998Y005758D01*
X023966Y005727D01*
X023932Y005699D01*
X023896Y005675D01*
X023857Y005653D01*
X023817Y005635D01*
X023775Y005621D01*
X023732Y005610D01*
X023688Y005603D01*
X023644Y005600D01*
X023600Y005601D01*
X023556Y005606D01*
X023513Y005615D01*
X023470Y005627D01*
X023429Y005644D01*
X023389Y005663D01*
X023352Y005687D01*
X023316Y005713D01*
X023283Y005743D01*
X023253Y005775D01*
X023226Y005810D01*
X023202Y005847D01*
X023181Y005886D01*
X023164Y005927D01*
X023151Y005969D01*
X023141Y006012D01*
X023135Y006056D01*
X023133Y006100D01*
D13*
X026733Y003145D02*
X026733Y002987D01*
X027283Y002925D02*
X027283Y001275D01*
X026733Y001213D02*
X026733Y001055D01*
X004133Y005850D02*
X003883Y005600D01*
X003383Y005600D01*
X003133Y005850D01*
X003133Y007350D01*
X003383Y007600D01*
X003883Y007600D01*
X004133Y007350D01*
X004133Y005850D01*
X003133Y005850D02*
X002883Y005600D01*
X002383Y005600D01*
X002133Y005850D01*
X002133Y007350D01*
X002383Y007600D01*
X002883Y007600D01*
X003133Y007350D01*
X002133Y007350D02*
X001883Y007600D01*
X001383Y007600D01*
X001133Y007350D01*
X001133Y005850D01*
X001383Y005600D01*
X001883Y005600D01*
X002133Y005850D01*
D14*
X007133Y002800D02*
X007433Y003100D01*
X007933Y003100D01*
X008133Y002900D01*
X008333Y003100D01*
X008933Y003100D01*
X009133Y002900D01*
X009333Y003100D01*
X009833Y003100D01*
X010133Y002800D01*
X010133Y001400D01*
X009833Y001100D01*
X009333Y001100D01*
X009133Y001300D01*
X008933Y001100D01*
X008333Y001100D01*
X008133Y001300D01*
X007933Y001100D01*
X007433Y001100D01*
X007133Y001400D01*
X007133Y002800D01*
X008633Y009350D02*
X009633Y009350D01*
X008633Y009350D02*
X008633Y011850D01*
X009383Y011850D01*
X011633Y012600D02*
X028633Y012600D01*
X028633Y015600D01*
X011633Y015600D01*
X011633Y012600D01*
X009383Y011850D02*
X009452Y011855D01*
X009521Y011856D01*
X009590Y011853D01*
X009659Y011847D01*
X009728Y011837D01*
X009796Y011823D01*
X009863Y011805D01*
X009928Y011784D01*
X009993Y011759D01*
X010056Y011730D01*
X010117Y011698D01*
X010177Y011663D01*
X010235Y011625D01*
X010290Y011583D01*
X010343Y011538D01*
X010393Y011491D01*
X010441Y011441D01*
X010486Y011388D01*
X010528Y011333D01*
X010567Y011276D01*
X010602Y011216D01*
X010635Y011155D01*
X010663Y011092D01*
X010689Y011028D01*
X010711Y010962D01*
X010729Y010895D01*
X010743Y010828D01*
X010754Y010759D01*
X010761Y010690D01*
X010764Y010621D01*
X010763Y010552D01*
X010759Y010483D01*
X010750Y010414D01*
X010738Y010346D01*
X010722Y010279D01*
X010703Y010212D01*
X010680Y010147D01*
X010653Y010083D01*
X010623Y010021D01*
X010589Y009961D01*
X010552Y009902D01*
X010512Y009846D01*
X010469Y009791D01*
X010423Y009740D01*
X010374Y009691D01*
X010323Y009644D01*
X010269Y009601D01*
X010213Y009560D01*
X010154Y009523D01*
X010094Y009489D01*
X010032Y009459D01*
X009968Y009431D01*
X009903Y009408D01*
X009837Y009388D01*
X009770Y009372D01*
X009702Y009359D01*
X009633Y009350D01*
X026082Y006466D02*
X026515Y006466D01*
X026515Y004773D01*
X026082Y004773D01*
X026082Y004734D01*
X027972Y005482D02*
X027972Y005718D01*
X029114Y005718D01*
X029114Y005482D02*
X027972Y005482D01*
D15*
X010018Y009405D02*
X010018Y009590D01*
X009957Y009652D01*
X009710Y009652D01*
X009648Y009590D01*
X009648Y009405D01*
X010018Y009405D01*
X009957Y009773D02*
X010018Y009835D01*
X010018Y009959D01*
X009957Y010020D01*
X009895Y010020D01*
X009833Y009959D01*
X009833Y009835D01*
X009771Y009773D01*
X009710Y009773D01*
X009648Y009835D01*
X009648Y009959D01*
X009710Y010020D01*
X009771Y010142D02*
X009648Y010265D01*
X010018Y010265D01*
X010018Y010142D02*
X010018Y010389D01*
X009957Y010510D02*
X009895Y010510D01*
X009833Y010572D01*
X009833Y010695D01*
X009895Y010757D01*
X009957Y010757D01*
X010018Y010695D01*
X010018Y010572D01*
X009957Y010510D01*
X009833Y010572D02*
X009771Y010510D01*
X009710Y010510D01*
X009648Y010572D01*
X009648Y010695D01*
X009710Y010757D01*
X009771Y010757D01*
X009833Y010695D01*
X009710Y010878D02*
X009648Y010940D01*
X009648Y011064D01*
X009710Y011125D01*
X009771Y011125D01*
X010018Y010878D01*
X010018Y011125D01*
X009957Y011247D02*
X009710Y011247D01*
X009648Y011308D01*
X009648Y011432D01*
X009710Y011494D01*
X009957Y011247D01*
X010018Y011308D01*
X010018Y011432D01*
X009957Y011494D01*
X009710Y011494D01*
X007218Y001162D02*
X007218Y000915D01*
X007218Y001038D02*
X006848Y001038D01*
X006971Y000915D01*
D16*
X025924Y005091D02*
X026251Y005091D01*
X026088Y004928D02*
X026088Y005255D01*
X026167Y005682D02*
X026167Y006009D01*
D17*
X027294Y002947D02*
X027263Y002908D01*
X027264Y002908D02*
X027214Y002945D01*
X027162Y002978D01*
X027108Y003008D01*
X027052Y003035D01*
X026995Y003059D01*
X026937Y003079D01*
X026877Y003095D01*
X026817Y003108D01*
X026756Y003118D01*
X026694Y003123D01*
X026632Y003125D01*
X026571Y003123D01*
X026509Y003117D01*
X026448Y003108D01*
X026388Y003095D01*
X026328Y003079D01*
X026270Y003058D01*
X026213Y003035D01*
X026157Y003008D01*
X026103Y002977D01*
X026051Y002944D01*
X026002Y002907D01*
X025954Y002868D01*
X025909Y002826D01*
X025867Y002781D01*
X025827Y002733D01*
X025790Y002683D01*
X025757Y002632D01*
X025726Y002578D01*
X025699Y002522D01*
X025675Y002465D01*
X025655Y002407D01*
X025608Y002421D01*
X025607Y002422D01*
X025629Y002483D01*
X025653Y002543D01*
X025682Y002601D01*
X025714Y002657D01*
X025749Y002712D01*
X025788Y002764D01*
X025829Y002814D01*
X025874Y002861D01*
X025921Y002905D01*
X025971Y002947D01*
X026023Y002985D01*
X026077Y003020D01*
X026134Y003052D01*
X026192Y003080D01*
X026252Y003105D01*
X026313Y003126D01*
X026376Y003144D01*
X026439Y003157D01*
X026503Y003167D01*
X026568Y003173D01*
X026632Y003175D01*
X026697Y003173D01*
X026762Y003167D01*
X026826Y003158D01*
X026889Y003144D01*
X026952Y003127D01*
X027013Y003106D01*
X027073Y003081D01*
X027131Y003053D01*
X027188Y003021D01*
X027242Y002986D01*
X027295Y002947D01*
X027289Y002940D01*
X027237Y002978D01*
X027183Y003013D01*
X027127Y003045D01*
X027069Y003073D01*
X027010Y003097D01*
X026949Y003118D01*
X026887Y003135D01*
X026824Y003149D01*
X026761Y003158D01*
X026697Y003164D01*
X026632Y003166D01*
X026568Y003164D01*
X026504Y003158D01*
X026441Y003149D01*
X026378Y003135D01*
X026316Y003118D01*
X026255Y003097D01*
X026196Y003072D01*
X026138Y003044D01*
X026082Y003013D01*
X026028Y002978D01*
X025976Y002940D01*
X025927Y002899D01*
X025880Y002855D01*
X025836Y002808D01*
X025795Y002758D01*
X025757Y002707D01*
X025722Y002653D01*
X025690Y002597D01*
X025662Y002539D01*
X025637Y002480D01*
X025616Y002419D01*
X025624Y002416D01*
X025645Y002477D01*
X025670Y002535D01*
X025698Y002593D01*
X025729Y002648D01*
X025764Y002702D01*
X025802Y002753D01*
X025843Y002802D01*
X025886Y002848D01*
X025933Y002892D01*
X025982Y002933D01*
X026033Y002970D01*
X026087Y003005D01*
X026142Y003036D01*
X026199Y003064D01*
X026258Y003088D01*
X026319Y003109D01*
X026380Y003126D01*
X026442Y003140D01*
X026505Y003149D01*
X026569Y003155D01*
X026632Y003157D01*
X026696Y003155D01*
X026760Y003149D01*
X026823Y003140D01*
X026885Y003127D01*
X026946Y003109D01*
X027007Y003089D01*
X027066Y003064D01*
X027123Y003037D01*
X027178Y003005D01*
X027232Y002971D01*
X027283Y002933D01*
X027278Y002926D01*
X027227Y002963D01*
X027174Y002998D01*
X027119Y003029D01*
X027062Y003056D01*
X027003Y003080D01*
X026944Y003101D01*
X026883Y003118D01*
X026821Y003131D01*
X026759Y003140D01*
X026696Y003146D01*
X026632Y003148D01*
X026569Y003146D01*
X026506Y003140D01*
X026444Y003131D01*
X026382Y003118D01*
X026321Y003101D01*
X026262Y003080D01*
X026203Y003056D01*
X026146Y003028D01*
X026091Y002997D01*
X026038Y002963D01*
X025987Y002925D01*
X025939Y002885D01*
X025893Y002842D01*
X025849Y002796D01*
X025809Y002747D01*
X025771Y002697D01*
X025737Y002644D01*
X025706Y002589D01*
X025678Y002532D01*
X025654Y002473D01*
X025633Y002414D01*
X025642Y002411D01*
X025662Y002470D01*
X025686Y002528D01*
X025714Y002584D01*
X025745Y002639D01*
X025779Y002691D01*
X025816Y002742D01*
X025856Y002790D01*
X025899Y002835D01*
X025945Y002878D01*
X025993Y002918D01*
X026043Y002955D01*
X026096Y002989D01*
X026151Y003020D01*
X026207Y003048D01*
X026265Y003072D01*
X026324Y003092D01*
X026384Y003109D01*
X026446Y003122D01*
X026507Y003131D01*
X026570Y003137D01*
X026632Y003139D01*
X026695Y003137D01*
X026757Y003132D01*
X026819Y003122D01*
X026881Y003109D01*
X026941Y003092D01*
X027000Y003072D01*
X027058Y003048D01*
X027114Y003021D01*
X027169Y002990D01*
X027222Y002956D01*
X027272Y002919D01*
X027267Y002912D01*
X027217Y002949D01*
X027164Y002982D01*
X027110Y003013D01*
X027054Y003040D01*
X026997Y003064D01*
X026938Y003084D01*
X026878Y003100D01*
X026818Y003113D01*
X026756Y003123D01*
X026695Y003128D01*
X026632Y003130D01*
X026570Y003128D01*
X026509Y003122D01*
X026447Y003113D01*
X026386Y003100D01*
X026327Y003083D01*
X026268Y003063D01*
X026211Y003039D01*
X026155Y003012D01*
X026101Y002982D01*
X026048Y002948D01*
X025998Y002911D01*
X025951Y002872D01*
X025905Y002829D01*
X025863Y002784D01*
X025823Y002736D01*
X025786Y002686D01*
X025752Y002634D01*
X025722Y002580D01*
X025695Y002524D01*
X025671Y002467D01*
X025650Y002408D01*
X025608Y001779D02*
X025656Y001794D01*
X025655Y001793D02*
X025675Y001735D01*
X025699Y001678D01*
X025726Y001622D01*
X025757Y001568D01*
X025790Y001517D01*
X025827Y001467D01*
X025867Y001419D01*
X025909Y001374D01*
X025954Y001332D01*
X026002Y001293D01*
X026051Y001256D01*
X026103Y001223D01*
X026157Y001192D01*
X026213Y001165D01*
X026270Y001142D01*
X026328Y001121D01*
X026388Y001105D01*
X026448Y001092D01*
X026509Y001083D01*
X026571Y001077D01*
X026632Y001075D01*
X026694Y001077D01*
X026756Y001082D01*
X026817Y001092D01*
X026877Y001105D01*
X026937Y001121D01*
X026995Y001141D01*
X027052Y001165D01*
X027108Y001192D01*
X027162Y001222D01*
X027214Y001255D01*
X027264Y001292D01*
X027294Y001253D01*
X027295Y001253D01*
X027242Y001214D01*
X027188Y001179D01*
X027131Y001147D01*
X027073Y001119D01*
X027013Y001094D01*
X026952Y001073D01*
X026889Y001056D01*
X026826Y001042D01*
X026762Y001033D01*
X026697Y001027D01*
X026632Y001025D01*
X026568Y001027D01*
X026503Y001033D01*
X026439Y001043D01*
X026376Y001056D01*
X026313Y001074D01*
X026252Y001095D01*
X026192Y001120D01*
X026134Y001148D01*
X026077Y001180D01*
X026023Y001215D01*
X025971Y001253D01*
X025921Y001295D01*
X025874Y001339D01*
X025829Y001386D01*
X025788Y001436D01*
X025749Y001488D01*
X025714Y001543D01*
X025682Y001599D01*
X025653Y001657D01*
X025629Y001717D01*
X025607Y001778D01*
X025616Y001781D01*
X025637Y001720D01*
X025662Y001661D01*
X025690Y001603D01*
X025722Y001547D01*
X025756Y001493D01*
X025795Y001442D01*
X025836Y001392D01*
X025880Y001345D01*
X025927Y001301D01*
X025976Y001260D01*
X026028Y001222D01*
X026082Y001187D01*
X026138Y001156D01*
X026196Y001128D01*
X026255Y001103D01*
X026316Y001082D01*
X026378Y001065D01*
X026441Y001051D01*
X026504Y001042D01*
X026568Y001036D01*
X026632Y001034D01*
X026697Y001036D01*
X026761Y001042D01*
X026824Y001051D01*
X026887Y001065D01*
X026949Y001082D01*
X027010Y001103D01*
X027069Y001127D01*
X027127Y001155D01*
X027183Y001187D01*
X027237Y001222D01*
X027289Y001260D01*
X027283Y001267D01*
X027232Y001229D01*
X027178Y001195D01*
X027123Y001163D01*
X027066Y001136D01*
X027007Y001111D01*
X026946Y001091D01*
X026885Y001073D01*
X026823Y001060D01*
X026760Y001051D01*
X026696Y001045D01*
X026632Y001043D01*
X026569Y001045D01*
X026505Y001051D01*
X026442Y001060D01*
X026380Y001074D01*
X026319Y001091D01*
X026258Y001112D01*
X026199Y001136D01*
X026142Y001164D01*
X026087Y001195D01*
X026033Y001230D01*
X025982Y001267D01*
X025933Y001308D01*
X025886Y001352D01*
X025843Y001398D01*
X025802Y001447D01*
X025764Y001498D01*
X025729Y001552D01*
X025698Y001607D01*
X025670Y001665D01*
X025645Y001723D01*
X025624Y001784D01*
X025633Y001786D01*
X025654Y001727D01*
X025678Y001668D01*
X025706Y001611D01*
X025737Y001556D01*
X025771Y001503D01*
X025809Y001453D01*
X025849Y001404D01*
X025893Y001358D01*
X025939Y001315D01*
X025987Y001275D01*
X026038Y001237D01*
X026091Y001203D01*
X026146Y001172D01*
X026203Y001144D01*
X026262Y001120D01*
X026321Y001099D01*
X026382Y001082D01*
X026444Y001069D01*
X026506Y001060D01*
X026569Y001054D01*
X026632Y001052D01*
X026696Y001054D01*
X026759Y001060D01*
X026821Y001069D01*
X026883Y001082D01*
X026944Y001099D01*
X027003Y001120D01*
X027062Y001144D01*
X027119Y001171D01*
X027174Y001202D01*
X027227Y001236D01*
X027278Y001274D01*
X027272Y001281D01*
X027222Y001244D01*
X027169Y001210D01*
X027114Y001179D01*
X027058Y001152D01*
X027000Y001128D01*
X026941Y001108D01*
X026881Y001091D01*
X026819Y001078D01*
X026757Y001068D01*
X026695Y001063D01*
X026632Y001061D01*
X026570Y001063D01*
X026507Y001069D01*
X026446Y001078D01*
X026384Y001091D01*
X026324Y001108D01*
X026265Y001128D01*
X026207Y001152D01*
X026151Y001180D01*
X026096Y001211D01*
X026043Y001245D01*
X025993Y001282D01*
X025945Y001322D01*
X025899Y001365D01*
X025856Y001410D01*
X025816Y001458D01*
X025779Y001509D01*
X025745Y001561D01*
X025714Y001616D01*
X025686Y001672D01*
X025662Y001730D01*
X025642Y001789D01*
X025650Y001792D01*
X025671Y001733D01*
X025695Y001676D01*
X025722Y001620D01*
X025752Y001566D01*
X025786Y001514D01*
X025823Y001464D01*
X025863Y001416D01*
X025905Y001371D01*
X025951Y001328D01*
X025998Y001289D01*
X026048Y001252D01*
X026101Y001218D01*
X026155Y001188D01*
X026211Y001161D01*
X026268Y001137D01*
X026327Y001117D01*
X026386Y001100D01*
X026447Y001087D01*
X026509Y001078D01*
X026570Y001072D01*
X026632Y001070D01*
X026694Y001072D01*
X026756Y001077D01*
X026818Y001087D01*
X026878Y001100D01*
X026938Y001116D01*
X026997Y001136D01*
X027054Y001160D01*
X027110Y001187D01*
X027164Y001218D01*
X027217Y001251D01*
X027267Y001288D01*
X014864Y001523D02*
X014786Y001478D01*
X014786Y001479D02*
X014758Y001523D01*
X014727Y001565D01*
X014694Y001605D01*
X014658Y001643D01*
X014619Y001678D01*
X014578Y001710D01*
X014534Y001740D01*
X014489Y001766D01*
X014442Y001789D01*
X014394Y001809D01*
X014344Y001825D01*
X014294Y001838D01*
X014242Y001847D01*
X014190Y001853D01*
X014138Y001855D01*
X014137Y001944D01*
X014138Y001945D01*
X014193Y001943D01*
X014247Y001937D01*
X014302Y001928D01*
X014355Y001915D01*
X014407Y001899D01*
X014459Y001880D01*
X014509Y001857D01*
X014557Y001831D01*
X014604Y001802D01*
X014648Y001770D01*
X014691Y001735D01*
X014731Y001697D01*
X014768Y001657D01*
X014803Y001615D01*
X014835Y001570D01*
X014864Y001524D01*
X014856Y001519D01*
X014828Y001565D01*
X014796Y001609D01*
X014761Y001651D01*
X014724Y001691D01*
X014685Y001728D01*
X014643Y001763D01*
X014599Y001794D01*
X014553Y001823D01*
X014505Y001849D01*
X014455Y001871D01*
X014405Y001891D01*
X014353Y001907D01*
X014300Y001919D01*
X014246Y001928D01*
X014192Y001934D01*
X014138Y001936D01*
X014138Y001927D01*
X014192Y001925D01*
X014245Y001919D01*
X014298Y001910D01*
X014350Y001898D01*
X014402Y001882D01*
X014452Y001863D01*
X014501Y001841D01*
X014548Y001815D01*
X014594Y001787D01*
X014637Y001755D01*
X014679Y001721D01*
X014718Y001685D01*
X014755Y001645D01*
X014789Y001604D01*
X014820Y001560D01*
X014849Y001515D01*
X014841Y001510D01*
X014811Y001558D01*
X014777Y001604D01*
X014741Y001647D01*
X014701Y001688D01*
X014659Y001726D01*
X014615Y001761D01*
X014568Y001793D01*
X014519Y001821D01*
X014468Y001846D01*
X014415Y001868D01*
X014362Y001885D01*
X014307Y001899D01*
X014251Y001909D01*
X014195Y001916D01*
X014138Y001918D01*
X014138Y001909D01*
X014194Y001907D01*
X014250Y001901D01*
X014305Y001891D01*
X014359Y001877D01*
X014412Y001859D01*
X014464Y001838D01*
X014515Y001813D01*
X014563Y001785D01*
X014609Y001754D01*
X014654Y001719D01*
X014695Y001682D01*
X014734Y001641D01*
X014770Y001599D01*
X014803Y001553D01*
X014833Y001506D01*
X014825Y001501D01*
X014796Y001548D01*
X014763Y001593D01*
X014727Y001635D01*
X014689Y001675D01*
X014648Y001712D01*
X014604Y001747D01*
X014558Y001778D01*
X014510Y001805D01*
X014461Y001830D01*
X014409Y001851D01*
X014357Y001868D01*
X014303Y001882D01*
X014248Y001892D01*
X014193Y001898D01*
X014138Y001900D01*
X014138Y001891D01*
X014193Y001889D01*
X014247Y001883D01*
X014301Y001873D01*
X014354Y001859D01*
X014406Y001842D01*
X014457Y001822D01*
X014506Y001797D01*
X014553Y001770D01*
X014599Y001739D01*
X014642Y001706D01*
X014683Y001669D01*
X014721Y001629D01*
X014756Y001587D01*
X014788Y001543D01*
X014817Y001497D01*
X014809Y001492D01*
X014781Y001538D01*
X014749Y001582D01*
X014714Y001623D01*
X014676Y001662D01*
X014636Y001699D01*
X014594Y001732D01*
X014549Y001762D01*
X014502Y001790D01*
X014453Y001813D01*
X014403Y001834D01*
X014352Y001851D01*
X014299Y001864D01*
X014246Y001874D01*
X014192Y001880D01*
X014138Y001882D01*
X014138Y001873D01*
X014191Y001871D01*
X014245Y001865D01*
X014297Y001855D01*
X014349Y001842D01*
X014400Y001825D01*
X014450Y001805D01*
X014498Y001782D01*
X014544Y001755D01*
X014588Y001725D01*
X014630Y001692D01*
X014670Y001656D01*
X014707Y001617D01*
X014742Y001576D01*
X014773Y001533D01*
X014802Y001488D01*
X014794Y001483D01*
X014766Y001528D01*
X014735Y001571D01*
X014701Y001611D01*
X014664Y001649D01*
X014625Y001685D01*
X014583Y001717D01*
X014539Y001747D01*
X014493Y001774D01*
X014446Y001797D01*
X014397Y001817D01*
X014347Y001834D01*
X014295Y001847D01*
X014243Y001856D01*
X014191Y001862D01*
X014138Y001864D01*
X014138Y000256D02*
X014138Y000346D01*
X014138Y000345D02*
X014192Y000347D01*
X014245Y000353D01*
X014298Y000363D01*
X014350Y000377D01*
X014401Y000394D01*
X014450Y000415D01*
X014498Y000439D01*
X014544Y000467D01*
X014588Y000498D01*
X014630Y000532D01*
X014669Y000568D01*
X014706Y000608D01*
X014739Y000650D01*
X014770Y000694D01*
X014797Y000740D01*
X014876Y000698D01*
X014848Y000649D01*
X014816Y000603D01*
X014781Y000558D01*
X014744Y000516D01*
X014703Y000476D01*
X014660Y000440D01*
X014615Y000406D01*
X014568Y000375D01*
X014518Y000348D01*
X014467Y000324D01*
X014415Y000303D01*
X014361Y000286D01*
X014306Y000273D01*
X014251Y000263D01*
X014194Y000257D01*
X014138Y000255D01*
X014138Y000264D01*
X014194Y000266D01*
X014249Y000272D01*
X014304Y000282D01*
X014359Y000295D01*
X014412Y000312D01*
X014464Y000332D01*
X014514Y000356D01*
X014563Y000383D01*
X014610Y000413D01*
X014655Y000447D01*
X014697Y000483D01*
X014737Y000522D01*
X014774Y000564D01*
X014809Y000608D01*
X014840Y000654D01*
X014868Y000702D01*
X014860Y000706D01*
X014832Y000659D01*
X014801Y000613D01*
X014767Y000570D01*
X014731Y000528D01*
X014691Y000490D01*
X014649Y000454D01*
X014605Y000421D01*
X014559Y000391D01*
X014510Y000364D01*
X014460Y000341D01*
X014409Y000320D01*
X014356Y000304D01*
X014303Y000291D01*
X014248Y000281D01*
X014193Y000275D01*
X014138Y000273D01*
X014138Y000282D01*
X014193Y000284D01*
X014247Y000290D01*
X014301Y000299D01*
X014354Y000312D01*
X014406Y000329D01*
X014457Y000349D01*
X014506Y000372D01*
X014554Y000399D01*
X014600Y000428D01*
X014644Y000461D01*
X014685Y000496D01*
X014724Y000535D01*
X014761Y000575D01*
X014794Y000618D01*
X014825Y000664D01*
X014852Y000711D01*
X014844Y000715D01*
X014817Y000668D01*
X014787Y000624D01*
X014754Y000581D01*
X014718Y000541D01*
X014679Y000503D01*
X014638Y000468D01*
X014595Y000436D01*
X014549Y000406D01*
X014502Y000380D01*
X014453Y000357D01*
X014403Y000337D01*
X014351Y000321D01*
X014299Y000308D01*
X014246Y000299D01*
X014192Y000293D01*
X014138Y000291D01*
X014138Y000300D01*
X014191Y000302D01*
X014244Y000308D01*
X014297Y000317D01*
X014349Y000330D01*
X014400Y000346D01*
X014450Y000365D01*
X014498Y000388D01*
X014545Y000414D01*
X014589Y000443D01*
X014632Y000475D01*
X014673Y000510D01*
X014711Y000547D01*
X014747Y000587D01*
X014780Y000629D01*
X014810Y000673D01*
X014837Y000719D01*
X014829Y000723D01*
X014802Y000678D01*
X014772Y000634D01*
X014740Y000593D01*
X014705Y000553D01*
X014667Y000516D01*
X014627Y000482D01*
X014584Y000450D01*
X014540Y000422D01*
X014494Y000396D01*
X014446Y000374D01*
X014397Y000354D01*
X014347Y000338D01*
X014295Y000326D01*
X014243Y000317D01*
X014191Y000311D01*
X014138Y000309D01*
X014138Y000318D01*
X014194Y000320D01*
X014249Y000327D01*
X014304Y000337D01*
X014358Y000351D01*
X014410Y000369D01*
X014462Y000390D01*
X014511Y000416D01*
X014559Y000444D01*
X014605Y000476D01*
X014648Y000511D01*
X014688Y000549D01*
X014726Y000590D01*
X014761Y000634D01*
X014792Y000680D01*
X014821Y000728D01*
X014813Y000732D01*
X014785Y000684D01*
X014754Y000639D01*
X014719Y000596D01*
X014682Y000556D01*
X014642Y000518D01*
X014599Y000483D01*
X014554Y000452D01*
X014507Y000423D01*
X014458Y000399D01*
X014407Y000377D01*
X014355Y000360D01*
X014302Y000346D01*
X014248Y000336D01*
X014193Y000329D01*
X014138Y000327D01*
X014138Y000336D01*
X014192Y000338D01*
X014246Y000344D01*
X014300Y000354D01*
X014352Y000368D01*
X014404Y000386D01*
X014454Y000407D01*
X014503Y000431D01*
X014549Y000459D01*
X014594Y000491D01*
X014636Y000525D01*
X014675Y000562D01*
X014712Y000602D01*
X014746Y000644D01*
X014777Y000689D01*
X014805Y000736D01*
X013488Y000556D02*
X013557Y000613D01*
X013556Y000613D02*
X013593Y000573D01*
X013632Y000535D01*
X013674Y000501D01*
X013718Y000469D01*
X013764Y000441D01*
X013813Y000416D01*
X013863Y000395D01*
X013914Y000377D01*
X013967Y000364D01*
X014020Y000354D01*
X014074Y000347D01*
X014128Y000345D01*
X014129Y000256D01*
X014128Y000255D01*
X014072Y000257D01*
X014016Y000263D01*
X013961Y000273D01*
X013906Y000286D01*
X013853Y000303D01*
X013800Y000323D01*
X013749Y000347D01*
X013700Y000374D01*
X013653Y000405D01*
X013608Y000438D01*
X013565Y000474D01*
X013525Y000513D01*
X013487Y000555D01*
X013494Y000561D01*
X013531Y000520D01*
X013571Y000481D01*
X013613Y000445D01*
X013658Y000412D01*
X013705Y000382D01*
X013753Y000355D01*
X013804Y000332D01*
X013856Y000311D01*
X013909Y000295D01*
X013963Y000282D01*
X014017Y000272D01*
X014072Y000266D01*
X014128Y000264D01*
X014128Y000273D01*
X014073Y000275D01*
X014018Y000281D01*
X013964Y000290D01*
X013911Y000303D01*
X013859Y000320D01*
X013807Y000340D01*
X013758Y000363D01*
X013709Y000390D01*
X013663Y000419D01*
X013619Y000452D01*
X013577Y000488D01*
X013538Y000526D01*
X013501Y000567D01*
X013508Y000572D01*
X013544Y000532D01*
X013583Y000494D01*
X013625Y000459D01*
X013668Y000427D01*
X013714Y000397D01*
X013762Y000371D01*
X013811Y000348D01*
X013861Y000328D01*
X013913Y000312D01*
X013966Y000299D01*
X014020Y000290D01*
X014074Y000284D01*
X014128Y000282D01*
X014128Y000291D01*
X014074Y000293D01*
X014021Y000299D01*
X013968Y000308D01*
X013916Y000321D01*
X013864Y000337D01*
X013814Y000356D01*
X013766Y000379D01*
X013719Y000405D01*
X013673Y000434D01*
X013630Y000466D01*
X013589Y000501D01*
X013551Y000538D01*
X013515Y000578D01*
X013522Y000584D01*
X013557Y000545D01*
X013595Y000508D01*
X013636Y000473D01*
X013679Y000442D01*
X013723Y000413D01*
X013770Y000387D01*
X013818Y000365D01*
X013867Y000345D01*
X013918Y000329D01*
X013970Y000317D01*
X014022Y000308D01*
X014075Y000302D01*
X014128Y000300D01*
X014128Y000309D01*
X014076Y000311D01*
X014023Y000317D01*
X013972Y000326D01*
X013921Y000338D01*
X013870Y000354D01*
X013821Y000373D01*
X013774Y000395D01*
X013728Y000421D01*
X013684Y000449D01*
X013642Y000480D01*
X013601Y000514D01*
X013564Y000551D01*
X013529Y000590D01*
X013535Y000596D01*
X013570Y000557D01*
X013608Y000521D01*
X013647Y000487D01*
X013689Y000456D01*
X013733Y000428D01*
X013778Y000403D01*
X013825Y000381D01*
X013873Y000362D01*
X013923Y000347D01*
X013973Y000334D01*
X014025Y000326D01*
X014076Y000320D01*
X014128Y000318D01*
X014128Y000327D01*
X014077Y000329D01*
X014026Y000334D01*
X013975Y000343D01*
X013925Y000355D01*
X013876Y000371D01*
X013829Y000389D01*
X013782Y000411D01*
X013737Y000436D01*
X013694Y000464D01*
X013653Y000494D01*
X013614Y000527D01*
X013577Y000563D01*
X013542Y000601D01*
X013549Y000607D01*
X013586Y000566D01*
X013626Y000528D01*
X013668Y000494D01*
X013713Y000462D01*
X013760Y000433D01*
X013809Y000408D01*
X013860Y000387D01*
X013911Y000369D01*
X013965Y000355D01*
X014019Y000345D01*
X014073Y000338D01*
X014128Y000336D01*
X014129Y001944D02*
X014129Y001854D01*
X014128Y001855D02*
X014074Y001853D01*
X014021Y001847D01*
X013968Y001837D01*
X013916Y001823D01*
X013865Y001806D01*
X013815Y001785D01*
X013767Y001761D01*
X013721Y001733D01*
X013677Y001702D01*
X013636Y001668D01*
X013596Y001631D01*
X013560Y001592D01*
X013492Y001649D01*
X013491Y001650D01*
X013529Y001691D01*
X013569Y001729D01*
X013612Y001765D01*
X013657Y001798D01*
X013704Y001828D01*
X013752Y001854D01*
X013803Y001878D01*
X013855Y001898D01*
X013908Y001914D01*
X013962Y001928D01*
X014017Y001937D01*
X014072Y001943D01*
X014128Y001945D01*
X014128Y001936D01*
X014073Y001934D01*
X014018Y001928D01*
X013964Y001919D01*
X013910Y001906D01*
X013858Y001889D01*
X013806Y001870D01*
X013756Y001846D01*
X013708Y001820D01*
X013662Y001790D01*
X013617Y001758D01*
X013575Y001723D01*
X013535Y001684D01*
X013498Y001644D01*
X013505Y001638D01*
X013542Y001678D01*
X013581Y001716D01*
X013623Y001751D01*
X013667Y001783D01*
X013713Y001812D01*
X013761Y001838D01*
X013810Y001861D01*
X013861Y001881D01*
X013913Y001897D01*
X013966Y001910D01*
X014019Y001919D01*
X014074Y001925D01*
X014128Y001927D01*
X014128Y001918D01*
X014074Y001916D01*
X014021Y001910D01*
X013968Y001901D01*
X013915Y001888D01*
X013864Y001872D01*
X013813Y001853D01*
X013765Y001830D01*
X013717Y001805D01*
X013672Y001776D01*
X013628Y001744D01*
X013587Y001709D01*
X013548Y001672D01*
X013512Y001632D01*
X013519Y001626D01*
X013555Y001666D01*
X013593Y001703D01*
X013634Y001737D01*
X013677Y001768D01*
X013722Y001797D01*
X013769Y001822D01*
X013817Y001845D01*
X013867Y001864D01*
X013918Y001880D01*
X013969Y001892D01*
X014022Y001901D01*
X014075Y001907D01*
X014128Y001909D01*
X014128Y001900D01*
X014075Y001898D01*
X014023Y001892D01*
X013971Y001883D01*
X013920Y001871D01*
X013870Y001855D01*
X013820Y001836D01*
X013773Y001814D01*
X013726Y001789D01*
X013682Y001761D01*
X013640Y001730D01*
X013599Y001696D01*
X013561Y001659D01*
X013526Y001621D01*
X013532Y001615D01*
X013568Y001653D01*
X013605Y001689D01*
X013645Y001723D01*
X013687Y001753D01*
X013731Y001781D01*
X013777Y001806D01*
X013824Y001828D01*
X013873Y001847D01*
X013922Y001862D01*
X013973Y001875D01*
X014024Y001883D01*
X014076Y001889D01*
X014128Y001891D01*
X014128Y001882D01*
X014072Y001880D01*
X014017Y001873D01*
X013962Y001863D01*
X013908Y001849D01*
X013855Y001831D01*
X013804Y001809D01*
X013754Y001784D01*
X013706Y001755D01*
X013661Y001723D01*
X013618Y001688D01*
X013577Y001650D01*
X013539Y001609D01*
X013546Y001603D01*
X013583Y001644D01*
X013624Y001681D01*
X013666Y001716D01*
X013711Y001748D01*
X013759Y001776D01*
X013808Y001801D01*
X013859Y001823D01*
X013911Y001840D01*
X013964Y001854D01*
X014018Y001864D01*
X014073Y001871D01*
X014128Y001873D01*
X014128Y001864D01*
X014074Y001862D01*
X014020Y001856D01*
X013966Y001846D01*
X013913Y001832D01*
X013862Y001814D01*
X013812Y001793D01*
X013763Y001768D01*
X013716Y001740D01*
X013672Y001709D01*
X013630Y001675D01*
X013590Y001637D01*
X013553Y001597D01*
D18*
X018033Y001100D02*
X018133Y001100D01*
X018133Y001400D01*
X020133Y001400D01*
X020133Y001100D01*
X020233Y001100D01*
X020133Y001100D02*
X020133Y000800D01*
X018133Y000800D01*
X018133Y001100D01*
X024383Y001600D02*
X024883Y001600D01*
X027883Y001600D02*
X028383Y001600D01*
X027566Y008840D02*
X026700Y008840D01*
X025873Y009667D02*
X025873Y010533D01*
X026464Y010100D02*
X026466Y010151D01*
X026472Y010202D01*
X026482Y010252D01*
X026495Y010302D01*
X026513Y010350D01*
X026533Y010397D01*
X026558Y010442D01*
X026586Y010485D01*
X026617Y010526D01*
X026651Y010564D01*
X026688Y010599D01*
X026727Y010632D01*
X026769Y010662D01*
X026813Y010688D01*
X026859Y010710D01*
X026907Y010730D01*
X026956Y010745D01*
X027006Y010757D01*
X027056Y010765D01*
X027107Y010769D01*
X027159Y010769D01*
X027210Y010765D01*
X027260Y010757D01*
X027310Y010745D01*
X027359Y010730D01*
X027407Y010710D01*
X027453Y010688D01*
X027497Y010662D01*
X027539Y010632D01*
X027578Y010599D01*
X027615Y010564D01*
X027649Y010526D01*
X027680Y010485D01*
X027708Y010442D01*
X027733Y010397D01*
X027753Y010350D01*
X027771Y010302D01*
X027784Y010252D01*
X027794Y010202D01*
X027800Y010151D01*
X027802Y010100D01*
X027800Y010049D01*
X027794Y009998D01*
X027784Y009948D01*
X027771Y009898D01*
X027753Y009850D01*
X027733Y009803D01*
X027708Y009758D01*
X027680Y009715D01*
X027649Y009674D01*
X027615Y009636D01*
X027578Y009601D01*
X027539Y009568D01*
X027497Y009538D01*
X027453Y009512D01*
X027407Y009490D01*
X027359Y009470D01*
X027310Y009455D01*
X027260Y009443D01*
X027210Y009435D01*
X027159Y009431D01*
X027107Y009431D01*
X027056Y009435D01*
X027006Y009443D01*
X026956Y009455D01*
X026907Y009470D01*
X026859Y009490D01*
X026813Y009512D01*
X026769Y009538D01*
X026727Y009568D01*
X026688Y009601D01*
X026651Y009636D01*
X026617Y009674D01*
X026586Y009715D01*
X026558Y009758D01*
X026533Y009803D01*
X026513Y009850D01*
X026495Y009898D01*
X026482Y009948D01*
X026472Y009998D01*
X026466Y010049D01*
X026464Y010100D01*
X028393Y010533D02*
X028393Y009667D01*
X028826Y008958D02*
X030401Y008958D01*
X030401Y011242D01*
X030519Y011439D01*
X031346Y011439D01*
X031464Y011242D01*
X031464Y008958D01*
X031700Y008958D01*
X031700Y011242D01*
X031464Y011242D01*
X030401Y011242D02*
X028826Y011242D01*
X027566Y011360D02*
X026700Y011360D01*
X030401Y008958D02*
X030519Y008761D01*
X031346Y008761D01*
X031464Y008958D01*
X021733Y010600D02*
X021633Y010600D01*
X021633Y010300D01*
X019633Y010300D01*
X019633Y010600D01*
X019533Y010600D01*
X019633Y010600D02*
X019633Y010900D01*
X021633Y010900D01*
X021633Y010600D01*
X021633Y011300D02*
X021633Y011600D01*
X021733Y011600D01*
X021633Y011600D02*
X021633Y011900D01*
X019633Y011900D01*
X019633Y011600D01*
X019533Y011600D01*
X019633Y011600D02*
X019633Y011300D01*
X021633Y011300D01*
X016733Y011600D02*
X016633Y011600D01*
X016633Y011300D01*
X014633Y011300D01*
X014633Y011600D01*
X014533Y011600D01*
X014633Y011600D02*
X014633Y011900D01*
X016633Y011900D01*
X016633Y011600D01*
X016633Y010900D02*
X016633Y010600D01*
X016733Y010600D01*
X016633Y010600D02*
X016633Y010300D01*
X014633Y010300D01*
X014633Y010600D01*
X014533Y010600D01*
X014633Y010600D02*
X014633Y010900D01*
X016633Y010900D01*
X010708Y012620D02*
X010433Y012620D01*
X010433Y013131D01*
X010708Y012620D02*
X010708Y015691D01*
X007559Y015691D01*
X007559Y012620D01*
X007834Y012620D01*
X007834Y013131D01*
X006708Y012620D02*
X006433Y012620D01*
X006433Y013131D01*
X006708Y012620D02*
X006708Y015691D01*
X003559Y015691D01*
X003559Y012620D01*
X003834Y012620D01*
X003834Y013131D01*
X004883Y011600D02*
X005383Y011600D01*
X005633Y011350D01*
X005633Y010850D01*
X005383Y010600D01*
X005633Y010350D01*
X005633Y009850D01*
X005383Y009600D01*
X005633Y009350D01*
X005633Y008850D01*
X005383Y008600D01*
X005633Y008350D01*
X005633Y007850D01*
X005383Y007600D01*
X005633Y007350D01*
X005633Y006850D01*
X005383Y006600D01*
X005633Y006350D01*
X005633Y005850D01*
X005383Y005600D01*
X005633Y005350D01*
X005633Y004850D01*
X005383Y004600D01*
X005633Y004350D01*
X005633Y003850D01*
X005383Y003600D01*
X004883Y003600D01*
X004633Y003850D01*
X004633Y004350D01*
X004883Y004600D01*
X004633Y004850D01*
X004633Y005350D01*
X004883Y005600D01*
X004633Y005850D01*
X004633Y006350D01*
X004883Y006600D01*
X004633Y006850D01*
X004633Y007350D01*
X004883Y007600D01*
X004633Y007850D01*
X004633Y008350D01*
X004883Y008600D01*
X004633Y008850D01*
X004633Y009350D01*
X004883Y009600D01*
X004633Y009850D01*
X004633Y010350D01*
X004883Y010600D01*
X004633Y010850D01*
X004633Y011350D01*
X004883Y011600D01*
X009133Y007700D02*
X009133Y007600D01*
X009433Y007600D01*
X009433Y005600D01*
X009133Y005600D01*
X009133Y005500D01*
X009133Y005600D02*
X008833Y005600D01*
X008833Y007600D01*
X009133Y007600D01*
X010333Y007600D02*
X010633Y007600D01*
X010633Y007700D01*
X010633Y007600D02*
X010933Y007600D01*
X010933Y005600D01*
X010633Y005600D01*
X010633Y005500D01*
X010633Y005600D02*
X010333Y005600D01*
X010333Y007600D01*
D19*
X020824Y014620D02*
X020824Y015080D01*
X021054Y015080D01*
X021131Y015004D01*
X021131Y014850D01*
X021054Y014773D01*
X020824Y014773D01*
X020978Y014773D02*
X021131Y014620D01*
X021285Y014697D02*
X021361Y014773D01*
X021591Y014773D01*
X021591Y014850D02*
X021591Y014620D01*
X021361Y014620D01*
X021285Y014697D01*
X021515Y014927D02*
X021591Y014850D01*
X021515Y014927D02*
X021361Y014927D01*
X021745Y014850D02*
X021822Y014927D01*
X022052Y014927D01*
X022205Y014927D02*
X022282Y014927D01*
X022282Y014620D01*
X022205Y014620D02*
X022359Y014620D01*
X022512Y014697D02*
X022589Y014620D01*
X022742Y014620D01*
X022819Y014697D01*
X022819Y014850D01*
X022742Y014927D01*
X022589Y014927D01*
X022512Y014850D01*
X022512Y014697D01*
X022052Y014620D02*
X021822Y014620D01*
X021745Y014697D01*
X021745Y014850D01*
X022052Y015080D02*
X022052Y014620D01*
X022282Y015080D02*
X022282Y015157D01*
X022973Y014927D02*
X022973Y014620D01*
X023126Y014620D02*
X023126Y014850D01*
X023203Y014927D01*
X023280Y014850D01*
X023280Y014620D01*
X023433Y014697D02*
X023433Y014850D01*
X023510Y014927D01*
X023663Y014927D01*
X023740Y014850D01*
X023740Y014773D01*
X023433Y014773D01*
X023433Y014697D02*
X023510Y014620D01*
X023663Y014620D01*
X023970Y014697D02*
X024047Y014620D01*
X023970Y014697D02*
X023970Y015004D01*
X023893Y014927D02*
X024047Y014927D01*
X024200Y014927D02*
X024200Y014620D01*
X024200Y014773D02*
X024354Y014927D01*
X024431Y014927D01*
X024584Y014927D02*
X024661Y014927D01*
X024661Y014620D01*
X024737Y014620D02*
X024584Y014620D01*
X024891Y014620D02*
X025198Y014927D01*
X024891Y014927D02*
X025198Y014620D01*
X025812Y014620D02*
X025812Y015080D01*
X026119Y014620D01*
X026119Y015080D01*
X026272Y015080D02*
X026579Y015080D01*
X026426Y015080D02*
X026426Y014620D01*
X026733Y014620D02*
X027039Y015080D01*
X027193Y015004D02*
X027270Y015080D01*
X027423Y015080D01*
X027500Y015004D01*
X027500Y014927D01*
X027193Y014620D01*
X027500Y014620D01*
X027039Y014620D02*
X026733Y015080D01*
X024661Y015080D02*
X024661Y015157D01*
X023126Y014850D02*
X023049Y014927D01*
X022973Y014927D01*
D20*
X013513Y001610D02*
X013513Y001430D01*
X013513Y000790D02*
X013513Y000590D01*
M02*
