G75*
G70*
%OFA0B0*%
%FSLAX24Y24*%
%IPPOS*%
%LPD*%
%AMOC8*
5,1,8,0,0,1.08239X$1,22.5*
%
%ADD10C,0.0030*%
%ADD11C,0.0740*%
%ADD12OC8,0.0740*%
%ADD13C,0.0515*%
%ADD14C,0.0560*%
%ADD15OC8,0.0660*%
%ADD16C,0.0750*%
%ADD17C,0.1050*%
%ADD18C,0.0860*%
%ADD19C,0.0640*%
%ADD20R,0.0740X0.0740*%
%ADD21C,0.0650*%
%ADD22C,0.0079*%
%ADD23C,0.0320*%
%ADD24C,0.0400*%
%ADD25C,0.0357*%
D10*
X003163Y001115D02*
X003115Y001163D01*
X003163Y001115D02*
X003260Y001115D01*
X003308Y001163D01*
X003308Y001212D01*
X003260Y001260D01*
X003163Y001260D01*
X003115Y001308D01*
X003115Y001357D01*
X003163Y001405D01*
X003260Y001405D01*
X003308Y001357D01*
X003410Y001308D02*
X003458Y001308D01*
X003458Y001115D01*
X003410Y001115D02*
X003506Y001115D01*
X003606Y001163D02*
X003654Y001115D01*
X003800Y001115D01*
X003800Y001405D01*
X003800Y001308D02*
X003654Y001308D01*
X003606Y001260D01*
X003606Y001163D01*
X003458Y001405D02*
X003458Y001454D01*
X003901Y001260D02*
X003949Y001308D01*
X004046Y001308D01*
X004094Y001260D01*
X004094Y001212D01*
X003901Y001212D01*
X003901Y001260D02*
X003901Y001163D01*
X003949Y001115D01*
X004046Y001115D01*
X004490Y001115D02*
X004684Y001115D01*
X004587Y001115D02*
X004587Y001405D01*
X004490Y001308D01*
D11*
X005100Y005100D03*
X005100Y006100D03*
X005100Y007100D03*
X005100Y008100D03*
X005100Y009100D03*
X005100Y010100D03*
X005100Y011100D03*
X009100Y008100D03*
X010600Y008100D03*
X013100Y009100D03*
X014100Y009100D03*
X015100Y009100D03*
X016100Y009100D03*
X017100Y009100D03*
X018100Y009100D03*
X019100Y009100D03*
X020100Y009100D03*
X021100Y009100D03*
X022100Y009100D03*
X023100Y009100D03*
X024100Y009100D03*
X022100Y010600D03*
X022100Y011600D03*
X019100Y011600D03*
X019100Y010600D03*
X017100Y010600D03*
X017100Y011600D03*
X014100Y011600D03*
X014100Y010600D03*
X010600Y005100D03*
X009100Y005100D03*
X013100Y003100D03*
X014100Y003100D03*
X015100Y003100D03*
X016100Y003100D03*
X017100Y003100D03*
X018100Y003100D03*
X019100Y003100D03*
X020100Y003100D03*
X021100Y003100D03*
X022100Y003100D03*
X023100Y003100D03*
X024100Y003100D03*
X020600Y001100D03*
X017600Y001100D03*
X014600Y001100D03*
X013600Y001100D03*
D12*
X009600Y001600D03*
X008600Y001600D03*
X007600Y001600D03*
X007600Y002600D03*
X008600Y002600D03*
X009600Y002600D03*
X003600Y006100D03*
X002600Y006100D03*
X001600Y006100D03*
X001600Y007100D03*
X002600Y007100D03*
X003600Y007100D03*
D13*
X008900Y009350D03*
X008900Y010100D03*
X008900Y010850D03*
D14*
X026600Y005394D03*
X026600Y004606D03*
D15*
X026600Y002950D03*
X026600Y002100D03*
X026600Y001250D03*
D16*
X027050Y010450D03*
D17*
X026046Y009446D03*
X028054Y009446D03*
X028054Y011454D03*
X026046Y011454D03*
D18*
X025600Y014100D03*
X024600Y014100D03*
X026600Y014100D03*
X018600Y014100D03*
X017600Y014100D03*
X016600Y014100D03*
X015600Y014100D03*
D19*
X009887Y013131D03*
X009100Y013131D03*
X008313Y013131D03*
X005887Y013131D03*
X005100Y013131D03*
X004313Y013131D03*
D20*
X005100Y004100D03*
D21*
X022616Y001100D03*
X024584Y001100D03*
X028150Y000766D03*
X028150Y002734D03*
D22*
X024760Y002440D02*
X024760Y009640D01*
X020440Y013960D01*
X018640Y013960D01*
X018600Y014100D01*
X017740Y013960D02*
X017600Y014100D01*
X017740Y013960D02*
X017740Y011980D01*
X019000Y010720D01*
X019100Y010600D01*
X020260Y010540D02*
X020260Y009100D01*
X020100Y009100D01*
X020080Y008200D02*
X020080Y003160D01*
X020100Y003100D01*
X021100Y003100D02*
X021160Y002980D01*
X021520Y002980D01*
X022060Y002440D01*
X024760Y002440D01*
X022600Y003520D02*
X022600Y011080D01*
X022240Y011440D01*
X022100Y011600D01*
X022100Y010600D02*
X022060Y010540D01*
X020260Y010540D01*
X017200Y010720D02*
X017100Y010600D01*
X017200Y010720D02*
X017200Y011440D01*
X017100Y011600D01*
X017020Y011620D01*
X017020Y012700D01*
X015760Y013960D01*
X015600Y014100D01*
X012520Y013600D02*
X012520Y008920D01*
X013240Y008200D01*
X020080Y008200D01*
X019000Y008020D02*
X019000Y003160D01*
X019100Y003100D01*
X018100Y003100D02*
X018100Y003160D01*
X017740Y003160D01*
X013060Y007840D01*
X011800Y007840D01*
X010900Y008740D01*
X009280Y008740D01*
X009280Y009640D01*
X008920Y010000D01*
X008900Y010100D01*
X008740Y010180D01*
X006040Y012880D01*
X006040Y013060D01*
X005887Y013131D01*
X004960Y012520D02*
X004960Y011260D01*
X005100Y011100D01*
X005140Y011080D01*
X008200Y008020D01*
X008200Y006400D01*
X008920Y005680D01*
X008920Y005320D01*
X009100Y005140D01*
X009100Y005100D01*
X008560Y005500D02*
X008560Y002620D01*
X008600Y002600D01*
X008200Y003160D02*
X008200Y006400D01*
X010000Y006220D02*
X011440Y007660D01*
X012340Y008740D02*
X013060Y008020D01*
X019000Y008020D01*
X014100Y009100D02*
X013960Y009100D01*
X013600Y009460D01*
X013600Y011080D01*
X013960Y011440D01*
X014100Y011600D01*
X012340Y010720D02*
X012340Y008740D01*
X009280Y008740D02*
X009100Y008740D01*
X009100Y008200D01*
X009100Y008100D01*
X008200Y008020D02*
X008200Y008740D01*
X008740Y009280D01*
X008900Y009350D01*
X008900Y010850D02*
X008740Y010900D01*
X008380Y011260D01*
X008380Y013060D01*
X008313Y013131D01*
X009100Y013131D02*
X009100Y013240D01*
X009460Y013600D01*
X012520Y013600D01*
X010000Y013060D02*
X009887Y013131D01*
X010000Y013060D02*
X012340Y010720D01*
X005100Y010100D02*
X004960Y010000D01*
X004600Y009640D01*
X004600Y007120D01*
X003700Y006220D01*
X003600Y006100D01*
X003600Y007100D02*
X003700Y007120D01*
X004240Y007660D01*
X004240Y013060D01*
X004313Y013131D01*
X004420Y013060D01*
X004960Y012520D01*
X001600Y007100D02*
X001540Y006940D01*
X001000Y006400D01*
X001000Y005860D01*
X001720Y005140D01*
X004960Y005140D01*
X005100Y005100D01*
X006940Y004960D02*
X006940Y002260D01*
X007480Y001720D01*
X007600Y001600D01*
X008600Y001600D02*
X008740Y001720D01*
X009100Y002080D01*
X009100Y004240D01*
X010000Y005140D01*
X010000Y006220D01*
X010600Y005100D02*
X010720Y004960D01*
X010720Y004060D01*
X010900Y003880D01*
X009640Y002620D01*
X009600Y002600D01*
X008200Y003160D02*
X007660Y002620D01*
X007600Y002600D01*
X010900Y003880D02*
X013600Y001180D01*
X013600Y001100D01*
X014600Y001100D02*
X014680Y001180D01*
X017560Y001180D01*
X017600Y001100D01*
X019000Y001180D02*
X020440Y001180D01*
X020600Y001100D01*
X019000Y001180D02*
X017200Y002980D01*
X017100Y003100D01*
X022100Y003100D02*
X022240Y003160D01*
X022600Y003520D01*
D23*
X025700Y004800D02*
X026294Y005394D01*
X026600Y005394D01*
X025700Y004800D02*
X025700Y001500D01*
X026100Y001100D01*
X026450Y001100D01*
X026600Y001250D01*
X027084Y000766D01*
X028150Y000766D01*
X027100Y002100D02*
X026600Y002100D01*
X027100Y002100D02*
X027734Y002734D01*
X028150Y002734D01*
X026600Y004284D01*
X026600Y004606D01*
D24*
X027050Y010450D02*
X027100Y012100D01*
X025600Y013600D01*
X025600Y014100D01*
D25*
X011440Y007660D03*
X008560Y005500D03*
X006940Y004960D03*
M02*
