G75*
G70*
%OFA0B0*%
%FSLAX24Y24*%
%IPPOS*%
%LPD*%
%AMOC8*
5,1,8,0,0,1.08239X$1,22.5*
%
%ADD10C,0.0060*%
%ADD11C,0.0740*%
%ADD12OC8,0.0740*%
%ADD13C,0.0555*%
%ADD14C,0.0560*%
%ADD15OC8,0.0660*%
%ADD16C,0.0750*%
%ADD17C,0.1050*%
%ADD18C,0.0860*%
%ADD19C,0.0640*%
%ADD20R,0.0740X0.0740*%
%ADD21C,0.0650*%
%ADD22C,0.0160*%
%ADD23C,0.0157*%
%ADD24C,0.0240*%
%ADD25C,0.0320*%
%ADD26C,0.0377*%
D10*
X002624Y001210D02*
X002851Y001210D01*
X002624Y001437D01*
X002624Y001494D01*
X002681Y001550D01*
X002794Y001550D01*
X002851Y001494D01*
X003361Y001380D02*
X003361Y001323D01*
X003588Y001323D01*
X003588Y001267D02*
X003588Y001380D01*
X003531Y001437D01*
X003418Y001437D01*
X003361Y001380D01*
X003418Y001210D02*
X003531Y001210D01*
X003588Y001267D01*
X003729Y001210D02*
X003899Y001210D01*
X003956Y001267D01*
X003956Y001380D01*
X003899Y001437D01*
X003729Y001437D01*
X003729Y001550D02*
X003729Y001210D01*
X004088Y001210D02*
X004202Y001210D01*
X004145Y001210D02*
X004145Y001437D01*
X004202Y001437D01*
X004145Y001550D02*
X004145Y001607D01*
X004343Y001494D02*
X004400Y001550D01*
X004513Y001550D01*
X004570Y001494D01*
X004570Y001437D01*
X004513Y001380D01*
X004400Y001380D01*
X004343Y001323D01*
X004343Y001267D01*
X004400Y001210D01*
X004513Y001210D01*
X004570Y001267D01*
D11*
X005100Y005180D03*
X005100Y006180D03*
X005100Y007180D03*
X005100Y008180D03*
X005100Y009180D03*
X005100Y010180D03*
X005100Y011180D03*
X009100Y008180D03*
X010600Y008180D03*
X013100Y009180D03*
X014100Y009180D03*
X015100Y009180D03*
X016100Y009180D03*
X017100Y009180D03*
X018100Y009180D03*
X019100Y009180D03*
X020100Y009180D03*
X021100Y009180D03*
X022100Y009180D03*
X023100Y009180D03*
X024100Y009180D03*
X022100Y010680D03*
X022100Y011680D03*
X019100Y011680D03*
X019100Y010680D03*
X017100Y010680D03*
X017100Y011680D03*
X014100Y011680D03*
X014100Y010680D03*
X010600Y005180D03*
X009100Y005180D03*
X013100Y003180D03*
X014100Y003180D03*
X015100Y003180D03*
X016100Y003180D03*
X017100Y003180D03*
X018100Y003180D03*
X019100Y003180D03*
X020100Y003180D03*
X021100Y003180D03*
X022100Y003180D03*
X023100Y003180D03*
X024100Y003180D03*
X020600Y001180D03*
X017600Y001180D03*
X014600Y001180D03*
X013600Y001180D03*
D12*
X009600Y001680D03*
X008600Y001680D03*
X007600Y001680D03*
X007600Y002680D03*
X008600Y002680D03*
X009600Y002680D03*
X003600Y006180D03*
X002600Y006180D03*
X001600Y006180D03*
X001600Y007180D03*
X002600Y007180D03*
X003600Y007180D03*
D13*
X008900Y009430D03*
X008900Y010180D03*
X008900Y010930D03*
D14*
X026600Y005474D03*
X026600Y004686D03*
D15*
X026600Y003030D03*
X026600Y002180D03*
X026600Y001330D03*
D16*
X027050Y010530D03*
D17*
X026046Y009526D03*
X028054Y009526D03*
X028054Y011534D03*
X026046Y011534D03*
D18*
X025600Y014180D03*
X024600Y014180D03*
X026600Y014180D03*
X018600Y014180D03*
X017600Y014180D03*
X016600Y014180D03*
X015600Y014180D03*
D19*
X009887Y013211D03*
X009100Y013211D03*
X008313Y013211D03*
X005887Y013211D03*
X005100Y013211D03*
X004313Y013211D03*
D20*
X005100Y004180D03*
D21*
X022616Y001180D03*
X024584Y001180D03*
X028150Y000846D03*
X028150Y002814D03*
D22*
X027672Y003033D02*
X027130Y003033D01*
X027130Y002875D02*
X027625Y002875D01*
X027625Y002919D02*
X027625Y002710D01*
X027705Y002517D01*
X027853Y002369D01*
X028046Y002289D01*
X028254Y002289D01*
X028447Y002369D01*
X028595Y002517D01*
X028675Y002710D01*
X028675Y002919D01*
X028595Y003112D01*
X028447Y003259D01*
X028254Y003339D01*
X028046Y003339D01*
X027853Y003259D01*
X027705Y003112D01*
X027625Y002919D01*
X027625Y002716D02*
X027036Y002716D01*
X027130Y002810D02*
X026925Y002605D01*
X027130Y002400D01*
X027130Y001960D01*
X026910Y001741D01*
X027110Y001541D01*
X027110Y001330D01*
X026600Y001330D01*
X026600Y001330D01*
X026600Y001330D01*
X026090Y001330D01*
X026090Y001541D01*
X026290Y001741D01*
X026070Y001960D01*
X026070Y002400D01*
X026275Y002605D01*
X026070Y002810D01*
X026070Y003250D01*
X026380Y003560D01*
X026820Y003560D01*
X027130Y003250D01*
X027130Y002810D01*
X026972Y002558D02*
X027688Y002558D01*
X027823Y002399D02*
X027130Y002399D01*
X027130Y002241D02*
X028770Y002241D01*
X028770Y002399D02*
X028477Y002399D01*
X028612Y002558D02*
X028770Y002558D01*
X028770Y002716D02*
X028675Y002716D01*
X028675Y002875D02*
X028770Y002875D01*
X028770Y003033D02*
X028628Y003033D01*
X028515Y003192D02*
X028770Y003192D01*
X028770Y003350D02*
X027030Y003350D01*
X027130Y003192D02*
X027785Y003192D01*
X026871Y003509D02*
X028770Y003509D01*
X028770Y003667D02*
X024414Y003667D01*
X024423Y003663D02*
X024213Y003750D01*
X023987Y003750D01*
X023777Y003663D01*
X023617Y003503D01*
X023600Y003462D01*
X023583Y003503D01*
X023423Y003663D01*
X023213Y003750D01*
X022987Y003750D01*
X022777Y003663D01*
X022617Y003503D01*
X022600Y003462D01*
X022583Y003503D01*
X022423Y003663D01*
X022213Y003750D01*
X022100Y003750D01*
X022100Y006561D01*
X022835Y006561D01*
X022938Y006604D01*
X025098Y008764D01*
X025176Y008842D01*
X025219Y008945D01*
X025219Y013375D01*
X025176Y013478D01*
X025098Y013556D01*
X024995Y013599D01*
X024785Y013599D01*
X024834Y013615D01*
X024920Y013658D01*
X024997Y013715D01*
X025065Y013783D01*
X025083Y013806D01*
X025243Y013646D01*
X025475Y013550D01*
X025725Y013550D01*
X025957Y013646D01*
X026117Y013806D01*
X026135Y013783D01*
X026203Y013715D01*
X026280Y013658D01*
X026366Y013615D01*
X026457Y013585D01*
X026552Y013570D01*
X026600Y013570D01*
X026648Y013570D01*
X026743Y013585D01*
X026834Y013615D01*
X026920Y013658D01*
X026997Y013715D01*
X027065Y013783D01*
X027122Y013860D01*
X027165Y013946D01*
X027195Y014037D01*
X027210Y014132D01*
X027210Y014180D01*
X027210Y014228D01*
X027195Y014323D01*
X027165Y014414D01*
X027122Y014500D01*
X027065Y014577D01*
X026997Y014645D01*
X026920Y014702D01*
X026834Y014745D01*
X026743Y014775D01*
X026648Y014790D01*
X026600Y014790D01*
X026600Y014180D01*
X026600Y014180D01*
X027210Y014180D01*
X026600Y014180D01*
X026600Y014180D01*
X026600Y014790D01*
X026552Y014790D01*
X026457Y014775D01*
X026366Y014745D01*
X026280Y014702D01*
X026203Y014645D01*
X026135Y014577D01*
X026117Y014554D01*
X025957Y014714D01*
X025725Y014810D01*
X025475Y014810D01*
X025243Y014714D01*
X025083Y014554D01*
X025065Y014577D01*
X024997Y014645D01*
X024920Y014702D01*
X024834Y014745D01*
X024743Y014775D01*
X024648Y014790D01*
X024600Y014790D01*
X024600Y014180D01*
X024600Y014180D01*
X024600Y014790D01*
X024552Y014790D01*
X024457Y014775D01*
X024366Y014745D01*
X024280Y014702D01*
X024203Y014645D01*
X024135Y014577D01*
X024078Y014500D01*
X024035Y014414D01*
X024005Y014323D01*
X023990Y014228D01*
X023990Y014180D01*
X024600Y014180D01*
X024600Y014180D01*
X023990Y014180D01*
X023990Y014132D01*
X024005Y014037D01*
X024035Y013946D01*
X024078Y013860D01*
X024135Y013783D01*
X024203Y013715D01*
X024280Y013658D01*
X024366Y013615D01*
X024415Y013599D01*
X022100Y013599D01*
X022100Y015976D01*
X027970Y015976D01*
X028095Y015966D01*
X028333Y015889D01*
X028536Y015742D01*
X028683Y015539D01*
X028760Y015301D01*
X028770Y015176D01*
X028770Y007864D01*
X028726Y008117D01*
X028555Y008413D01*
X028292Y008633D01*
X027971Y008750D01*
X027629Y008750D01*
X027308Y008633D01*
X027308Y008633D01*
X027045Y008413D01*
X026874Y008117D01*
X026874Y008117D01*
X026815Y007780D01*
X026874Y007443D01*
X027045Y007147D01*
X027308Y006927D01*
X027629Y006810D01*
X027971Y006810D01*
X028292Y006927D01*
X028292Y006927D01*
X028555Y007147D01*
X028726Y007443D01*
X028770Y007696D01*
X028770Y001180D01*
X028760Y001055D01*
X028683Y000817D01*
X028649Y000771D01*
X028655Y000806D01*
X028655Y000846D01*
X028655Y000885D01*
X028643Y000964D01*
X028618Y001040D01*
X028582Y001110D01*
X028535Y001175D01*
X028479Y001231D01*
X028415Y001278D01*
X028344Y001314D01*
X028268Y001338D01*
X028190Y001351D01*
X028150Y001351D01*
X028110Y001351D01*
X028032Y001338D01*
X027956Y001314D01*
X027885Y001278D01*
X027821Y001231D01*
X027765Y001175D01*
X027718Y001110D01*
X027682Y001040D01*
X027657Y000964D01*
X027645Y000885D01*
X027645Y000846D01*
X028150Y000846D01*
X028150Y001351D01*
X028150Y000846D01*
X028150Y000846D01*
X028150Y000846D01*
X028655Y000846D01*
X028150Y000846D01*
X028150Y000846D01*
X027645Y000846D01*
X027645Y000806D01*
X027657Y000727D01*
X027682Y000652D01*
X027718Y000581D01*
X027765Y000517D01*
X027821Y000461D01*
X027885Y000414D01*
X027952Y000380D01*
X022100Y000380D01*
X022100Y002610D01*
X022213Y002610D01*
X022423Y002697D01*
X022583Y002857D01*
X022600Y002898D01*
X022617Y002857D01*
X022777Y002697D01*
X022987Y002610D01*
X023213Y002610D01*
X023423Y002697D01*
X023583Y002857D01*
X023600Y002898D01*
X023617Y002857D01*
X023777Y002697D01*
X023987Y002610D01*
X024213Y002610D01*
X024423Y002697D01*
X024583Y002857D01*
X024670Y003067D01*
X024670Y003293D01*
X024583Y003503D01*
X024423Y003663D01*
X024578Y003509D02*
X026329Y003509D01*
X026170Y003350D02*
X024647Y003350D01*
X024670Y003192D02*
X026070Y003192D01*
X026070Y003033D02*
X024656Y003033D01*
X024590Y002875D02*
X026070Y002875D01*
X026164Y002716D02*
X024442Y002716D01*
X023758Y002716D02*
X023442Y002716D01*
X023590Y002875D02*
X023610Y002875D01*
X022758Y002716D02*
X022442Y002716D01*
X022590Y002875D02*
X022610Y002875D01*
X022100Y002558D02*
X026228Y002558D01*
X026070Y002399D02*
X022100Y002399D01*
X022100Y002241D02*
X026070Y002241D01*
X026070Y002082D02*
X022100Y002082D01*
X022100Y001924D02*
X026107Y001924D01*
X026265Y001765D02*
X022100Y001765D01*
X022100Y001607D02*
X022344Y001607D01*
X022351Y001612D02*
X022287Y001565D01*
X022231Y001509D01*
X022184Y001445D01*
X022148Y001374D01*
X022123Y001298D01*
X022111Y001220D01*
X022111Y001180D01*
X022111Y001140D01*
X022123Y001062D01*
X022148Y000986D01*
X022184Y000915D01*
X022231Y000851D01*
X022287Y000795D01*
X022351Y000748D01*
X022422Y000712D01*
X022497Y000687D01*
X022576Y000675D01*
X022616Y000675D01*
X022655Y000675D01*
X022734Y000687D01*
X022810Y000712D01*
X022880Y000748D01*
X022945Y000795D01*
X023001Y000851D01*
X023048Y000915D01*
X023084Y000986D01*
X023108Y001062D01*
X023121Y001140D01*
X023121Y001180D01*
X023121Y001220D01*
X023108Y001298D01*
X023084Y001374D01*
X023048Y001445D01*
X023001Y001509D01*
X022945Y001565D01*
X022880Y001612D01*
X022810Y001648D01*
X022734Y001673D01*
X022655Y001685D01*
X022616Y001685D01*
X022616Y001180D01*
X023121Y001180D01*
X022616Y001180D01*
X022616Y001180D01*
X022616Y000675D01*
X022616Y001180D01*
X022616Y001180D01*
X022616Y001180D01*
X022616Y001685D01*
X022576Y001685D01*
X022497Y001673D01*
X022422Y001648D01*
X022351Y001612D01*
X022186Y001448D02*
X022100Y001448D01*
X022100Y001290D02*
X022122Y001290D01*
X022111Y001180D02*
X022616Y001180D01*
X022111Y001180D01*
X022112Y001131D02*
X022100Y001131D01*
X022100Y000973D02*
X022155Y000973D01*
X022100Y000814D02*
X022268Y000814D01*
X022100Y000656D02*
X024479Y000656D01*
X024480Y000655D02*
X024689Y000655D01*
X024882Y000735D01*
X025029Y000883D01*
X025109Y001076D01*
X025109Y001284D01*
X025029Y001477D01*
X024882Y001625D01*
X024689Y001705D01*
X024480Y001705D01*
X024287Y001625D01*
X024139Y001477D01*
X024059Y001284D01*
X024059Y001076D01*
X024139Y000883D01*
X024287Y000735D01*
X024480Y000655D01*
X024690Y000656D02*
X027681Y000656D01*
X027645Y000814D02*
X024961Y000814D01*
X025067Y000973D02*
X026236Y000973D01*
X026090Y001119D02*
X026389Y000820D01*
X026600Y000820D01*
X026811Y000820D01*
X027110Y001119D01*
X027110Y001330D01*
X026600Y001330D01*
X026600Y000820D01*
X026600Y001330D01*
X026600Y001330D01*
X026090Y001330D01*
X026090Y001119D01*
X026090Y001131D02*
X025109Y001131D01*
X025107Y001290D02*
X026090Y001290D01*
X026090Y001448D02*
X025041Y001448D01*
X024900Y001607D02*
X026155Y001607D01*
X026600Y001290D02*
X026600Y001290D01*
X026600Y001131D02*
X026600Y001131D01*
X026600Y000973D02*
X026600Y000973D01*
X026964Y000973D02*
X027660Y000973D01*
X027733Y001131D02*
X027110Y001131D01*
X027110Y001290D02*
X027909Y001290D01*
X028150Y001290D02*
X028150Y001290D01*
X028150Y001131D02*
X028150Y001131D01*
X028150Y000973D02*
X028150Y000973D01*
X028567Y001131D02*
X028766Y001131D01*
X028770Y001290D02*
X028391Y001290D01*
X028770Y001448D02*
X027110Y001448D01*
X027045Y001607D02*
X028770Y001607D01*
X028770Y001765D02*
X026935Y001765D01*
X027093Y001924D02*
X028770Y001924D01*
X028770Y002082D02*
X027130Y002082D01*
X028640Y000973D02*
X028733Y000973D01*
X028681Y000814D02*
X028655Y000814D01*
X027785Y000497D02*
X022100Y000497D01*
X022616Y000814D02*
X022616Y000814D01*
X022616Y000973D02*
X022616Y000973D01*
X022616Y001131D02*
X022616Y001131D01*
X022616Y001180D02*
X022616Y001180D01*
X022616Y001290D02*
X022616Y001290D01*
X022616Y001448D02*
X022616Y001448D01*
X022616Y001607D02*
X022616Y001607D01*
X022888Y001607D02*
X024268Y001607D01*
X024127Y001448D02*
X023045Y001448D01*
X023110Y001290D02*
X024061Y001290D01*
X024059Y001131D02*
X023119Y001131D01*
X023077Y000973D02*
X024102Y000973D01*
X024208Y000814D02*
X022964Y000814D01*
X022622Y003509D02*
X022578Y003509D01*
X022414Y003667D02*
X022786Y003667D01*
X023414Y003667D02*
X023786Y003667D01*
X023622Y003509D02*
X023578Y003509D01*
X022100Y003826D02*
X028770Y003826D01*
X028770Y003984D02*
X022100Y003984D01*
X022100Y004143D02*
X028770Y004143D01*
X028770Y004301D02*
X026894Y004301D01*
X026872Y004279D02*
X027007Y004414D01*
X027080Y004591D01*
X027080Y004782D01*
X027007Y004958D01*
X026872Y005093D01*
X026864Y005097D01*
X026900Y005123D01*
X026951Y005174D01*
X026993Y005233D01*
X027026Y005297D01*
X027049Y005366D01*
X027060Y005437D01*
X027060Y005474D01*
X027060Y005510D01*
X027049Y005581D01*
X027026Y005650D01*
X026993Y005715D01*
X026951Y005773D01*
X026900Y005825D01*
X026841Y005867D01*
X026777Y005900D01*
X026708Y005922D01*
X026636Y005934D01*
X026600Y005934D01*
X026564Y005934D01*
X026492Y005922D01*
X026423Y005900D01*
X026359Y005867D01*
X026300Y005825D01*
X026249Y005773D01*
X026207Y005715D01*
X026174Y005650D01*
X026151Y005581D01*
X026140Y005510D01*
X026140Y005474D01*
X026600Y005474D01*
X026600Y005934D01*
X026600Y005474D01*
X026600Y005474D01*
X026600Y005474D01*
X027060Y005474D01*
X026600Y005474D01*
X026600Y005474D01*
X026140Y005474D01*
X026140Y005437D01*
X026151Y005366D01*
X026174Y005297D01*
X026207Y005233D01*
X026249Y005174D01*
X026300Y005123D01*
X026336Y005097D01*
X026328Y005093D01*
X026193Y004958D01*
X026120Y004782D01*
X026120Y004591D01*
X026193Y004414D01*
X026328Y004279D01*
X026505Y004206D01*
X026695Y004206D01*
X026872Y004279D01*
X027026Y004460D02*
X028770Y004460D01*
X028770Y004618D02*
X027080Y004618D01*
X027080Y004777D02*
X028770Y004777D01*
X028770Y004935D02*
X027017Y004935D01*
X026871Y005094D02*
X028770Y005094D01*
X028770Y005252D02*
X027003Y005252D01*
X027056Y005411D02*
X028770Y005411D01*
X028770Y005569D02*
X027051Y005569D01*
X026984Y005728D02*
X028770Y005728D01*
X028770Y005886D02*
X026804Y005886D01*
X026600Y005886D02*
X026600Y005886D01*
X026600Y005728D02*
X026600Y005728D01*
X026600Y005569D02*
X026600Y005569D01*
X026396Y005886D02*
X022100Y005886D01*
X022100Y005728D02*
X026216Y005728D01*
X026149Y005569D02*
X022100Y005569D01*
X022100Y005411D02*
X026144Y005411D01*
X026197Y005252D02*
X022100Y005252D01*
X022100Y005094D02*
X026329Y005094D01*
X026183Y004935D02*
X022100Y004935D01*
X022100Y004777D02*
X026120Y004777D01*
X026120Y004618D02*
X022100Y004618D01*
X022100Y004460D02*
X026174Y004460D01*
X026306Y004301D02*
X022100Y004301D01*
X022100Y006045D02*
X028770Y006045D01*
X028770Y006203D02*
X022100Y006203D01*
X022100Y006362D02*
X028770Y006362D01*
X028770Y006520D02*
X022100Y006520D01*
X023013Y006679D02*
X028770Y006679D01*
X028770Y006837D02*
X028045Y006837D01*
X028374Y006996D02*
X028770Y006996D01*
X028770Y007154D02*
X028559Y007154D01*
X028555Y007147D02*
X028555Y007147D01*
X028555Y007147D01*
X028650Y007313D02*
X028770Y007313D01*
X028726Y007443D02*
X028726Y007443D01*
X028730Y007471D02*
X028770Y007471D01*
X028758Y007630D02*
X028770Y007630D01*
X028756Y007947D02*
X028770Y007947D01*
X028770Y008105D02*
X028728Y008105D01*
X028726Y008117D02*
X028726Y008117D01*
X028770Y008264D02*
X028641Y008264D01*
X028555Y008413D02*
X028555Y008413D01*
X028544Y008422D02*
X028770Y008422D01*
X028770Y008581D02*
X028355Y008581D01*
X028292Y008633D02*
X028292Y008633D01*
X028192Y008833D02*
X028281Y008857D01*
X028366Y008892D01*
X028446Y008939D01*
X028520Y008995D01*
X028585Y009060D01*
X028641Y009134D01*
X028688Y009214D01*
X028688Y009215D02*
X028770Y009215D01*
X028688Y009214D02*
X028723Y009299D01*
X028747Y009388D01*
X028754Y009446D01*
X028134Y009446D01*
X028134Y009606D01*
X028754Y009606D01*
X028747Y009664D01*
X028723Y009753D01*
X028688Y009839D01*
X028641Y009919D01*
X028585Y009992D01*
X028520Y010057D01*
X028446Y010114D01*
X028366Y010160D01*
X028281Y010195D01*
X028192Y010219D01*
X028134Y010227D01*
X028134Y009606D01*
X027974Y009606D01*
X027974Y009446D01*
X028134Y009446D01*
X028134Y008826D01*
X028192Y008833D01*
X028134Y008898D02*
X027974Y008898D01*
X027974Y008826D02*
X027916Y008833D01*
X027827Y008857D01*
X027741Y008892D01*
X027661Y008939D01*
X027588Y008995D01*
X027523Y009060D01*
X027466Y009134D01*
X027420Y009214D01*
X027385Y009299D01*
X027361Y009388D01*
X027353Y009446D01*
X027974Y009446D01*
X027974Y008826D01*
X028001Y008739D02*
X028770Y008739D01*
X028770Y008898D02*
X028375Y008898D01*
X028581Y009056D02*
X028770Y009056D01*
X028770Y009373D02*
X028743Y009373D01*
X028770Y009532D02*
X028134Y009532D01*
X028134Y009690D02*
X027974Y009690D01*
X027974Y009606D02*
X027974Y010227D01*
X027916Y010219D01*
X027827Y010195D01*
X027741Y010160D01*
X027661Y010114D01*
X027588Y010057D01*
X027523Y009992D01*
X027466Y009919D01*
X027420Y009839D01*
X027385Y009753D01*
X027361Y009664D01*
X027353Y009606D01*
X027974Y009606D01*
X027974Y009532D02*
X026126Y009532D01*
X026126Y009606D02*
X026747Y009606D01*
X026739Y009664D01*
X026715Y009753D01*
X026680Y009839D01*
X026634Y009919D01*
X026577Y009992D01*
X026512Y010057D01*
X026439Y010114D01*
X026359Y010160D01*
X026273Y010195D01*
X026184Y010219D01*
X026126Y010227D01*
X026126Y009606D01*
X026126Y009446D01*
X026126Y008826D01*
X026184Y008833D01*
X026273Y008857D01*
X026359Y008892D01*
X026439Y008939D01*
X026512Y008995D01*
X026577Y009060D01*
X026634Y009134D01*
X026680Y009214D01*
X026715Y009299D01*
X026739Y009388D01*
X026747Y009446D01*
X026126Y009446D01*
X025966Y009446D01*
X025966Y008826D01*
X025908Y008833D01*
X025819Y008857D01*
X025734Y008892D01*
X025654Y008939D01*
X025580Y008995D01*
X025515Y009060D01*
X025459Y009134D01*
X025412Y009214D01*
X025412Y009215D02*
X025219Y009215D01*
X025219Y009373D02*
X025357Y009373D01*
X025353Y009388D02*
X025377Y009299D01*
X025412Y009214D01*
X025353Y009388D02*
X025346Y009446D01*
X025966Y009446D01*
X025966Y009606D01*
X025346Y009606D01*
X025353Y009664D01*
X025377Y009753D01*
X025412Y009839D01*
X025459Y009919D01*
X025515Y009992D01*
X025580Y010057D01*
X025654Y010114D01*
X025734Y010160D01*
X025819Y010195D01*
X025908Y010219D01*
X025966Y010227D01*
X025966Y009606D01*
X026126Y009606D01*
X026126Y009690D02*
X025966Y009690D01*
X025966Y009532D02*
X025219Y009532D01*
X025219Y009690D02*
X025360Y009690D01*
X025418Y009849D02*
X025219Y009849D01*
X025219Y010007D02*
X025530Y010007D01*
X025748Y010166D02*
X025219Y010166D01*
X025219Y010324D02*
X026513Y010324D01*
X026475Y010416D02*
X026563Y010204D01*
X026724Y010043D01*
X026936Y009955D01*
X027164Y009955D01*
X027376Y010043D01*
X027537Y010204D01*
X027625Y010416D01*
X027625Y010644D01*
X027537Y010856D01*
X027376Y011017D01*
X027164Y011105D01*
X026936Y011105D01*
X026724Y011017D01*
X026563Y010856D01*
X026475Y010644D01*
X026475Y010416D01*
X026475Y010483D02*
X025219Y010483D01*
X025219Y010641D02*
X026475Y010641D01*
X026539Y010800D02*
X025219Y010800D01*
X025219Y010958D02*
X025639Y010958D01*
X025654Y010946D02*
X025734Y010900D01*
X025819Y010865D01*
X025908Y010841D01*
X025966Y010833D01*
X025966Y011454D01*
X025346Y011454D01*
X025353Y011396D01*
X025377Y011307D01*
X025412Y011221D01*
X025459Y011141D01*
X025515Y011068D01*
X025580Y011003D01*
X025654Y010946D01*
X025478Y011117D02*
X025219Y011117D01*
X025219Y011275D02*
X025390Y011275D01*
X025348Y011434D02*
X025219Y011434D01*
X025219Y011592D02*
X025966Y011592D01*
X025966Y011614D02*
X025966Y011454D01*
X026126Y011454D01*
X026126Y010833D01*
X026184Y010841D01*
X026273Y010865D01*
X026359Y010900D01*
X026439Y010946D01*
X026512Y011003D01*
X026577Y011068D01*
X026634Y011141D01*
X026680Y011221D01*
X026715Y011307D01*
X026739Y011396D01*
X026747Y011454D01*
X026126Y011454D01*
X026126Y011614D01*
X025966Y011614D01*
X025966Y012234D01*
X025908Y012227D01*
X025819Y012203D01*
X025734Y012168D01*
X025654Y012121D01*
X025580Y012065D01*
X025515Y012000D01*
X025459Y011926D01*
X025412Y011846D01*
X025377Y011761D01*
X025353Y011672D01*
X025346Y011614D01*
X025966Y011614D01*
X025966Y011751D02*
X026126Y011751D01*
X026126Y011614D02*
X026126Y012234D01*
X026184Y012227D01*
X026273Y012203D01*
X026359Y012168D01*
X026439Y012121D01*
X026512Y012065D01*
X026577Y012000D01*
X026634Y011926D01*
X026680Y011846D01*
X026715Y011761D01*
X026739Y011672D01*
X026747Y011614D01*
X026126Y011614D01*
X026126Y011592D02*
X027974Y011592D01*
X027974Y011614D02*
X027974Y011454D01*
X028134Y011454D01*
X028134Y011614D01*
X028754Y011614D01*
X028747Y011672D01*
X028723Y011761D01*
X028688Y011846D01*
X028641Y011926D01*
X028585Y012000D01*
X028520Y012065D01*
X028446Y012121D01*
X028366Y012168D01*
X028281Y012203D01*
X028192Y012227D01*
X028134Y012234D01*
X028134Y011614D01*
X027974Y011614D01*
X027974Y012234D01*
X027916Y012227D01*
X027827Y012203D01*
X027741Y012168D01*
X027661Y012121D01*
X027588Y012065D01*
X027523Y012000D01*
X027466Y011926D01*
X027420Y011846D01*
X027385Y011761D01*
X027361Y011672D01*
X027353Y011614D01*
X027974Y011614D01*
X027974Y011751D02*
X028134Y011751D01*
X028134Y011909D02*
X027974Y011909D01*
X027974Y012068D02*
X028134Y012068D01*
X028134Y012226D02*
X027974Y012226D01*
X027913Y012226D02*
X026187Y012226D01*
X026126Y012226D02*
X025966Y012226D01*
X025905Y012226D02*
X025219Y012226D01*
X025219Y012068D02*
X025583Y012068D01*
X025449Y011909D02*
X025219Y011909D01*
X025219Y011751D02*
X025374Y011751D01*
X025966Y011909D02*
X026126Y011909D01*
X026126Y012068D02*
X025966Y012068D01*
X026509Y012068D02*
X027591Y012068D01*
X027456Y011909D02*
X026644Y011909D01*
X026718Y011751D02*
X027382Y011751D01*
X027353Y011454D02*
X027361Y011396D01*
X027385Y011307D01*
X027420Y011221D01*
X027466Y011141D01*
X027523Y011068D01*
X027588Y011003D01*
X027661Y010946D01*
X027741Y010900D01*
X027827Y010865D01*
X027916Y010841D01*
X027974Y010833D01*
X027974Y011454D01*
X027353Y011454D01*
X027356Y011434D02*
X026744Y011434D01*
X026702Y011275D02*
X027398Y011275D01*
X027486Y011117D02*
X026614Y011117D01*
X026665Y010958D02*
X026454Y010958D01*
X026126Y010958D02*
X025966Y010958D01*
X025966Y011117D02*
X026126Y011117D01*
X026126Y011275D02*
X025966Y011275D01*
X025966Y011434D02*
X026126Y011434D01*
X027435Y010958D02*
X027646Y010958D01*
X027561Y010800D02*
X028770Y010800D01*
X028770Y010958D02*
X028461Y010958D01*
X028446Y010946D02*
X028520Y011003D01*
X028585Y011068D01*
X028641Y011141D01*
X028688Y011221D01*
X028723Y011307D01*
X028747Y011396D01*
X028754Y011454D01*
X028134Y011454D01*
X028134Y010833D01*
X028192Y010841D01*
X028281Y010865D01*
X028366Y010900D01*
X028446Y010946D01*
X028622Y011117D02*
X028770Y011117D01*
X028770Y011275D02*
X028710Y011275D01*
X028752Y011434D02*
X028770Y011434D01*
X028770Y011592D02*
X028134Y011592D01*
X028134Y011434D02*
X027974Y011434D01*
X027974Y011275D02*
X028134Y011275D01*
X028134Y011117D02*
X027974Y011117D01*
X027974Y010958D02*
X028134Y010958D01*
X027625Y010641D02*
X028770Y010641D01*
X028770Y010483D02*
X027625Y010483D01*
X027587Y010324D02*
X028770Y010324D01*
X028770Y010166D02*
X028352Y010166D01*
X028134Y010166D02*
X027974Y010166D01*
X027974Y010007D02*
X028134Y010007D01*
X028134Y009849D02*
X027974Y009849D01*
X028570Y010007D02*
X028770Y010007D01*
X028770Y009849D02*
X028682Y009849D01*
X028740Y009690D02*
X028770Y009690D01*
X028134Y009373D02*
X027974Y009373D01*
X027974Y009215D02*
X028134Y009215D01*
X028134Y009056D02*
X027974Y009056D01*
X027733Y008898D02*
X026367Y008898D01*
X026126Y008898D02*
X025966Y008898D01*
X025966Y009056D02*
X026126Y009056D01*
X026126Y009215D02*
X025966Y009215D01*
X025966Y009373D02*
X026126Y009373D01*
X026573Y009056D02*
X027527Y009056D01*
X027420Y009215D02*
X026680Y009215D01*
X026735Y009373D02*
X027365Y009373D01*
X027368Y009690D02*
X026732Y009690D01*
X026674Y009849D02*
X027426Y009849D01*
X027538Y010007D02*
X027290Y010007D01*
X027499Y010166D02*
X027755Y010166D01*
X026810Y010007D02*
X026562Y010007D01*
X026601Y010166D02*
X026345Y010166D01*
X026126Y010166D02*
X025966Y010166D01*
X025966Y010007D02*
X026126Y010007D01*
X026126Y009849D02*
X025966Y009849D01*
X025519Y009056D02*
X025219Y009056D01*
X025199Y008898D02*
X025725Y008898D01*
X025073Y008739D02*
X027599Y008739D01*
X027245Y008581D02*
X024915Y008581D01*
X024756Y008422D02*
X027056Y008422D01*
X027045Y008413D02*
X027045Y008413D01*
X027045Y008413D01*
X026959Y008264D02*
X024598Y008264D01*
X024439Y008105D02*
X026872Y008105D01*
X026844Y007947D02*
X024281Y007947D01*
X024122Y007788D02*
X026816Y007788D01*
X026815Y007780D02*
X026815Y007780D01*
X026842Y007630D02*
X023964Y007630D01*
X023805Y007471D02*
X026870Y007471D01*
X026874Y007443D02*
X026874Y007443D01*
X026950Y007313D02*
X023647Y007313D01*
X023488Y007154D02*
X027041Y007154D01*
X027045Y007147D02*
X027045Y007147D01*
X027226Y006996D02*
X023330Y006996D01*
X023171Y006837D02*
X027555Y006837D01*
X027308Y006927D02*
X027308Y006927D01*
X028726Y011751D02*
X028770Y011751D01*
X028770Y011909D02*
X028651Y011909D01*
X028770Y012068D02*
X028517Y012068D01*
X028770Y012226D02*
X028195Y012226D01*
X028770Y012385D02*
X025219Y012385D01*
X025219Y012543D02*
X028770Y012543D01*
X028770Y012702D02*
X025219Y012702D01*
X025219Y012860D02*
X028770Y012860D01*
X028770Y013019D02*
X025219Y013019D01*
X025219Y013177D02*
X028770Y013177D01*
X028770Y013336D02*
X025219Y013336D01*
X025160Y013494D02*
X028770Y013494D01*
X028770Y013653D02*
X026908Y013653D01*
X027086Y013811D02*
X028770Y013811D01*
X028770Y013970D02*
X027173Y013970D01*
X027209Y014128D02*
X028770Y014128D01*
X028770Y014287D02*
X027201Y014287D01*
X027150Y014445D02*
X028770Y014445D01*
X028770Y014604D02*
X027039Y014604D01*
X026783Y014762D02*
X028770Y014762D01*
X028770Y014921D02*
X022100Y014921D01*
X022100Y015079D02*
X028770Y015079D01*
X028765Y015238D02*
X022100Y015238D01*
X022100Y015396D02*
X028729Y015396D01*
X028672Y015555D02*
X022100Y015555D01*
X022100Y015713D02*
X028557Y015713D01*
X028357Y015872D02*
X022100Y015872D01*
X022100Y014762D02*
X024417Y014762D01*
X024600Y014762D02*
X024600Y014762D01*
X024600Y014604D02*
X024600Y014604D01*
X024600Y014445D02*
X024600Y014445D01*
X024600Y014287D02*
X024600Y014287D01*
X025039Y014604D02*
X025133Y014604D01*
X025359Y014762D02*
X024783Y014762D01*
X024161Y014604D02*
X022100Y014604D01*
X022100Y014445D02*
X024050Y014445D01*
X023999Y014287D02*
X022100Y014287D01*
X022100Y014128D02*
X023991Y014128D01*
X024027Y013970D02*
X022100Y013970D01*
X022100Y013811D02*
X024114Y013811D01*
X024292Y013653D02*
X022100Y013653D01*
X024908Y013653D02*
X025237Y013653D01*
X025963Y013653D02*
X026292Y013653D01*
X026600Y013653D02*
X026600Y013653D01*
X026600Y013570D02*
X026600Y014180D01*
X026600Y014180D01*
X026600Y013570D01*
X026600Y013811D02*
X026600Y013811D01*
X026600Y013970D02*
X026600Y013970D01*
X026600Y014128D02*
X026600Y014128D01*
X026600Y014287D02*
X026600Y014287D01*
X026600Y014445D02*
X026600Y014445D01*
X026600Y014604D02*
X026600Y014604D01*
X026600Y014762D02*
X026600Y014762D01*
X026417Y014762D02*
X025841Y014762D01*
X026067Y014604D02*
X026161Y014604D01*
D23*
X024940Y013320D02*
X019360Y013320D01*
X018640Y014040D01*
X018600Y014180D01*
X016600Y014180D02*
X016480Y014040D01*
X014140Y011700D01*
X014100Y011680D01*
X013960Y011520D01*
X013420Y010980D01*
X008920Y010980D01*
X008900Y010930D01*
X008740Y010980D01*
X007300Y010980D01*
X006580Y011700D01*
X005140Y010260D01*
X005100Y010180D01*
X006580Y011700D02*
X005140Y013140D01*
X005100Y013211D01*
X008920Y009540D02*
X010000Y010620D01*
X013960Y010620D01*
X014100Y010680D01*
X014140Y010620D01*
X014500Y010620D01*
X015400Y009720D01*
X018100Y009720D01*
X019000Y010620D01*
X019100Y010680D01*
X020080Y009180D02*
X020100Y009180D01*
X020080Y009180D02*
X019540Y008640D01*
X011080Y008640D01*
X010720Y008280D01*
X010600Y008180D01*
X009100Y008180D02*
X009100Y008100D01*
X008560Y007200D02*
X021340Y007200D01*
X022960Y008820D01*
X022960Y009180D01*
X023100Y009180D01*
X022100Y009180D02*
X022060Y009180D01*
X020440Y007560D01*
X006940Y007560D01*
X006940Y002340D01*
X007600Y001680D01*
X007660Y000720D02*
X006580Y001800D01*
X006580Y008100D01*
X005100Y007180D02*
X004960Y007200D01*
X004420Y007740D01*
X003160Y007740D01*
X002600Y007180D01*
X002600Y006180D02*
X002620Y006120D01*
X003160Y005580D01*
X004420Y005580D01*
X004960Y006120D01*
X005100Y006180D01*
X005140Y006120D01*
X005680Y006120D01*
X005680Y002340D01*
X007660Y000360D01*
X011260Y000360D01*
X013960Y003060D01*
X014100Y003180D01*
X012880Y003780D02*
X009820Y000720D01*
X007660Y000720D01*
X008600Y001680D02*
X008740Y001620D01*
X009280Y001080D01*
X009820Y001080D01*
X015580Y006840D01*
X018640Y006840D01*
X021160Y006840D02*
X022780Y006840D01*
X024940Y009000D01*
X024940Y013320D01*
X016100Y009180D02*
X015940Y009180D01*
X015400Y009720D01*
X021160Y006840D02*
X021160Y003240D01*
X021100Y003180D01*
X018100Y003240D02*
X018100Y003180D01*
X018100Y003240D02*
X017560Y003780D01*
X012880Y003780D01*
X008600Y002680D02*
X008560Y002700D01*
X008560Y007200D01*
X008900Y009430D02*
X008920Y009540D01*
X008740Y010080D02*
X008900Y010180D01*
X003520Y004320D02*
X001720Y006120D01*
X001600Y006180D01*
X003520Y004320D02*
X004960Y004320D01*
X005100Y004180D01*
D24*
X006580Y008100D02*
X007600Y008100D01*
X007600Y008940D01*
X008740Y010080D01*
X009100Y008100D02*
X007600Y008100D01*
X016100Y003180D02*
X016100Y002180D01*
X022100Y002180D01*
X022616Y001664D01*
X022616Y001180D01*
X016100Y002180D02*
X014600Y002180D01*
X013600Y001180D01*
D25*
X017100Y011680D02*
X019100Y011680D01*
D26*
X018640Y006840D03*
M02*
