G75*
G70*
%OFA0B0*%
%FSLAX24Y24*%
%IPPOS*%
%LPD*%
%AMOC8*
5,1,8,0,0,1.08239X$1,22.5*
%
%ADD10C,0.0740*%
%ADD11OC8,0.0740*%
%ADD12C,0.0555*%
%ADD13C,0.0560*%
%ADD14OC8,0.0660*%
%ADD15C,0.0750*%
%ADD16C,0.1050*%
%ADD17C,0.0860*%
%ADD18C,0.0640*%
%ADD19R,0.0740X0.0740*%
%ADD20C,0.0650*%
%ADD21C,0.0377*%
D10*
X005100Y005180D03*
X005100Y006180D03*
X005100Y007180D03*
X005100Y008180D03*
X005100Y009180D03*
X005100Y010180D03*
X005100Y011180D03*
X009100Y008180D03*
X010600Y008180D03*
X013100Y009180D03*
X014100Y009180D03*
X015100Y009180D03*
X016100Y009180D03*
X017100Y009180D03*
X018100Y009180D03*
X019100Y009180D03*
X020100Y009180D03*
X021100Y009180D03*
X022100Y009180D03*
X023100Y009180D03*
X024100Y009180D03*
X022100Y010680D03*
X022100Y011680D03*
X019100Y011680D03*
X019100Y010680D03*
X017100Y010680D03*
X017100Y011680D03*
X014100Y011680D03*
X014100Y010680D03*
X010600Y005180D03*
X009100Y005180D03*
X013100Y003180D03*
X014100Y003180D03*
X015100Y003180D03*
X016100Y003180D03*
X017100Y003180D03*
X018100Y003180D03*
X019100Y003180D03*
X020100Y003180D03*
X021100Y003180D03*
X022100Y003180D03*
X023100Y003180D03*
X024100Y003180D03*
X020600Y001180D03*
X017600Y001180D03*
X014600Y001180D03*
X013600Y001180D03*
D11*
X007600Y001680D03*
X008600Y001680D03*
X009600Y001680D03*
X009600Y002680D03*
X008600Y002680D03*
X007600Y002680D03*
X003600Y006180D03*
X002600Y006180D03*
X001600Y006180D03*
X001600Y007180D03*
X002600Y007180D03*
X003600Y007180D03*
D12*
X008900Y009430D03*
X008900Y010180D03*
X008900Y010930D03*
D13*
X026600Y005474D03*
X026600Y004686D03*
D14*
X026600Y003030D03*
X026600Y002180D03*
X026600Y001330D03*
D15*
X027050Y010530D03*
D16*
X026046Y009526D03*
X028054Y009526D03*
X028054Y011534D03*
X026046Y011534D03*
D17*
X025600Y014180D03*
X024600Y014180D03*
X026600Y014180D03*
X018600Y014180D03*
X017600Y014180D03*
X016600Y014180D03*
X015600Y014180D03*
D18*
X009887Y013211D03*
X009100Y013211D03*
X008313Y013211D03*
X005887Y013211D03*
X005100Y013211D03*
X004313Y013211D03*
D19*
X005100Y004180D03*
D20*
X022616Y001180D03*
X024584Y001180D03*
X028150Y000846D03*
X028150Y002814D03*
D21*
X018640Y006840D03*
M02*
