G75*
G70*
%OFA0B0*%
%FSLAX24Y24*%
%IPPOS*%
%LPD*%
%AMOC8*
5,1,8,0,0,1.08239X$1,22.5*
%
%ADD10C,0.0030*%
%ADD11C,0.0740*%
%ADD12OC8,0.0740*%
%ADD13C,0.0515*%
%ADD14C,0.0560*%
%ADD15OC8,0.0660*%
%ADD16C,0.0750*%
%ADD17C,0.1050*%
%ADD18C,0.0860*%
%ADD19C,0.0640*%
%ADD20R,0.0740X0.0740*%
%ADD21C,0.0650*%
%ADD22C,0.0079*%
%ADD23C,0.0100*%
%ADD24C,0.0357*%
D10*
X002516Y001115D02*
X002710Y001115D01*
X002516Y001308D01*
X002516Y001357D01*
X002565Y001405D01*
X002662Y001405D01*
X002710Y001357D01*
X003106Y001260D02*
X003106Y001212D01*
X003299Y001212D01*
X003299Y001260D02*
X003251Y001308D01*
X003154Y001308D01*
X003106Y001260D01*
X003154Y001115D02*
X003251Y001115D01*
X003299Y001163D01*
X003299Y001260D01*
X003400Y001308D02*
X003546Y001308D01*
X003594Y001260D01*
X003594Y001163D01*
X003546Y001115D01*
X003400Y001115D01*
X003400Y001405D01*
X003742Y001405D02*
X003742Y001454D01*
X003742Y001308D02*
X003742Y001115D01*
X003790Y001115D02*
X003694Y001115D01*
X003892Y001163D02*
X003940Y001115D01*
X004037Y001115D01*
X004085Y001163D01*
X004037Y001260D02*
X003940Y001260D01*
X003892Y001212D01*
X003892Y001163D01*
X004037Y001260D02*
X004085Y001308D01*
X004085Y001357D01*
X004037Y001405D01*
X003940Y001405D01*
X003892Y001357D01*
X003790Y001308D02*
X003742Y001308D01*
D11*
X005100Y005100D03*
X005100Y006100D03*
X005100Y007100D03*
X005100Y008100D03*
X005100Y009100D03*
X005100Y010100D03*
X005100Y011100D03*
X009100Y008100D03*
X010600Y008100D03*
X013100Y009100D03*
X014100Y009100D03*
X015100Y009100D03*
X016100Y009100D03*
X017100Y009100D03*
X018100Y009100D03*
X019100Y009100D03*
X020100Y009100D03*
X021100Y009100D03*
X022100Y009100D03*
X023100Y009100D03*
X024100Y009100D03*
X022100Y010600D03*
X022100Y011600D03*
X019100Y011600D03*
X019100Y010600D03*
X017100Y010600D03*
X017100Y011600D03*
X014100Y011600D03*
X014100Y010600D03*
X010600Y005100D03*
X009100Y005100D03*
X013100Y003100D03*
X014100Y003100D03*
X015100Y003100D03*
X016100Y003100D03*
X017100Y003100D03*
X018100Y003100D03*
X019100Y003100D03*
X020100Y003100D03*
X021100Y003100D03*
X022100Y003100D03*
X023100Y003100D03*
X024100Y003100D03*
X020600Y001100D03*
X017600Y001100D03*
X014600Y001100D03*
X013600Y001100D03*
D12*
X009600Y001600D03*
X008600Y001600D03*
X007600Y001600D03*
X007600Y002600D03*
X008600Y002600D03*
X009600Y002600D03*
X003600Y006100D03*
X002600Y006100D03*
X001600Y006100D03*
X001600Y007100D03*
X002600Y007100D03*
X003600Y007100D03*
D13*
X008900Y009350D03*
X008900Y010100D03*
X008900Y010850D03*
D14*
X026600Y005394D03*
X026600Y004606D03*
D15*
X026600Y002950D03*
X026600Y002100D03*
X026600Y001250D03*
D16*
X027050Y010450D03*
D17*
X026046Y009446D03*
X028054Y009446D03*
X028054Y011454D03*
X026046Y011454D03*
D18*
X025600Y014100D03*
X024600Y014100D03*
X026600Y014100D03*
X018600Y014100D03*
X017600Y014100D03*
X016600Y014100D03*
X015600Y014100D03*
D19*
X009887Y013131D03*
X009100Y013131D03*
X008313Y013131D03*
X005887Y013131D03*
X005100Y013131D03*
X004313Y013131D03*
D20*
X005100Y004100D03*
D21*
X022616Y001100D03*
X024584Y001100D03*
X028150Y000766D03*
X028150Y002734D03*
D22*
X026600Y002950D02*
X026560Y002800D01*
X026380Y002800D01*
X024760Y001180D01*
X024584Y001100D01*
X023140Y000640D02*
X028000Y000640D01*
X028150Y000766D01*
X026600Y002950D02*
X026560Y002980D01*
X026560Y003060D01*
X024760Y004860D01*
X024760Y010000D01*
X019720Y010000D01*
X019180Y010540D01*
X019100Y010600D01*
X019000Y010540D01*
X018100Y009640D01*
X015400Y009640D01*
X015940Y009100D01*
X016100Y009100D01*
X015400Y009640D02*
X014500Y010540D01*
X014140Y010540D01*
X014100Y010600D01*
X013960Y010540D01*
X010000Y010540D01*
X008920Y009460D01*
X008900Y009350D01*
X010720Y008200D02*
X011080Y008560D01*
X019540Y008560D01*
X020080Y009100D01*
X020100Y009100D01*
X020260Y008380D02*
X020980Y009100D01*
X021100Y009100D01*
X022060Y009100D02*
X022100Y009100D01*
X022060Y009100D02*
X020260Y007300D01*
X009280Y007300D01*
X006940Y004960D01*
X006580Y004600D02*
X005140Y006040D01*
X005100Y006100D01*
X004960Y006040D01*
X004420Y005500D01*
X003160Y005500D01*
X002620Y006040D01*
X002600Y006100D01*
X001720Y006040D02*
X001600Y006100D01*
X001720Y006040D02*
X003520Y004240D01*
X004960Y004240D01*
X005100Y004100D01*
X006580Y004600D02*
X012520Y004600D01*
X013960Y003160D01*
X014100Y003100D01*
X014500Y002440D02*
X015040Y002980D01*
X015100Y003100D01*
X015940Y002980D02*
X016100Y003100D01*
X016120Y002980D01*
X017380Y001720D01*
X022060Y001720D01*
X022600Y001180D01*
X022616Y001100D01*
X022780Y001000D01*
X023140Y000640D01*
X015940Y002980D02*
X014680Y001720D01*
X014140Y001720D01*
X013600Y001180D01*
X013600Y001100D01*
X014500Y002440D02*
X010360Y002440D01*
X009640Y001720D01*
X009600Y001600D01*
X012700Y003520D02*
X013060Y003160D01*
X013100Y003100D01*
X012700Y003520D02*
X003340Y003520D01*
X001000Y005860D01*
X001000Y007660D01*
X003160Y007660D01*
X004420Y007660D01*
X004960Y007120D01*
X005100Y007100D01*
X003160Y007660D02*
X002620Y007120D01*
X002600Y007100D01*
X008560Y005500D02*
X010180Y007120D01*
X020980Y007120D01*
X022960Y009100D01*
X023100Y009100D01*
X026020Y009100D02*
X026046Y009446D01*
X026020Y009100D02*
X022960Y012160D01*
X018460Y012160D01*
X016660Y013960D01*
X016600Y014100D01*
X016480Y013960D01*
X014140Y011620D01*
X014100Y011600D01*
X013960Y011440D01*
X013420Y010900D01*
X008920Y010900D01*
X008900Y010850D01*
X008740Y010900D01*
X007300Y010900D01*
X006580Y011620D01*
X005140Y010180D01*
X005100Y010100D01*
X006580Y011620D02*
X005140Y013060D01*
X005100Y013131D01*
X011440Y007660D02*
X012160Y008380D01*
X020260Y008380D01*
X019100Y011600D02*
X019000Y011620D01*
X017200Y011620D01*
X017100Y011600D01*
X010720Y008200D02*
X010600Y008100D01*
D23*
X023100Y011100D02*
X023100Y015946D01*
X027970Y015946D01*
X028103Y015936D01*
X028356Y015853D01*
X028571Y015697D01*
X028727Y015482D01*
X028810Y015229D01*
X028820Y015096D01*
X028820Y005350D01*
X027028Y005350D01*
X027030Y005360D01*
X027030Y005365D01*
X026629Y005365D01*
X026629Y005422D01*
X027030Y005422D01*
X027030Y005428D01*
X027019Y005494D01*
X026998Y005559D01*
X026968Y005619D01*
X026928Y005674D01*
X026880Y005722D01*
X026825Y005761D01*
X026765Y005792D01*
X026701Y005813D01*
X028820Y005813D01*
X028820Y005715D02*
X026887Y005715D01*
X026969Y005616D02*
X028820Y005616D01*
X028820Y005518D02*
X027012Y005518D01*
X026629Y005518D02*
X026571Y005518D01*
X026571Y005422D02*
X026571Y005824D01*
X026566Y005824D01*
X026499Y005813D01*
X024928Y005813D01*
X024928Y005715D02*
X026313Y005715D01*
X026320Y005722D02*
X026272Y005674D01*
X026232Y005619D01*
X026202Y005559D01*
X026181Y005494D01*
X026170Y005428D01*
X026170Y005422D01*
X026571Y005422D01*
X026571Y005365D01*
X026170Y005365D01*
X026170Y005360D01*
X026172Y005350D01*
X025050Y005350D01*
X024928Y005709D01*
X024928Y010070D01*
X024830Y010168D01*
X023416Y010168D01*
X023100Y011100D01*
X023100Y011132D02*
X025453Y011132D01*
X025439Y011155D02*
X025484Y011078D01*
X025538Y011008D01*
X025600Y010945D01*
X025670Y010891D01*
X025747Y010847D01*
X025829Y010813D01*
X025914Y010790D01*
X025996Y010780D01*
X025996Y011404D01*
X025372Y011404D01*
X025383Y011322D01*
X025406Y011236D01*
X025439Y011155D01*
X025408Y011231D02*
X023100Y011231D01*
X023100Y011329D02*
X025382Y011329D01*
X025372Y011504D02*
X025996Y011504D01*
X025996Y012128D01*
X025914Y012117D01*
X025829Y012094D01*
X025747Y012061D01*
X025670Y012016D01*
X025600Y011962D01*
X025538Y011900D01*
X025484Y011830D01*
X025439Y011753D01*
X025406Y011671D01*
X025383Y011586D01*
X025372Y011504D01*
X025375Y011526D02*
X023100Y011526D01*
X023100Y011428D02*
X025996Y011428D01*
X025996Y011404D02*
X025996Y011504D01*
X026096Y011504D01*
X026096Y012128D01*
X026178Y012117D01*
X026264Y012094D01*
X026345Y012061D01*
X026422Y012016D01*
X026492Y011962D01*
X026555Y011900D01*
X026609Y011830D01*
X026653Y011753D01*
X026687Y011671D01*
X026710Y011586D01*
X026720Y011504D01*
X026096Y011504D01*
X026096Y011404D01*
X026096Y010780D01*
X026178Y010790D01*
X026264Y010813D01*
X026345Y010847D01*
X026422Y010891D01*
X026492Y010945D01*
X026555Y011008D01*
X026609Y011078D01*
X026653Y011155D01*
X026687Y011236D01*
X026710Y011322D01*
X026720Y011404D01*
X026096Y011404D01*
X025996Y011404D01*
X025996Y011329D02*
X026096Y011329D01*
X026096Y011231D02*
X025996Y011231D01*
X025996Y011132D02*
X026096Y011132D01*
X026096Y011034D02*
X025996Y011034D01*
X025996Y010935D02*
X026096Y010935D01*
X026096Y010837D02*
X025996Y010837D01*
X025773Y010837D02*
X023189Y010837D01*
X023156Y010935D02*
X025613Y010935D01*
X025518Y011034D02*
X023123Y011034D01*
X023223Y010738D02*
X026626Y010738D01*
X026623Y010735D02*
X026546Y010550D01*
X026546Y010350D01*
X026623Y010165D01*
X026765Y010023D01*
X026950Y009946D01*
X027150Y009946D01*
X027335Y010023D01*
X027477Y010165D01*
X027554Y010350D01*
X027554Y010550D01*
X027477Y010735D01*
X027335Y010877D01*
X027150Y010954D01*
X026950Y010954D01*
X026765Y010877D01*
X026623Y010735D01*
X026583Y010640D02*
X023256Y010640D01*
X023290Y010541D02*
X026546Y010541D01*
X026546Y010443D02*
X023323Y010443D01*
X023356Y010344D02*
X026549Y010344D01*
X026589Y010246D02*
X023390Y010246D01*
X024851Y010147D02*
X026641Y010147D01*
X026739Y010049D02*
X026353Y010049D01*
X026345Y010053D02*
X026264Y010087D01*
X026178Y010110D01*
X026096Y010120D01*
X026096Y009496D01*
X026720Y009496D01*
X026710Y009578D01*
X026687Y009664D01*
X026653Y009745D01*
X026609Y009822D01*
X026555Y009892D01*
X026492Y009955D01*
X026422Y010009D01*
X026345Y010053D01*
X026497Y009950D02*
X026941Y009950D01*
X027159Y009950D02*
X027603Y009950D01*
X027608Y009955D02*
X027545Y009892D01*
X027491Y009822D01*
X027447Y009745D01*
X027413Y009664D01*
X027390Y009578D01*
X027380Y009496D01*
X028004Y009496D01*
X028004Y009396D01*
X028104Y009396D01*
X028104Y009496D01*
X028728Y009496D01*
X028717Y009578D01*
X028694Y009664D01*
X028661Y009745D01*
X028616Y009822D01*
X028562Y009892D01*
X028500Y009955D01*
X028430Y010009D01*
X028353Y010053D01*
X028271Y010087D01*
X028186Y010110D01*
X028104Y010120D01*
X028104Y009496D01*
X028004Y009496D01*
X028004Y010120D01*
X027922Y010110D01*
X027836Y010087D01*
X027755Y010053D01*
X027678Y010009D01*
X027608Y009955D01*
X027514Y009852D02*
X026586Y009852D01*
X026648Y009753D02*
X027452Y009753D01*
X027411Y009655D02*
X026689Y009655D01*
X026712Y009556D02*
X027388Y009556D01*
X027380Y009396D02*
X027390Y009314D01*
X027413Y009229D01*
X027447Y009147D01*
X027491Y009070D01*
X027545Y009000D01*
X027608Y008938D01*
X027678Y008884D01*
X027755Y008839D01*
X027836Y008806D01*
X027922Y008783D01*
X028004Y008772D01*
X028004Y009396D01*
X027380Y009396D01*
X027385Y009359D02*
X026715Y009359D01*
X026720Y009396D02*
X026096Y009396D01*
X026096Y008772D01*
X026178Y008783D01*
X026264Y008806D01*
X026345Y008839D01*
X026422Y008884D01*
X026492Y008938D01*
X026555Y009000D01*
X026609Y009070D01*
X026653Y009147D01*
X026687Y009229D01*
X026710Y009314D01*
X026720Y009396D01*
X026695Y009261D02*
X027405Y009261D01*
X027441Y009162D02*
X026659Y009162D01*
X026603Y009064D02*
X027497Y009064D01*
X027580Y008965D02*
X026520Y008965D01*
X026392Y008867D02*
X027708Y008867D01*
X028004Y008867D02*
X028104Y008867D01*
X028104Y008772D02*
X028186Y008783D01*
X028271Y008806D01*
X028353Y008839D01*
X028430Y008884D01*
X028500Y008938D01*
X028562Y009000D01*
X028616Y009070D01*
X028661Y009147D01*
X028694Y009229D01*
X028717Y009314D01*
X028728Y009396D01*
X028104Y009396D01*
X028104Y008772D01*
X027963Y008520D02*
X027637Y008520D01*
X027336Y008395D01*
X027336Y008395D01*
X027105Y008164D01*
X026980Y007863D01*
X026980Y007537D01*
X027105Y007236D01*
X027105Y007236D01*
X027336Y007005D01*
X027637Y006880D01*
X027837Y006880D01*
X027963Y006880D01*
X027963Y006880D01*
X028264Y007005D01*
X028264Y007005D01*
X028495Y007236D01*
X028620Y007537D01*
X028620Y007863D01*
X028495Y008164D01*
X028495Y008164D01*
X028264Y008395D01*
X027963Y008520D01*
X028078Y008473D02*
X028820Y008473D01*
X028820Y008571D02*
X024928Y008571D01*
X024928Y008473D02*
X027522Y008473D01*
X027314Y008374D02*
X024928Y008374D01*
X024928Y008276D02*
X027216Y008276D01*
X027117Y008177D02*
X024928Y008177D01*
X024928Y008079D02*
X027069Y008079D01*
X027105Y008164D02*
X027105Y008164D01*
X027028Y007980D02*
X024928Y007980D01*
X024928Y007882D02*
X026988Y007882D01*
X026980Y007783D02*
X024928Y007783D01*
X024928Y007685D02*
X026980Y007685D01*
X026980Y007586D02*
X024928Y007586D01*
X024928Y007488D02*
X027000Y007488D01*
X027041Y007389D02*
X024928Y007389D01*
X024928Y007291D02*
X027082Y007291D01*
X027148Y007192D02*
X024928Y007192D01*
X024928Y007094D02*
X027247Y007094D01*
X027336Y007005D02*
X027336Y007005D01*
X027359Y006995D02*
X024928Y006995D01*
X024928Y006897D02*
X027597Y006897D01*
X028003Y006897D02*
X028820Y006897D01*
X028820Y006995D02*
X028241Y006995D01*
X028353Y007094D02*
X028820Y007094D01*
X028820Y007192D02*
X028452Y007192D01*
X028495Y007236D02*
X028495Y007236D01*
X028518Y007291D02*
X028820Y007291D01*
X028820Y007389D02*
X028559Y007389D01*
X028600Y007488D02*
X028820Y007488D01*
X028820Y007586D02*
X028620Y007586D01*
X028620Y007685D02*
X028820Y007685D01*
X028820Y007783D02*
X028620Y007783D01*
X028612Y007882D02*
X028820Y007882D01*
X028820Y007980D02*
X028572Y007980D01*
X028531Y008079D02*
X028820Y008079D01*
X028820Y008177D02*
X028483Y008177D01*
X028384Y008276D02*
X028820Y008276D01*
X028820Y008374D02*
X028286Y008374D01*
X028264Y008395D02*
X028264Y008395D01*
X028820Y008670D02*
X024928Y008670D01*
X024928Y008768D02*
X028820Y008768D01*
X028820Y008867D02*
X028400Y008867D01*
X028527Y008965D02*
X028820Y008965D01*
X028820Y009064D02*
X028611Y009064D01*
X028667Y009162D02*
X028820Y009162D01*
X028820Y009261D02*
X028703Y009261D01*
X028723Y009359D02*
X028820Y009359D01*
X028820Y009458D02*
X028104Y009458D01*
X028104Y009556D02*
X028004Y009556D01*
X028004Y009458D02*
X026096Y009458D01*
X026096Y009496D02*
X026096Y009396D01*
X025996Y009396D01*
X025996Y008772D01*
X025914Y008783D01*
X025829Y008806D01*
X025747Y008839D01*
X025670Y008884D01*
X025600Y008938D01*
X025538Y009000D01*
X025484Y009070D01*
X025439Y009147D01*
X025406Y009229D01*
X025383Y009314D01*
X025372Y009396D01*
X025996Y009396D01*
X025996Y009496D01*
X025372Y009496D01*
X025383Y009578D01*
X025406Y009664D01*
X025439Y009745D01*
X025484Y009822D01*
X025538Y009892D01*
X025600Y009955D01*
X025670Y010009D01*
X025747Y010053D01*
X025829Y010087D01*
X025914Y010110D01*
X025996Y010120D01*
X025996Y009496D01*
X026096Y009496D01*
X026096Y009556D02*
X025996Y009556D01*
X025996Y009458D02*
X024928Y009458D01*
X024928Y009556D02*
X025380Y009556D01*
X025403Y009655D02*
X024928Y009655D01*
X024928Y009753D02*
X025444Y009753D01*
X025506Y009852D02*
X024928Y009852D01*
X024928Y009950D02*
X025595Y009950D01*
X025740Y010049D02*
X024928Y010049D01*
X025996Y010049D02*
X026096Y010049D01*
X026096Y009950D02*
X025996Y009950D01*
X025996Y009852D02*
X026096Y009852D01*
X026096Y009753D02*
X025996Y009753D01*
X025996Y009655D02*
X026096Y009655D01*
X026096Y009359D02*
X025996Y009359D01*
X025996Y009261D02*
X026096Y009261D01*
X026096Y009162D02*
X025996Y009162D01*
X025996Y009064D02*
X026096Y009064D01*
X026096Y008965D02*
X025996Y008965D01*
X025996Y008867D02*
X026096Y008867D01*
X025700Y008867D02*
X024928Y008867D01*
X024928Y008965D02*
X025573Y008965D01*
X025489Y009064D02*
X024928Y009064D01*
X024928Y009162D02*
X025433Y009162D01*
X025397Y009261D02*
X024928Y009261D01*
X024928Y009359D02*
X025377Y009359D01*
X027361Y010049D02*
X027747Y010049D01*
X028004Y010049D02*
X028104Y010049D01*
X028104Y009950D02*
X028004Y009950D01*
X028004Y009852D02*
X028104Y009852D01*
X028104Y009753D02*
X028004Y009753D01*
X028004Y009655D02*
X028104Y009655D01*
X028104Y009359D02*
X028004Y009359D01*
X028004Y009261D02*
X028104Y009261D01*
X028104Y009162D02*
X028004Y009162D01*
X028004Y009064D02*
X028104Y009064D01*
X028104Y008965D02*
X028004Y008965D01*
X028720Y009556D02*
X028820Y009556D01*
X028820Y009655D02*
X028697Y009655D01*
X028656Y009753D02*
X028820Y009753D01*
X028820Y009852D02*
X028594Y009852D01*
X028505Y009950D02*
X028820Y009950D01*
X028820Y010049D02*
X028360Y010049D01*
X028820Y010147D02*
X027459Y010147D01*
X027511Y010246D02*
X028820Y010246D01*
X028820Y010344D02*
X027551Y010344D01*
X027554Y010443D02*
X028820Y010443D01*
X028820Y010541D02*
X027554Y010541D01*
X027517Y010640D02*
X028820Y010640D01*
X028820Y010738D02*
X027474Y010738D01*
X027376Y010837D02*
X027781Y010837D01*
X027755Y010847D02*
X027836Y010813D01*
X027922Y010790D01*
X028004Y010780D01*
X028004Y011404D01*
X028104Y011404D01*
X028104Y011504D01*
X028728Y011504D01*
X028717Y011586D01*
X028694Y011671D01*
X028661Y011753D01*
X028616Y011830D01*
X028562Y011900D01*
X028500Y011962D01*
X028430Y012016D01*
X028353Y012061D01*
X028271Y012094D01*
X028186Y012117D01*
X028104Y012128D01*
X028104Y011504D01*
X028004Y011504D01*
X028004Y012128D01*
X027922Y012117D01*
X027836Y012094D01*
X027755Y012061D01*
X027678Y012016D01*
X027608Y011962D01*
X027545Y011900D01*
X027491Y011830D01*
X027447Y011753D01*
X027413Y011671D01*
X027390Y011586D01*
X027380Y011504D01*
X028004Y011504D01*
X028004Y011404D01*
X027380Y011404D01*
X027390Y011322D01*
X027413Y011236D01*
X027447Y011155D01*
X027491Y011078D01*
X027545Y011008D01*
X027608Y010945D01*
X027678Y010891D01*
X027755Y010847D01*
X027621Y010935D02*
X027195Y010935D01*
X026905Y010935D02*
X026479Y010935D01*
X026574Y011034D02*
X027526Y011034D01*
X027460Y011132D02*
X026640Y011132D01*
X026684Y011231D02*
X027416Y011231D01*
X027390Y011329D02*
X026710Y011329D01*
X026717Y011526D02*
X027383Y011526D01*
X027401Y011625D02*
X026699Y011625D01*
X026665Y011723D02*
X027435Y011723D01*
X027487Y011822D02*
X026613Y011822D01*
X026535Y011920D02*
X027565Y011920D01*
X027682Y012019D02*
X026418Y012019D01*
X026179Y012117D02*
X027921Y012117D01*
X028004Y012117D02*
X028104Y012117D01*
X028187Y012117D02*
X028820Y012117D01*
X028820Y012019D02*
X028426Y012019D01*
X028542Y011920D02*
X028820Y011920D01*
X028820Y011822D02*
X028621Y011822D01*
X028673Y011723D02*
X028820Y011723D01*
X028820Y011625D02*
X028707Y011625D01*
X028725Y011526D02*
X028820Y011526D01*
X028820Y011428D02*
X028104Y011428D01*
X028104Y011404D02*
X028728Y011404D01*
X028717Y011322D01*
X028694Y011236D01*
X028661Y011155D01*
X028616Y011078D01*
X028562Y011008D01*
X028500Y010945D01*
X028430Y010891D01*
X028353Y010847D01*
X028271Y010813D01*
X028186Y010790D01*
X028104Y010780D01*
X028104Y011404D01*
X028104Y011329D02*
X028004Y011329D01*
X028004Y011231D02*
X028104Y011231D01*
X028104Y011132D02*
X028004Y011132D01*
X028004Y011034D02*
X028104Y011034D01*
X028104Y010935D02*
X028004Y010935D01*
X028004Y010837D02*
X028104Y010837D01*
X028327Y010837D02*
X028820Y010837D01*
X028820Y010935D02*
X028487Y010935D01*
X028582Y011034D02*
X028820Y011034D01*
X028820Y011132D02*
X028647Y011132D01*
X028692Y011231D02*
X028820Y011231D01*
X028820Y011329D02*
X028718Y011329D01*
X028104Y011526D02*
X028004Y011526D01*
X028004Y011428D02*
X026096Y011428D01*
X026096Y011526D02*
X025996Y011526D01*
X025996Y011625D02*
X026096Y011625D01*
X026096Y011723D02*
X025996Y011723D01*
X025996Y011822D02*
X026096Y011822D01*
X026096Y011920D02*
X025996Y011920D01*
X025996Y012019D02*
X026096Y012019D01*
X026096Y012117D02*
X025996Y012117D01*
X025913Y012117D02*
X023100Y012117D01*
X023100Y012019D02*
X025674Y012019D01*
X025558Y011920D02*
X023100Y011920D01*
X023100Y011822D02*
X025479Y011822D01*
X025427Y011723D02*
X023100Y011723D01*
X023100Y011625D02*
X025393Y011625D01*
X026319Y010837D02*
X026724Y010837D01*
X028004Y011625D02*
X028104Y011625D01*
X028104Y011723D02*
X028004Y011723D01*
X028004Y011822D02*
X028104Y011822D01*
X028104Y011920D02*
X028004Y011920D01*
X028004Y012019D02*
X028104Y012019D01*
X028820Y012216D02*
X023100Y012216D01*
X023100Y012314D02*
X028820Y012314D01*
X028820Y012413D02*
X023100Y012413D01*
X023100Y012511D02*
X028820Y012511D01*
X028820Y012610D02*
X023100Y012610D01*
X023100Y012708D02*
X028820Y012708D01*
X028820Y012807D02*
X023100Y012807D01*
X023100Y012905D02*
X028820Y012905D01*
X028820Y013004D02*
X023100Y013004D01*
X023100Y013102D02*
X028820Y013102D01*
X028820Y013201D02*
X023100Y013201D01*
X023100Y013299D02*
X028820Y013299D01*
X028820Y013398D02*
X023100Y013398D01*
X023100Y013496D02*
X028820Y013496D01*
X028820Y013595D02*
X026886Y013595D01*
X026904Y013604D02*
X026978Y013658D01*
X027042Y013722D01*
X027096Y013796D01*
X027138Y013877D01*
X027166Y013964D01*
X027180Y014054D01*
X027180Y014081D01*
X026619Y014081D01*
X026619Y014119D01*
X026581Y014119D01*
X026581Y014680D01*
X026554Y014680D01*
X026464Y014666D01*
X026377Y014638D01*
X026296Y014596D01*
X026222Y014542D01*
X026158Y014478D01*
X026104Y014404D01*
X026090Y014377D01*
X026074Y014416D01*
X025916Y014574D01*
X025711Y014659D01*
X025489Y014659D01*
X025283Y014574D01*
X025126Y014416D01*
X025110Y014377D01*
X025096Y014404D01*
X025042Y014478D01*
X024978Y014542D01*
X024904Y014596D01*
X024823Y014638D01*
X024736Y014666D01*
X024646Y014680D01*
X024619Y014680D01*
X024619Y014119D01*
X024581Y014119D01*
X024581Y014680D01*
X024554Y014680D01*
X024464Y014666D01*
X024377Y014638D01*
X024296Y014596D01*
X024222Y014542D01*
X024158Y014478D01*
X024104Y014404D01*
X024062Y014323D01*
X024034Y014236D01*
X024020Y014146D01*
X024020Y014119D01*
X024581Y014119D01*
X024581Y014081D01*
X024619Y014081D01*
X024619Y013520D01*
X024646Y013520D01*
X024736Y013534D01*
X024823Y013562D01*
X024904Y013604D01*
X024978Y013658D01*
X025042Y013722D01*
X025096Y013796D01*
X025110Y013823D01*
X025126Y013783D01*
X025283Y013626D01*
X025489Y013541D01*
X025711Y013541D01*
X025916Y013626D01*
X026074Y013783D01*
X026090Y013823D01*
X026104Y013796D01*
X026158Y013722D01*
X026222Y013658D01*
X026296Y013604D01*
X026377Y013562D01*
X026464Y013534D01*
X026554Y013520D01*
X026581Y013520D01*
X026581Y014081D01*
X026619Y014081D01*
X026619Y013520D01*
X026646Y013520D01*
X026736Y013534D01*
X026823Y013562D01*
X026904Y013604D01*
X027013Y013693D02*
X028820Y013693D01*
X028820Y013792D02*
X027093Y013792D01*
X027142Y013890D02*
X028820Y013890D01*
X028820Y013989D02*
X027170Y013989D01*
X027180Y014119D02*
X027180Y014146D01*
X027166Y014236D01*
X027138Y014323D01*
X027096Y014404D01*
X027042Y014478D01*
X026978Y014542D01*
X026904Y014596D01*
X026823Y014638D01*
X026736Y014666D01*
X026646Y014680D01*
X026619Y014680D01*
X026619Y014119D01*
X027180Y014119D01*
X027174Y014186D02*
X028820Y014186D01*
X028820Y014284D02*
X027150Y014284D01*
X027107Y014383D02*
X028820Y014383D01*
X028820Y014481D02*
X027039Y014481D01*
X026927Y014580D02*
X028820Y014580D01*
X028820Y014678D02*
X026658Y014678D01*
X026619Y014678D02*
X026581Y014678D01*
X026542Y014678D02*
X024658Y014678D01*
X024619Y014678D02*
X024581Y014678D01*
X024542Y014678D02*
X023100Y014678D01*
X023100Y014580D02*
X024273Y014580D01*
X024161Y014481D02*
X023100Y014481D01*
X023100Y014383D02*
X024093Y014383D01*
X024050Y014284D02*
X023100Y014284D01*
X023100Y014186D02*
X024026Y014186D01*
X024020Y014081D02*
X024020Y014054D01*
X024034Y013964D01*
X024062Y013877D01*
X024104Y013796D01*
X024158Y013722D01*
X024222Y013658D01*
X024296Y013604D01*
X024377Y013562D01*
X024464Y013534D01*
X024554Y013520D01*
X024581Y013520D01*
X024581Y014081D01*
X024020Y014081D01*
X024030Y013989D02*
X023100Y013989D01*
X023100Y014087D02*
X024581Y014087D01*
X024581Y013989D02*
X024619Y013989D01*
X024619Y013890D02*
X024581Y013890D01*
X024581Y013792D02*
X024619Y013792D01*
X024619Y013693D02*
X024581Y013693D01*
X024581Y013595D02*
X024619Y013595D01*
X024886Y013595D02*
X025360Y013595D01*
X025217Y013693D02*
X025013Y013693D01*
X025093Y013792D02*
X025123Y013792D01*
X025840Y013595D02*
X026314Y013595D01*
X026187Y013693D02*
X025983Y013693D01*
X026077Y013792D02*
X026107Y013792D01*
X026581Y013792D02*
X026619Y013792D01*
X026619Y013890D02*
X026581Y013890D01*
X026581Y013989D02*
X026619Y013989D01*
X026619Y014087D02*
X028820Y014087D01*
X028820Y014777D02*
X023100Y014777D01*
X023100Y014875D02*
X028820Y014875D01*
X028820Y014974D02*
X023100Y014974D01*
X023100Y015072D02*
X028820Y015072D01*
X028814Y015171D02*
X023100Y015171D01*
X023100Y015269D02*
X028797Y015269D01*
X028765Y015368D02*
X023100Y015368D01*
X023100Y015466D02*
X028733Y015466D01*
X028667Y015565D02*
X023100Y015565D01*
X023100Y015663D02*
X028596Y015663D01*
X028482Y015762D02*
X023100Y015762D01*
X023100Y015860D02*
X028336Y015860D01*
X026619Y014580D02*
X026581Y014580D01*
X026581Y014481D02*
X026619Y014481D01*
X026619Y014383D02*
X026581Y014383D01*
X026581Y014284D02*
X026619Y014284D01*
X026619Y014186D02*
X026581Y014186D01*
X026093Y014383D02*
X026088Y014383D01*
X026161Y014481D02*
X026009Y014481D01*
X025902Y014580D02*
X026273Y014580D01*
X025298Y014580D02*
X024927Y014580D01*
X025039Y014481D02*
X025191Y014481D01*
X025112Y014383D02*
X025107Y014383D01*
X024619Y014383D02*
X024581Y014383D01*
X024581Y014481D02*
X024619Y014481D01*
X024619Y014580D02*
X024581Y014580D01*
X024581Y014284D02*
X024619Y014284D01*
X024619Y014186D02*
X024581Y014186D01*
X024058Y013890D02*
X023100Y013890D01*
X023100Y013792D02*
X024107Y013792D01*
X024187Y013693D02*
X023100Y013693D01*
X023100Y013595D02*
X024314Y013595D01*
X026581Y013595D02*
X026619Y013595D01*
X026619Y013693D02*
X026581Y013693D01*
X024928Y006798D02*
X028820Y006798D01*
X028820Y006700D02*
X024928Y006700D01*
X024928Y006601D02*
X028820Y006601D01*
X028820Y006503D02*
X024928Y006503D01*
X024928Y006404D02*
X028820Y006404D01*
X028820Y006306D02*
X024928Y006306D01*
X024928Y006207D02*
X028820Y006207D01*
X028820Y006109D02*
X024928Y006109D01*
X024928Y006010D02*
X028820Y006010D01*
X028820Y005912D02*
X024928Y005912D01*
X024960Y005616D02*
X026231Y005616D01*
X026188Y005518D02*
X024993Y005518D01*
X025027Y005419D02*
X026571Y005419D01*
X026571Y005422D02*
X026629Y005422D01*
X026629Y005824D01*
X026634Y005824D01*
X026701Y005813D01*
X026629Y005813D02*
X026571Y005813D01*
X026499Y005813D02*
X026435Y005792D01*
X026375Y005761D01*
X026320Y005722D01*
X026571Y005715D02*
X026629Y005715D01*
X026629Y005616D02*
X026571Y005616D01*
X026629Y005419D02*
X028820Y005419D01*
D24*
X011440Y007660D03*
X008560Y005500D03*
X006940Y004960D03*
M02*
