%
M48
M72
T01C0.0200
T02C0.0276
T03C0.0315
T04C0.0320
T05C0.0354
T06C0.0400
T07C0.0500
T08C0.0700
T09C0.1300
%
T01
X7153Y6400
X8593Y6400
X12913Y8200
X14533Y7480
X13633Y6580
T02
X24633Y2100
X24633Y1100
X28133Y1100
X28133Y2100
X9921Y13131
X9133Y13131
X8346Y13131
X5921Y13131
X5133Y13131
X4346Y13131
X16133Y14100
X17133Y14100
X18133Y14100
X19133Y14100
X25133Y14100
X26133Y14100
X27133Y14100
T03
X26633Y5994
X26633Y5206
X9133Y9850
X9133Y10600
X9133Y11350
T04
X26633Y2950
X26633Y2100
X26633Y1250
X14633Y1100
X13633Y1100
T05
X9633Y1600
X8633Y1600
X7633Y1600
X7633Y2600
X8633Y2600
X9633Y2600
X9133Y5100
X10633Y5100
X10633Y8100
X9133Y8100
X14133Y10600
X14133Y11600
X17133Y11600
X17133Y10600
X19133Y10600
X19133Y11600
X22133Y11600
X22133Y10600
X20633Y1100
X17633Y1100
T06
X17133Y3100
X16133Y3100
X15133Y3100
X14133Y3100
X13133Y3100
X18133Y3100
X19133Y3100
X20133Y3100
X21133Y3100
X22133Y3100
X23133Y3100
X24133Y3100
X24133Y9100
X23133Y9100
X22133Y9100
X21133Y9100
X20133Y9100
X19133Y9100
X18133Y9100
X17133Y9100
X16133Y9100
X15133Y9100
X14133Y9100
X13133Y9100
X5133Y9100
X5133Y8100
X5133Y7100
X3633Y7100
X2633Y7100
X1633Y7100
X1633Y6100
X2633Y6100
X3633Y6100
X5133Y6100
X5133Y5100
X5133Y4100
X5133Y10100
X5133Y11100
T07
X27133Y10100
T08
X26129Y9096
X28137Y9096
X28137Y11104
X26129Y11104
T09
X1633Y1600
X1633Y14600
M30
