G75*
G70*
%OFA0B0*%
%FSLAX24Y24*%
%IPPOS*%
%LPD*%
%AMOC8*
5,1,8,0,0,1.08239X$1,22.5*
%
%ADD10C,0.0030*%
%ADD11C,0.0740*%
%ADD12OC8,0.0740*%
%ADD13C,0.0555*%
%ADD14C,0.0640*%
%ADD15C,0.0560*%
%ADD16OC8,0.0660*%
%ADD17C,0.0750*%
%ADD18C,0.1050*%
%ADD19C,0.0860*%
%ADD20R,0.0740X0.0740*%
%ADD21C,0.0650*%
%ADD22C,0.0080*%
%ADD23C,0.0400*%
D10*
X000248Y006100D02*
X000248Y006285D01*
X000310Y006347D01*
X000433Y006347D01*
X000495Y006285D01*
X000495Y006100D01*
X000619Y006100D02*
X000248Y006100D01*
X000310Y006469D02*
X000372Y006530D01*
X000372Y006715D01*
X000433Y006715D02*
X000248Y006715D01*
X000248Y006530D01*
X000310Y006469D01*
X000495Y006530D02*
X000495Y006654D01*
X000433Y006715D01*
X000433Y006837D02*
X000495Y006899D01*
X000495Y007084D01*
X000495Y007205D02*
X000495Y007267D01*
X000248Y007267D01*
X000248Y007205D02*
X000248Y007329D01*
X000310Y007451D02*
X000248Y007512D01*
X000248Y007698D01*
X000495Y007698D02*
X000495Y007512D01*
X000433Y007451D01*
X000310Y007451D01*
X000619Y007267D02*
X000680Y007267D01*
X000372Y007022D02*
X000372Y006899D01*
X000433Y006837D01*
X000248Y006837D02*
X000248Y007022D01*
X000310Y007084D01*
X000372Y007022D01*
X000495Y008187D02*
X000495Y008311D01*
X000557Y008249D02*
X000310Y008249D01*
X000248Y008311D01*
X000248Y008433D02*
X000495Y008433D01*
X000372Y008433D02*
X000495Y008556D01*
X000495Y008618D01*
X000495Y008802D02*
X000495Y008925D01*
X000433Y008987D01*
X000248Y008987D01*
X000248Y008802D01*
X000310Y008740D01*
X000372Y008802D01*
X000372Y008987D01*
X000433Y009108D02*
X000310Y009108D01*
X000248Y009170D01*
X000248Y009355D01*
X000248Y009476D02*
X000619Y009476D01*
X000495Y009355D02*
X000495Y009170D01*
X000433Y009108D01*
X000372Y009476D02*
X000495Y009662D01*
X000433Y009783D02*
X000310Y009783D01*
X000248Y009845D01*
X000248Y009969D01*
X000372Y010030D02*
X000372Y009783D01*
X000433Y009783D02*
X000495Y009845D01*
X000495Y009969D01*
X000433Y010030D01*
X000372Y010030D01*
X000372Y010152D02*
X000495Y010275D01*
X000495Y010337D01*
X000495Y010152D02*
X000248Y010152D01*
X000248Y009662D02*
X000372Y009476D01*
X000495Y010827D02*
X000248Y010950D01*
X000495Y011074D01*
X000495Y011195D02*
X000619Y011319D01*
X000248Y011319D01*
X000248Y011442D02*
X000248Y011195D01*
X000248Y011932D02*
X000495Y012179D01*
X000557Y012179D01*
X000619Y012117D01*
X000619Y011994D01*
X000557Y011932D01*
X000248Y011932D02*
X000248Y012179D01*
X000310Y012300D02*
X000557Y012547D01*
X000310Y012547D01*
X000248Y012485D01*
X000248Y012362D01*
X000310Y012300D01*
X000557Y012300D01*
X000619Y012362D01*
X000619Y012485D01*
X000557Y012547D01*
X000495Y012668D02*
X000619Y012792D01*
X000248Y012792D01*
X000248Y012915D02*
X000248Y012668D01*
X000248Y013037D02*
X000495Y013284D01*
X000557Y013284D01*
X000619Y013222D01*
X000619Y013099D01*
X000557Y013037D01*
X000248Y013037D02*
X000248Y013284D01*
X000433Y013405D02*
X000433Y013652D01*
X000310Y013773D02*
X000557Y014020D01*
X000310Y014020D01*
X000248Y013959D01*
X000248Y013835D01*
X000310Y013773D01*
X000557Y013773D01*
X000619Y013835D01*
X000619Y013959D01*
X000557Y014020D01*
X000557Y014142D02*
X000495Y014142D01*
X000433Y014203D01*
X000433Y014327D01*
X000372Y014389D01*
X000310Y014389D01*
X000248Y014327D01*
X000248Y014203D01*
X000310Y014142D01*
X000372Y014142D01*
X000433Y014203D01*
X000433Y014327D02*
X000495Y014389D01*
X000557Y014389D01*
X000619Y014327D01*
X000619Y014203D01*
X000557Y014142D01*
X000433Y014510D02*
X000433Y014757D01*
X000557Y014878D02*
X000619Y014940D01*
X000619Y015064D01*
X000557Y015125D01*
X000495Y015125D01*
X000248Y014878D01*
X000248Y015125D01*
X000310Y015247D02*
X000372Y015247D01*
X000433Y015308D01*
X000433Y015432D01*
X000372Y015494D01*
X000310Y015494D01*
X000248Y015432D01*
X000248Y015308D01*
X000310Y015247D01*
X000433Y015308D02*
X000495Y015247D01*
X000557Y015247D01*
X000619Y015308D01*
X000619Y015432D01*
X000557Y015494D01*
X000495Y015494D01*
X000433Y015432D01*
D11*
X005133Y011100D03*
X005133Y010100D03*
X005133Y009100D03*
X005133Y008100D03*
X005133Y007100D03*
X005133Y006100D03*
X005133Y005100D03*
X009133Y005100D03*
X010633Y005100D03*
X013133Y003100D03*
X014133Y003100D03*
X015133Y003100D03*
X016133Y003100D03*
X017133Y003100D03*
X018133Y003100D03*
X019133Y003100D03*
X020133Y003100D03*
X021133Y003100D03*
X022133Y003100D03*
X023133Y003100D03*
X024133Y003100D03*
X020633Y001100D03*
X017633Y001100D03*
X014633Y001100D03*
X013633Y001100D03*
X010633Y008100D03*
X009133Y008100D03*
X013133Y009100D03*
X014133Y009100D03*
X015133Y009100D03*
X016133Y009100D03*
X017133Y009100D03*
X018133Y009100D03*
X019133Y009100D03*
X020133Y009100D03*
X021133Y009100D03*
X022133Y009100D03*
X023133Y009100D03*
X024133Y009100D03*
X022133Y010600D03*
X022133Y011600D03*
X019133Y011600D03*
X019133Y010600D03*
X017133Y010600D03*
X017133Y011600D03*
X014133Y011600D03*
X014133Y010600D03*
D12*
X003633Y007100D03*
X002633Y007100D03*
X001633Y007100D03*
X001633Y006100D03*
X002633Y006100D03*
X003633Y006100D03*
D13*
X009133Y009850D03*
X009133Y010600D03*
X009133Y011350D03*
D14*
X007633Y001600D03*
X008633Y001600D03*
X009633Y001600D03*
X009633Y002600D03*
X008633Y002600D03*
X007633Y002600D03*
X008346Y013131D03*
X009133Y013131D03*
X009921Y013131D03*
X005921Y013131D03*
X005133Y013131D03*
X004346Y013131D03*
D15*
X026633Y005994D03*
X026633Y005206D03*
D16*
X026633Y002950D03*
X026633Y002100D03*
X026633Y001250D03*
D17*
X027133Y010100D03*
D18*
X026129Y009096D03*
X028137Y009096D03*
X028137Y011104D03*
X026129Y011104D03*
D19*
X026133Y014100D03*
X027133Y014100D03*
X025133Y014100D03*
X019133Y014100D03*
X018133Y014100D03*
X017133Y014100D03*
X016133Y014100D03*
D20*
X005133Y004100D03*
D21*
X024633Y002100D03*
X024633Y001100D03*
X028133Y001100D03*
X028133Y002100D03*
D22*
X026593Y002800D02*
X026633Y002950D01*
X026593Y002800D02*
X025333Y002800D01*
X024793Y002260D01*
X024633Y002100D01*
X024613Y002260D01*
X024433Y002440D01*
X011653Y002440D01*
X009133Y004960D01*
X009133Y005100D01*
X009133Y004960D01*
X007693Y004960D01*
X007693Y002620D01*
X007633Y002600D01*
X009633Y002600D02*
X009673Y002440D01*
X010933Y001180D01*
X013633Y001180D01*
X013633Y001100D01*
X013633Y001000D01*
X014173Y000460D01*
X024073Y000460D01*
X024613Y001000D01*
X024633Y001100D01*
X020833Y003700D02*
X020293Y003160D01*
X020133Y003100D01*
X020833Y003700D02*
X024793Y003700D01*
X024793Y009640D01*
X019753Y014680D01*
X010573Y014680D01*
X009133Y013240D01*
X009133Y013131D01*
X006793Y013060D02*
X006073Y013060D01*
X005921Y013131D01*
X006793Y013060D02*
X009133Y010720D01*
X009133Y010600D01*
X009133Y010000D02*
X008053Y011080D01*
X005173Y011080D01*
X005133Y011100D01*
X004993Y011260D01*
X004453Y011260D01*
X004453Y013060D01*
X004346Y013131D01*
X009133Y011440D02*
X009133Y011350D01*
X009133Y011440D02*
X013993Y011440D01*
X014133Y011600D01*
X014173Y011620D01*
X014713Y011620D01*
X017053Y013960D01*
X017133Y014100D01*
X017233Y011620D02*
X017133Y011600D01*
X017233Y011620D02*
X019033Y011620D01*
X019133Y011600D01*
X019133Y010600D02*
X019033Y010540D01*
X018133Y009640D01*
X015433Y009640D01*
X015973Y009100D01*
X016133Y009100D01*
X015433Y009640D02*
X014533Y010540D01*
X014173Y010540D01*
X014133Y010600D01*
X013993Y010540D01*
X013453Y010000D01*
X009133Y010000D01*
X009133Y009850D01*
X009133Y010000D01*
X010753Y008200D02*
X011113Y008560D01*
X019573Y008560D01*
X020113Y009100D01*
X020133Y009100D01*
X020293Y008380D02*
X021013Y009100D01*
X021133Y009100D01*
X022093Y009100D02*
X022133Y009100D01*
X022093Y009100D02*
X020113Y007120D01*
X007873Y007120D01*
X007153Y006400D01*
X008593Y006400D02*
X009133Y006940D01*
X020833Y006940D01*
X022993Y009100D01*
X023133Y009100D01*
X020293Y008380D02*
X013093Y008380D01*
X012913Y008200D01*
X014533Y007480D02*
X009673Y007480D01*
X009133Y008020D01*
X009133Y008100D01*
X010633Y008100D02*
X010753Y008200D01*
X013633Y006580D02*
X016513Y003700D01*
X018493Y003700D01*
X019033Y003160D01*
X019133Y003100D01*
X014133Y003100D02*
X013993Y003160D01*
X011113Y006040D01*
X005173Y006040D01*
X005133Y006100D01*
X004993Y006040D01*
X004453Y005500D01*
X003193Y005500D01*
X002653Y006040D01*
X002633Y006100D01*
X001753Y006040D02*
X001633Y006100D01*
X001753Y006040D02*
X003553Y004240D01*
X004993Y004240D01*
X005133Y004100D01*
X005133Y007100D02*
X004993Y007120D01*
X004453Y007660D01*
X003193Y007660D01*
X002653Y007120D01*
X002633Y007100D01*
X026129Y011104D02*
X026233Y011260D01*
X027133Y011260D01*
X027133Y013960D01*
X027133Y014100D01*
D23*
X014533Y007480D03*
X012913Y008200D03*
X013633Y006580D03*
X008593Y006400D03*
X007153Y006400D03*
M02*
