G75*
G70*
%OFA0B0*%
%FSLAX24Y24*%
%IPPOS*%
%LPD*%
%AMOC8*
5,1,8,0,0,1.08239X$1,22.5*
%
%ADD10C,0.0030*%
%ADD11C,0.0020*%
%ADD12R,0.3000X0.3000*%
%ADD13C,0.0160*%
%ADD14C,0.0100*%
%ADD15C,0.0060*%
%ADD16C,0.0050*%
%ADD17C,0.0070*%
%ADD18C,0.0010*%
%ADD19C,0.0080*%
%ADD20C,0.0040*%
D10*
X007006Y000612D02*
X007006Y000903D01*
X007103Y000806D01*
X007200Y000903D01*
X007200Y000612D01*
X007301Y000612D02*
X007398Y000612D01*
X007349Y000612D02*
X007349Y000903D01*
X007301Y000903D02*
X007398Y000903D01*
X007497Y000854D02*
X007497Y000806D01*
X007546Y000758D01*
X007642Y000758D01*
X007691Y000709D01*
X007691Y000661D01*
X007642Y000612D01*
X007546Y000612D01*
X007497Y000661D01*
X007497Y000854D02*
X007546Y000903D01*
X007642Y000903D01*
X007691Y000854D01*
X007792Y000854D02*
X007792Y000661D01*
X007840Y000612D01*
X007937Y000612D01*
X007985Y000661D01*
X007985Y000854D01*
X007937Y000903D01*
X007840Y000903D01*
X007792Y000854D01*
X008206Y000851D02*
X008206Y000803D01*
X008254Y000754D01*
X008351Y000754D01*
X008399Y000706D01*
X008399Y000658D01*
X008351Y000609D01*
X008254Y000609D01*
X008206Y000658D01*
X008206Y000851D02*
X008254Y000900D01*
X008351Y000900D01*
X008399Y000851D01*
X008500Y000851D02*
X008500Y000658D01*
X008549Y000609D01*
X008645Y000609D01*
X008694Y000658D01*
X008795Y000706D02*
X008988Y000900D01*
X008795Y000900D02*
X008795Y000609D01*
X008843Y000754D02*
X008988Y000609D01*
X009298Y000616D02*
X009298Y000906D01*
X009443Y000906D01*
X009492Y000858D01*
X009492Y000761D01*
X009443Y000713D01*
X009298Y000713D01*
X009395Y000713D02*
X009492Y000616D01*
X009593Y000665D02*
X009641Y000616D01*
X009738Y000616D01*
X009786Y000665D01*
X009786Y000713D01*
X009738Y000761D01*
X009641Y000761D01*
X009593Y000810D01*
X009593Y000858D01*
X009641Y000906D01*
X009738Y000906D01*
X009786Y000858D01*
X009887Y000906D02*
X010081Y000906D01*
X009984Y000906D02*
X009984Y000616D01*
X010437Y000999D02*
X010314Y001123D01*
X010437Y001246D01*
X010684Y001246D01*
X010561Y001368D02*
X010314Y001368D01*
X010499Y001246D02*
X010499Y000999D01*
X010437Y000999D02*
X010684Y000999D01*
X010561Y001368D02*
X010684Y001491D01*
X010561Y001615D01*
X010314Y001615D01*
X010314Y001736D02*
X010314Y001921D01*
X010376Y001983D01*
X010499Y001983D01*
X010561Y001921D01*
X010561Y001736D01*
X010684Y001736D02*
X010314Y001736D01*
X010561Y001860D02*
X010684Y001983D01*
X010684Y002473D02*
X010684Y002596D01*
X010684Y002534D02*
X010314Y002534D01*
X010314Y002473D02*
X010314Y002596D01*
X010376Y002718D02*
X010437Y002718D01*
X010499Y002780D01*
X010499Y002903D01*
X010561Y002965D01*
X010623Y002965D01*
X010684Y002903D01*
X010684Y002780D01*
X010623Y002718D01*
X010376Y002718D02*
X010314Y002780D01*
X010314Y002903D01*
X010376Y002965D01*
X010314Y003087D02*
X010314Y003272D01*
X010376Y003333D01*
X010499Y003333D01*
X010561Y003272D01*
X010561Y003087D01*
X010684Y003087D02*
X010314Y003087D01*
X010088Y003354D02*
X010136Y003402D01*
X010136Y003596D01*
X010088Y003644D01*
X009942Y003644D01*
X009942Y003354D01*
X010088Y003354D01*
X009841Y003354D02*
X009841Y003644D01*
X009648Y003644D02*
X009841Y003354D01*
X009648Y003354D02*
X009648Y003644D01*
X009547Y003596D02*
X009498Y003644D01*
X009402Y003644D01*
X009353Y003596D01*
X009353Y003402D01*
X009402Y003354D01*
X009498Y003354D01*
X009547Y003402D01*
X009547Y003499D01*
X009450Y003499D01*
X009096Y003643D02*
X008999Y003643D01*
X009048Y003643D02*
X009048Y003353D01*
X009096Y003353D02*
X008999Y003353D01*
X008898Y003401D02*
X008850Y003353D01*
X008753Y003353D01*
X008705Y003401D01*
X008604Y003401D02*
X008604Y003595D01*
X008555Y003643D01*
X008458Y003643D01*
X008410Y003595D01*
X008410Y003401D01*
X008458Y003353D01*
X008555Y003353D01*
X008604Y003401D01*
X008705Y003546D02*
X008753Y003498D01*
X008850Y003498D01*
X008898Y003450D01*
X008898Y003401D01*
X008898Y003595D02*
X008850Y003643D01*
X008753Y003643D01*
X008705Y003595D01*
X008705Y003546D01*
X008309Y003643D02*
X008309Y003353D01*
X008115Y003353D02*
X008115Y003643D01*
X008212Y003546D01*
X008309Y003643D01*
X007903Y003608D02*
X007854Y003656D01*
X007758Y003656D01*
X007709Y003608D01*
X007709Y003414D01*
X007758Y003366D01*
X007854Y003366D01*
X007903Y003414D01*
X007608Y003414D02*
X007560Y003366D01*
X007463Y003366D01*
X007415Y003414D01*
X007415Y003608D01*
X007463Y003656D01*
X007560Y003656D01*
X007608Y003608D01*
X007313Y003656D02*
X007313Y003463D01*
X007217Y003366D01*
X007120Y003463D01*
X007120Y003656D01*
X006648Y003995D02*
X006454Y003995D01*
X006454Y004285D01*
X006353Y004237D02*
X006305Y004285D01*
X006208Y004285D01*
X006160Y004237D01*
X006160Y004043D01*
X006208Y003995D01*
X006305Y003995D01*
X006353Y004043D01*
X006058Y004043D02*
X006058Y004092D01*
X006010Y004140D01*
X005913Y004140D01*
X005865Y004188D01*
X005865Y004237D01*
X005913Y004285D01*
X006010Y004285D01*
X006058Y004237D01*
X006058Y004043D02*
X006010Y003995D01*
X005913Y003995D01*
X005865Y004043D01*
X005913Y004995D02*
X005865Y005043D01*
X005913Y004995D02*
X006010Y004995D01*
X006058Y005043D01*
X006058Y005092D01*
X006010Y005140D01*
X005913Y005140D01*
X005865Y005188D01*
X005865Y005237D01*
X005913Y005285D01*
X006010Y005285D01*
X006058Y005237D01*
X006160Y005285D02*
X006305Y005285D01*
X006353Y005237D01*
X006353Y005043D01*
X006305Y004995D01*
X006160Y004995D01*
X006160Y005285D01*
X006454Y005188D02*
X006551Y005285D01*
X006648Y005188D01*
X006648Y004995D01*
X006648Y005140D02*
X006454Y005140D01*
X006454Y005188D02*
X006454Y004995D01*
X006454Y006045D02*
X006599Y006045D01*
X006648Y006093D01*
X006648Y006287D01*
X006599Y006335D01*
X006454Y006335D01*
X006454Y006045D01*
X006353Y006045D02*
X006160Y006335D01*
X006058Y006335D02*
X005865Y006335D01*
X005962Y006335D02*
X005962Y006045D01*
X006160Y006045D02*
X006353Y006335D01*
X006353Y006995D02*
X006160Y007285D01*
X006058Y007237D02*
X006058Y007140D01*
X006010Y007092D01*
X005865Y007092D01*
X005962Y007092D02*
X006058Y006995D01*
X006160Y006995D02*
X006353Y007285D01*
X006454Y007285D02*
X006599Y007285D01*
X006648Y007237D01*
X006648Y007043D01*
X006599Y006995D01*
X006454Y006995D01*
X006454Y007285D01*
X006058Y007237D02*
X006010Y007285D01*
X005865Y007285D01*
X005865Y006995D01*
X005865Y008045D02*
X005865Y008335D01*
X006058Y008045D01*
X006058Y008335D01*
X006353Y008335D02*
X006160Y008045D01*
X006454Y008093D02*
X006454Y008287D01*
X006503Y008335D01*
X006599Y008335D01*
X006648Y008287D01*
X006648Y008093D02*
X006599Y008045D01*
X006503Y008045D01*
X006454Y008093D01*
X006503Y009045D02*
X006599Y009045D01*
X006648Y009093D01*
X006503Y009045D02*
X006454Y009093D01*
X006454Y009287D01*
X006503Y009335D01*
X006599Y009335D01*
X006648Y009287D01*
X006353Y009335D02*
X006160Y009045D01*
X006058Y009045D02*
X006058Y009335D01*
X005865Y009335D02*
X006058Y009045D01*
X005865Y009045D02*
X005865Y009335D01*
X005913Y010045D02*
X006010Y010045D01*
X006058Y010093D01*
X006058Y010190D01*
X005962Y010190D01*
X006058Y010287D02*
X006010Y010335D01*
X005913Y010335D01*
X005865Y010287D01*
X005865Y010093D01*
X005913Y010045D01*
X006160Y010045D02*
X006160Y010335D01*
X006353Y010045D01*
X006353Y010335D01*
X006454Y010335D02*
X006599Y010335D01*
X006648Y010287D01*
X006648Y010093D01*
X006599Y010045D01*
X006454Y010045D01*
X006454Y010335D01*
X006503Y011045D02*
X006599Y011045D01*
X006648Y011093D01*
X006503Y011045D02*
X006454Y011093D01*
X006454Y011287D01*
X006503Y011335D01*
X006599Y011335D01*
X006648Y011287D01*
X006353Y011287D02*
X006305Y011335D01*
X006208Y011335D01*
X006160Y011287D01*
X006160Y011093D01*
X006208Y011045D01*
X006305Y011045D01*
X006353Y011093D01*
X006058Y011142D02*
X006058Y011335D01*
X005865Y011335D02*
X005865Y011142D01*
X005962Y011045D01*
X006058Y011142D01*
X006055Y011861D02*
X006055Y012055D01*
X006055Y011958D02*
X005765Y011958D01*
X005862Y011861D01*
X005910Y012156D02*
X005910Y012349D01*
X006055Y012450D02*
X005958Y012547D01*
X006055Y012644D01*
X005765Y012644D01*
X005765Y012450D02*
X006055Y012450D01*
X005255Y012450D02*
X005255Y012595D01*
X005207Y012644D01*
X005013Y012644D01*
X004965Y012595D01*
X004965Y012450D01*
X005255Y012450D01*
X005255Y012349D02*
X004965Y012349D01*
X004965Y012156D02*
X005255Y012349D01*
X005255Y012156D02*
X004965Y012156D01*
X005013Y012055D02*
X004965Y012006D01*
X004965Y011909D01*
X005013Y011861D01*
X005207Y011861D01*
X005255Y011909D01*
X005255Y012006D01*
X005207Y012055D01*
X005110Y012055D01*
X005110Y011958D01*
X004405Y011908D02*
X004308Y012005D01*
X004115Y012005D01*
X004163Y012106D02*
X004115Y012154D01*
X004115Y012251D01*
X004163Y012299D01*
X004163Y012400D02*
X004357Y012400D01*
X004405Y012449D01*
X004405Y012545D01*
X004357Y012594D01*
X004163Y012594D02*
X004115Y012545D01*
X004115Y012449D01*
X004163Y012400D01*
X004357Y012299D02*
X004405Y012251D01*
X004405Y012154D01*
X004357Y012106D01*
X004163Y012106D01*
X004115Y011811D02*
X004308Y011811D01*
X004405Y011908D01*
X003335Y013808D02*
X003335Y014055D01*
X003335Y013931D02*
X002965Y013931D01*
X003088Y013808D01*
X003150Y014176D02*
X003150Y014423D01*
X002965Y014545D02*
X003335Y014545D01*
X003212Y014668D01*
X003335Y014791D01*
X002965Y014791D01*
X002965Y014913D02*
X002965Y015036D01*
X002965Y014975D02*
X003335Y014975D01*
X003335Y015036D02*
X003335Y014913D01*
X003335Y015158D02*
X002965Y015158D01*
X002965Y015344D01*
X003026Y015405D01*
X003150Y015405D01*
X003212Y015344D01*
X003212Y015158D01*
X003212Y015282D02*
X003335Y015405D01*
X003335Y015527D02*
X003335Y015774D01*
X003150Y015650D02*
X003150Y015527D01*
X002965Y015527D02*
X003335Y015527D01*
X002965Y015527D02*
X002965Y015774D01*
X007015Y015662D02*
X007015Y015538D01*
X007076Y015477D01*
X007323Y015477D01*
X007385Y015538D01*
X007385Y015662D01*
X007323Y015724D01*
X007200Y015724D01*
X007200Y015600D01*
X007076Y015724D02*
X007015Y015662D01*
X007015Y015355D02*
X007323Y015355D01*
X007385Y015294D01*
X007385Y015170D01*
X007323Y015108D01*
X007015Y015108D01*
X007076Y014987D02*
X007138Y014987D01*
X007200Y014925D01*
X007200Y014740D01*
X007385Y014740D02*
X007015Y014740D01*
X007015Y014925D01*
X007076Y014987D01*
X007200Y014925D02*
X007262Y014987D01*
X007323Y014987D01*
X007385Y014925D01*
X007385Y014740D01*
X007385Y014619D02*
X007385Y014372D01*
X007015Y014372D01*
X007015Y014619D01*
X007200Y014495D02*
X007200Y014372D01*
X007323Y014250D02*
X007076Y014250D01*
X007015Y014189D01*
X007015Y014003D01*
X007385Y014003D01*
X007385Y014189D01*
X007323Y014250D01*
X008213Y012644D02*
X008165Y012595D01*
X008165Y012450D01*
X008455Y012450D01*
X008455Y012595D01*
X008407Y012644D01*
X008213Y012644D01*
X008165Y012349D02*
X008455Y012349D01*
X008165Y012156D01*
X008455Y012156D01*
X008407Y012055D02*
X008310Y012055D01*
X008310Y011958D01*
X008407Y012055D02*
X008455Y012006D01*
X008455Y011909D01*
X008407Y011861D01*
X008213Y011861D01*
X008165Y011909D01*
X008165Y012006D01*
X008213Y012055D01*
X008965Y012104D02*
X009013Y012153D01*
X009110Y012153D01*
X009158Y012104D01*
X009158Y011959D01*
X009255Y011959D02*
X008965Y011959D01*
X008965Y012104D01*
X008965Y012254D02*
X009255Y012447D01*
X009255Y012549D02*
X009255Y012645D01*
X009255Y012597D02*
X008965Y012597D01*
X008965Y012549D02*
X008965Y012645D01*
X008965Y012447D02*
X009255Y012254D01*
X009255Y012153D02*
X009158Y012056D01*
X009815Y012055D02*
X009815Y011861D01*
X009815Y011958D02*
X010105Y011958D01*
X010105Y012156D02*
X009815Y012349D01*
X009863Y012450D02*
X009815Y012499D01*
X009815Y012595D01*
X009863Y012644D01*
X010057Y012644D01*
X010105Y012595D01*
X010105Y012499D01*
X010057Y012450D01*
X009863Y012450D01*
X010105Y012349D02*
X009815Y012156D01*
X009723Y011074D02*
X009476Y011074D01*
X009723Y010827D01*
X009785Y010888D01*
X009785Y011012D01*
X009723Y011074D01*
X009476Y011074D02*
X009415Y011012D01*
X009415Y010888D01*
X009476Y010827D01*
X009723Y010827D01*
X009785Y010705D02*
X009785Y010458D01*
X009538Y010705D01*
X009476Y010705D01*
X009415Y010644D01*
X009415Y010520D01*
X009476Y010458D01*
X009476Y010337D02*
X009538Y010337D01*
X009600Y010275D01*
X009600Y010152D01*
X009538Y010090D01*
X009476Y010090D01*
X009415Y010152D01*
X009415Y010275D01*
X009476Y010337D01*
X009600Y010275D02*
X009662Y010337D01*
X009723Y010337D01*
X009785Y010275D01*
X009785Y010152D01*
X009723Y010090D01*
X009662Y010090D01*
X009600Y010152D01*
X009785Y009969D02*
X009785Y009722D01*
X009785Y009845D02*
X009415Y009845D01*
X009538Y009722D01*
X009476Y009600D02*
X009415Y009539D01*
X009415Y009415D01*
X009476Y009353D01*
X009538Y009353D01*
X009600Y009415D01*
X009600Y009539D01*
X009662Y009600D01*
X009723Y009600D01*
X009785Y009539D01*
X009785Y009415D01*
X009723Y009353D01*
X009723Y009232D02*
X009476Y009232D01*
X009415Y009170D01*
X009415Y008985D01*
X009785Y008985D01*
X009785Y009170D01*
X009723Y009232D01*
X003755Y008695D02*
X003755Y008599D01*
X003707Y008550D01*
X003513Y008550D01*
X003465Y008599D01*
X003465Y008695D01*
X003513Y008744D01*
X003707Y008744D02*
X003755Y008695D01*
X003707Y008449D02*
X003755Y008401D01*
X003755Y008304D01*
X003707Y008256D01*
X003513Y008256D01*
X003465Y008304D01*
X003465Y008401D01*
X003513Y008449D01*
X003465Y008155D02*
X003658Y008155D01*
X003755Y008058D01*
X003658Y007961D01*
X003465Y007961D01*
X002755Y007961D02*
X002465Y007961D01*
X002465Y008106D01*
X002513Y008155D01*
X002610Y008155D01*
X002658Y008106D01*
X002658Y007961D01*
X002658Y008058D02*
X002755Y008155D01*
X002755Y008256D02*
X002465Y008449D01*
X002465Y008550D02*
X002465Y008695D01*
X002513Y008744D01*
X002707Y008744D01*
X002755Y008695D01*
X002755Y008550D01*
X002465Y008550D01*
X002465Y008256D02*
X002755Y008449D01*
X001755Y008401D02*
X001755Y008256D01*
X001465Y008256D01*
X001465Y008401D01*
X001513Y008449D01*
X001707Y008449D01*
X001755Y008401D01*
X001755Y008550D02*
X001562Y008550D01*
X001465Y008647D01*
X001562Y008744D01*
X001755Y008744D01*
X001610Y008744D02*
X001610Y008550D01*
X001658Y008155D02*
X001707Y008155D01*
X001755Y008106D01*
X001755Y008009D01*
X001707Y007961D01*
X001610Y008009D02*
X001610Y008106D01*
X001658Y008155D01*
X001513Y008155D02*
X001465Y008106D01*
X001465Y008009D01*
X001513Y007961D01*
X001562Y007961D01*
X001610Y008009D01*
X001705Y005294D02*
X001705Y005100D01*
X001415Y005100D01*
X001463Y004999D02*
X001415Y004951D01*
X001415Y004854D01*
X001463Y004806D01*
X001657Y004806D01*
X001705Y004854D01*
X001705Y004951D01*
X001657Y004999D01*
X001657Y004705D02*
X001705Y004656D01*
X001705Y004559D01*
X001657Y004511D01*
X001560Y004559D02*
X001560Y004656D01*
X001608Y004705D01*
X001657Y004705D01*
X001560Y004559D02*
X001512Y004511D01*
X001463Y004511D01*
X001415Y004559D01*
X001415Y004656D01*
X001463Y004705D01*
X002415Y004658D02*
X002705Y004658D01*
X002705Y004856D02*
X002415Y005049D01*
X002415Y005150D02*
X002415Y005295D01*
X002463Y005344D01*
X002657Y005344D01*
X002705Y005295D01*
X002705Y005150D01*
X002415Y005150D01*
X002415Y004856D02*
X002705Y005049D01*
X002415Y004755D02*
X002415Y004561D01*
X003415Y004559D02*
X003463Y004511D01*
X003657Y004511D01*
X003705Y004559D01*
X003705Y004656D01*
X003657Y004705D01*
X003560Y004705D01*
X003560Y004608D01*
X003463Y004705D02*
X003415Y004656D01*
X003415Y004559D01*
X003415Y004806D02*
X003705Y004999D01*
X003415Y004999D01*
X003415Y005100D02*
X003415Y005245D01*
X003463Y005294D01*
X003657Y005294D01*
X003705Y005245D01*
X003705Y005100D01*
X003415Y005100D01*
X003415Y004806D02*
X003705Y004806D01*
X008500Y000851D02*
X008549Y000900D01*
X008645Y000900D01*
X008694Y000851D01*
X015045Y000765D02*
X015045Y000475D01*
X015238Y000475D01*
X015340Y000475D02*
X015533Y000475D01*
X015634Y000475D02*
X015779Y000475D01*
X015828Y000523D01*
X015828Y000717D01*
X015779Y000765D01*
X015634Y000765D01*
X015634Y000475D01*
X015436Y000620D02*
X015340Y000620D01*
X015340Y000765D02*
X015340Y000475D01*
X015340Y000765D02*
X015533Y000765D01*
X016224Y000668D02*
X016224Y000572D01*
X016320Y000475D01*
X016420Y000475D02*
X016565Y000475D01*
X016614Y000523D01*
X016614Y000717D01*
X016565Y000765D01*
X016420Y000765D01*
X016420Y000475D01*
X016715Y000475D02*
X016908Y000668D01*
X016908Y000717D01*
X016860Y000765D01*
X016763Y000765D01*
X016715Y000717D01*
X017009Y000765D02*
X017106Y000668D01*
X017106Y000572D01*
X017009Y000475D01*
X016908Y000475D02*
X016715Y000475D01*
X016320Y000765D02*
X016224Y000668D01*
X019115Y002195D02*
X019115Y002388D01*
X019212Y002485D01*
X019308Y002388D01*
X019308Y002195D01*
X019410Y002195D02*
X019410Y002388D01*
X019410Y002292D02*
X019506Y002388D01*
X019555Y002388D01*
X019655Y002340D02*
X019704Y002388D01*
X019849Y002388D01*
X019849Y002485D02*
X019849Y002195D01*
X019704Y002195D01*
X019655Y002243D01*
X019655Y002340D01*
X019950Y002388D02*
X019950Y002243D01*
X019998Y002195D01*
X020143Y002195D01*
X020143Y002388D01*
X020244Y002388D02*
X020293Y002388D01*
X020293Y002195D01*
X020341Y002195D02*
X020244Y002195D01*
X020441Y002195D02*
X020441Y002388D01*
X020586Y002388D01*
X020634Y002340D01*
X020634Y002195D01*
X020736Y002243D02*
X020736Y002340D01*
X020784Y002388D01*
X020881Y002388D01*
X020929Y002340D01*
X020929Y002243D01*
X020881Y002195D01*
X020784Y002195D01*
X020736Y002243D01*
X020293Y002485D02*
X020293Y002534D01*
X019308Y002340D02*
X019115Y002340D01*
X021325Y002292D02*
X021470Y002292D01*
X021518Y002340D01*
X021518Y002437D01*
X021470Y002485D01*
X021325Y002485D01*
X021325Y002195D01*
X021620Y002195D02*
X021620Y002388D01*
X021620Y002292D02*
X021716Y002388D01*
X021765Y002388D01*
X021865Y002340D02*
X021865Y002243D01*
X021913Y002195D01*
X022010Y002195D01*
X022059Y002243D01*
X022059Y002340D01*
X022010Y002388D01*
X021913Y002388D01*
X021865Y002340D01*
X022454Y002388D02*
X022454Y002195D01*
X022551Y002195D02*
X022551Y002340D01*
X022600Y002388D01*
X022648Y002340D01*
X022648Y002195D01*
X022749Y002195D02*
X022846Y002195D01*
X022797Y002195D02*
X022797Y002388D01*
X022749Y002388D01*
X022797Y002485D02*
X022797Y002534D01*
X022945Y002388D02*
X023091Y002388D01*
X023139Y002340D01*
X023139Y002195D01*
X023240Y002195D02*
X023337Y002195D01*
X023288Y002195D02*
X023288Y002388D01*
X023240Y002388D01*
X023288Y002485D02*
X023288Y002534D01*
X022945Y002388D02*
X022945Y002195D01*
X022551Y002340D02*
X022503Y002388D01*
X022454Y002388D01*
X023731Y002437D02*
X023780Y002485D01*
X023876Y002485D01*
X023925Y002437D01*
X023925Y002388D01*
X023876Y002340D01*
X023925Y002292D01*
X023925Y002243D01*
X023876Y002195D01*
X023780Y002195D01*
X023731Y002243D01*
X023828Y002340D02*
X023876Y002340D01*
X024026Y002243D02*
X024074Y002243D01*
X024074Y002195D01*
X024026Y002195D01*
X024026Y002243D01*
X024173Y002243D02*
X024222Y002195D01*
X024318Y002195D01*
X024367Y002243D01*
X024367Y002292D01*
X024318Y002340D01*
X024270Y002340D01*
X024318Y002340D02*
X024367Y002388D01*
X024367Y002437D01*
X024318Y002485D01*
X024222Y002485D01*
X024173Y002437D01*
X024468Y002388D02*
X024565Y002195D01*
X024661Y002388D01*
X025443Y004145D02*
X025395Y004193D01*
X025395Y004290D01*
X025443Y004338D01*
X025492Y004338D01*
X025540Y004290D01*
X025588Y004338D01*
X025637Y004338D01*
X025685Y004290D01*
X025685Y004193D01*
X025637Y004145D01*
X025540Y004242D02*
X025540Y004290D01*
X025637Y004440D02*
X025637Y004488D01*
X025685Y004488D01*
X025685Y004440D01*
X025637Y004440D01*
X025540Y004587D02*
X025395Y004732D01*
X025685Y004732D01*
X025540Y004780D02*
X025540Y004587D01*
X025492Y004882D02*
X025685Y004978D01*
X025492Y005075D01*
X025540Y005176D02*
X025540Y005370D01*
X025492Y005471D02*
X025395Y005568D01*
X025685Y005568D01*
X025685Y005664D02*
X025685Y005471D01*
X025685Y005766D02*
X025492Y005959D01*
X025443Y005959D01*
X025395Y005911D01*
X025395Y005814D01*
X025443Y005766D01*
X025685Y005766D02*
X025685Y005959D01*
X025685Y006157D02*
X025492Y006254D01*
X025492Y006060D02*
X025685Y006157D01*
D11*
X004953Y000790D02*
X004770Y000790D01*
X004770Y000937D02*
X004953Y000937D01*
X004990Y000900D01*
X004990Y000827D01*
X004953Y000790D01*
X005220Y000790D02*
X005440Y000790D01*
X005330Y000790D02*
X005330Y000937D01*
X005330Y001011D02*
X005330Y001158D01*
X005293Y001158D02*
X005440Y001158D01*
X005440Y001232D02*
X005440Y001342D01*
X005403Y001379D01*
X005367Y001379D01*
X005330Y001342D01*
X005330Y001232D01*
X005293Y001158D02*
X005220Y001084D01*
X005293Y001011D01*
X005440Y001011D01*
X005440Y000937D02*
X005220Y000937D01*
X004990Y001011D02*
X004990Y001121D01*
X004953Y001158D01*
X004917Y001158D01*
X004880Y001121D01*
X004880Y001011D01*
X004990Y001011D02*
X004770Y001011D01*
X004770Y001121D01*
X004807Y001158D01*
X004843Y001158D01*
X004880Y001121D01*
X004990Y001232D02*
X004990Y001379D01*
X004953Y001453D02*
X004990Y001490D01*
X004990Y001563D01*
X004953Y001600D01*
X004807Y001600D01*
X004770Y001563D01*
X004770Y001490D01*
X004807Y001453D01*
X004953Y001453D01*
X004990Y001232D02*
X004770Y001232D01*
X005220Y001232D02*
X005220Y001342D01*
X005257Y001379D01*
X005293Y001379D01*
X005330Y001342D01*
X005440Y001232D02*
X005220Y001232D01*
X005257Y001674D02*
X005293Y001674D01*
X005330Y001711D01*
X005330Y001784D01*
X005367Y001821D01*
X005403Y001821D01*
X005440Y001784D01*
X005440Y001711D01*
X005403Y001674D01*
X005257Y001674D02*
X005220Y001711D01*
X005220Y001784D01*
X005257Y001821D01*
X005220Y001895D02*
X005403Y001895D01*
X005440Y001932D01*
X005440Y002005D01*
X005403Y002042D01*
X005220Y002042D01*
X005220Y002116D02*
X005220Y002226D01*
X005257Y002263D01*
X005330Y002263D01*
X005367Y002226D01*
X005367Y002116D01*
X005440Y002116D02*
X005220Y002116D01*
X004990Y002116D02*
X004770Y002116D01*
X004843Y002189D01*
X004770Y002263D01*
X004990Y002263D01*
X004990Y002337D02*
X004843Y002337D01*
X004770Y002410D01*
X004843Y002484D01*
X004990Y002484D01*
X004990Y002558D02*
X004770Y002705D01*
X004880Y002779D02*
X004880Y002889D01*
X004917Y002926D01*
X004953Y002926D01*
X004990Y002889D01*
X004990Y002816D01*
X004953Y002779D01*
X004880Y002779D01*
X004807Y002852D01*
X004770Y002926D01*
X004990Y002705D02*
X004770Y002558D01*
X004880Y002484D02*
X004880Y002337D01*
X005220Y002337D02*
X005220Y002447D01*
X005257Y002484D01*
X005330Y002484D01*
X005367Y002447D01*
X005367Y002337D01*
X005440Y002337D02*
X005220Y002337D01*
X005220Y002558D02*
X005440Y002558D01*
X005440Y002705D01*
X005440Y002779D02*
X005440Y002852D01*
X005440Y002816D02*
X005220Y002816D01*
X005220Y002852D02*
X005220Y002779D01*
X005220Y002926D02*
X005440Y002926D01*
X005440Y003073D01*
X005403Y003147D02*
X005440Y003184D01*
X005440Y003257D01*
X005403Y003294D01*
X005367Y003294D01*
X005330Y003257D01*
X005330Y003184D01*
X005293Y003147D01*
X005257Y003147D01*
X005220Y003184D01*
X005220Y003257D01*
X005257Y003294D01*
X005220Y003073D02*
X005220Y002926D01*
X005330Y002926D02*
X005330Y003000D01*
X004990Y001821D02*
X004770Y001674D01*
X004770Y001821D02*
X004990Y001674D01*
X000790Y005377D02*
X000790Y005450D01*
X000753Y005487D01*
X000753Y005561D02*
X000790Y005598D01*
X000790Y005671D01*
X000753Y005708D01*
X000717Y005708D01*
X000680Y005671D01*
X000680Y005598D01*
X000643Y005561D01*
X000607Y005561D01*
X000570Y005598D01*
X000570Y005671D01*
X000607Y005708D01*
X000607Y005782D02*
X000753Y005782D01*
X000790Y005819D01*
X000790Y005892D01*
X000753Y005929D01*
X000680Y005929D01*
X000680Y005855D01*
X000607Y005782D02*
X000570Y005819D01*
X000570Y005892D01*
X000607Y005929D01*
X000607Y006003D02*
X000643Y006003D01*
X000680Y006040D01*
X000680Y006113D01*
X000717Y006150D01*
X000753Y006150D01*
X000790Y006113D01*
X000790Y006040D01*
X000753Y006003D01*
X000607Y006003D02*
X000570Y006040D01*
X000570Y006113D01*
X000607Y006150D01*
X000570Y006224D02*
X000790Y006224D01*
X000680Y006224D02*
X000680Y006371D01*
X000607Y006445D02*
X000753Y006445D01*
X000790Y006482D01*
X000790Y006555D01*
X000753Y006592D01*
X000607Y006592D01*
X000570Y006555D01*
X000570Y006482D01*
X000607Y006445D01*
X000570Y006371D02*
X000790Y006371D01*
X000790Y006666D02*
X000570Y006666D01*
X000570Y006776D01*
X000607Y006813D01*
X000680Y006813D01*
X000717Y006776D01*
X000717Y006666D01*
X000790Y007108D02*
X000570Y007108D01*
X000643Y007181D01*
X000570Y007255D01*
X000790Y007255D01*
X000790Y007329D02*
X000643Y007329D01*
X000570Y007402D01*
X000643Y007476D01*
X000790Y007476D01*
X000790Y007550D02*
X000570Y007697D01*
X000680Y007771D02*
X000607Y007844D01*
X000570Y007918D01*
X000680Y007881D02*
X000680Y007771D01*
X000753Y007771D01*
X000790Y007808D01*
X000790Y007881D01*
X000753Y007918D01*
X000717Y007918D01*
X000680Y007881D01*
X000790Y007697D02*
X000570Y007550D01*
X000680Y007476D02*
X000680Y007329D01*
X000607Y005487D02*
X000570Y005450D01*
X000570Y005377D01*
X000607Y005340D01*
X000753Y005340D01*
X000790Y005377D01*
D12*
G36*
X022721Y006094D02*
X020600Y003973D01*
X018479Y006094D01*
X020600Y008215D01*
X022721Y006094D01*
G37*
D13*
X023100Y006180D02*
X023102Y006224D01*
X023108Y006268D01*
X023118Y006311D01*
X023131Y006353D01*
X023148Y006394D01*
X023169Y006433D01*
X023193Y006470D01*
X023220Y006505D01*
X023250Y006537D01*
X023283Y006567D01*
X023319Y006593D01*
X023356Y006617D01*
X023396Y006636D01*
X023437Y006653D01*
X023480Y006665D01*
X023523Y006674D01*
X023567Y006679D01*
X023611Y006680D01*
X023655Y006677D01*
X023699Y006670D01*
X023742Y006659D01*
X023784Y006645D01*
X023824Y006627D01*
X023863Y006605D01*
X023899Y006581D01*
X023933Y006553D01*
X023965Y006522D01*
X023994Y006488D01*
X024020Y006452D01*
X024042Y006414D01*
X024061Y006374D01*
X024076Y006332D01*
X024088Y006290D01*
X024096Y006246D01*
X024100Y006202D01*
X024100Y006158D01*
X024096Y006114D01*
X024088Y006070D01*
X024076Y006028D01*
X024061Y005986D01*
X024042Y005946D01*
X024020Y005908D01*
X023994Y005872D01*
X023965Y005838D01*
X023933Y005807D01*
X023899Y005779D01*
X023863Y005755D01*
X023824Y005733D01*
X023784Y005715D01*
X023742Y005701D01*
X023699Y005690D01*
X023655Y005683D01*
X023611Y005680D01*
X023567Y005681D01*
X023523Y005686D01*
X023480Y005695D01*
X023437Y005707D01*
X023396Y005724D01*
X023356Y005743D01*
X023319Y005767D01*
X023283Y005793D01*
X023250Y005823D01*
X023220Y005855D01*
X023193Y005890D01*
X023169Y005927D01*
X023148Y005966D01*
X023131Y006007D01*
X023118Y006049D01*
X023108Y006092D01*
X023102Y006136D01*
X023100Y006180D01*
D14*
X024600Y002680D02*
X011600Y002680D01*
X011600Y009680D01*
X024600Y009680D01*
X024600Y002680D01*
X013480Y001690D02*
X013480Y001510D01*
X013480Y000870D02*
X013480Y000670D01*
D15*
X010100Y001430D02*
X009850Y001180D01*
X009350Y001180D01*
X009100Y001430D01*
X009100Y002930D01*
X009350Y003180D01*
X009850Y003180D01*
X010100Y002930D01*
X010100Y001430D01*
X009100Y001430D02*
X008850Y001180D01*
X008350Y001180D01*
X008100Y001430D01*
X008100Y002930D01*
X008350Y003180D01*
X008850Y003180D01*
X009100Y002930D01*
X008100Y002930D02*
X007850Y003180D01*
X007350Y003180D01*
X007100Y002930D01*
X007100Y001430D01*
X007350Y001180D01*
X007850Y001180D01*
X008100Y001430D01*
X003850Y005680D02*
X003350Y005680D01*
X003100Y005930D01*
X003100Y007430D01*
X003350Y007680D01*
X003850Y007680D01*
X004100Y007430D01*
X004100Y005930D01*
X003850Y005680D01*
X003100Y005930D02*
X002850Y005680D01*
X002350Y005680D01*
X002100Y005930D01*
X002100Y007430D01*
X002350Y007680D01*
X002850Y007680D01*
X003100Y007430D01*
X002100Y007430D02*
X001850Y007680D01*
X001350Y007680D01*
X001100Y007430D01*
X001100Y005930D01*
X001350Y005680D01*
X001850Y005680D01*
X002100Y005930D01*
X008980Y006637D02*
X009150Y006466D01*
X009150Y006693D01*
X009207Y006835D02*
X009093Y007005D01*
X008980Y007142D02*
X008980Y007369D01*
X009036Y007369D01*
X009263Y007142D01*
X009320Y007142D01*
X009320Y007005D02*
X009207Y006835D01*
X009320Y006835D02*
X008980Y006835D01*
X008980Y006637D02*
X009320Y006637D01*
X026700Y003225D02*
X026700Y003067D01*
X027250Y003005D02*
X027250Y001355D01*
X026700Y001293D02*
X026700Y001135D01*
D16*
X026482Y004253D02*
X026049Y004253D01*
X026049Y004214D01*
X026482Y004253D02*
X026482Y005946D01*
X026049Y005946D01*
X027939Y005198D02*
X027939Y004962D01*
X029080Y004962D01*
X029080Y005198D02*
X027939Y005198D01*
X028100Y012680D02*
X028100Y015680D01*
X011100Y015680D01*
X011100Y012680D01*
X028100Y012680D01*
X009150Y011430D02*
X009219Y011435D01*
X009288Y011436D01*
X009357Y011433D01*
X009426Y011427D01*
X009495Y011417D01*
X009563Y011403D01*
X009630Y011385D01*
X009695Y011364D01*
X009760Y011339D01*
X009823Y011310D01*
X009884Y011278D01*
X009944Y011243D01*
X010002Y011205D01*
X010057Y011163D01*
X010110Y011118D01*
X010160Y011071D01*
X010208Y011021D01*
X010253Y010968D01*
X010295Y010913D01*
X010334Y010856D01*
X010369Y010796D01*
X010402Y010735D01*
X010430Y010672D01*
X010456Y010608D01*
X010478Y010542D01*
X010496Y010475D01*
X010510Y010408D01*
X010521Y010339D01*
X010528Y010270D01*
X010531Y010201D01*
X010530Y010132D01*
X010526Y010063D01*
X010517Y009994D01*
X010505Y009926D01*
X010489Y009859D01*
X010470Y009792D01*
X010447Y009727D01*
X010420Y009663D01*
X010390Y009601D01*
X010356Y009541D01*
X010319Y009482D01*
X010279Y009426D01*
X010236Y009371D01*
X010190Y009320D01*
X010141Y009271D01*
X010090Y009224D01*
X010036Y009181D01*
X009980Y009140D01*
X009921Y009103D01*
X009861Y009069D01*
X009799Y009039D01*
X009735Y009011D01*
X009670Y008988D01*
X009604Y008968D01*
X009537Y008952D01*
X009469Y008939D01*
X009400Y008930D01*
X008400Y008930D01*
X008400Y011430D01*
X009150Y011430D01*
D17*
X025891Y004571D02*
X026218Y004571D01*
X026055Y004408D02*
X026055Y004735D01*
X026133Y005162D02*
X026133Y005489D01*
D18*
X027261Y003027D02*
X027230Y002988D01*
X027231Y002988D02*
X027181Y003025D01*
X027129Y003058D01*
X027075Y003088D01*
X027019Y003115D01*
X026962Y003139D01*
X026904Y003159D01*
X026844Y003175D01*
X026784Y003188D01*
X026723Y003198D01*
X026661Y003203D01*
X026599Y003205D01*
X026538Y003203D01*
X026476Y003197D01*
X026415Y003188D01*
X026355Y003175D01*
X026295Y003159D01*
X026237Y003138D01*
X026180Y003115D01*
X026124Y003088D01*
X026070Y003057D01*
X026018Y003024D01*
X025969Y002987D01*
X025921Y002948D01*
X025876Y002906D01*
X025834Y002861D01*
X025794Y002813D01*
X025757Y002763D01*
X025724Y002712D01*
X025693Y002658D01*
X025666Y002602D01*
X025642Y002545D01*
X025622Y002487D01*
X025575Y002501D01*
X025574Y002502D01*
X025596Y002563D01*
X025620Y002623D01*
X025649Y002681D01*
X025681Y002737D01*
X025716Y002792D01*
X025755Y002844D01*
X025796Y002894D01*
X025841Y002941D01*
X025888Y002985D01*
X025938Y003027D01*
X025990Y003065D01*
X026044Y003100D01*
X026101Y003132D01*
X026159Y003160D01*
X026219Y003185D01*
X026280Y003206D01*
X026343Y003224D01*
X026406Y003237D01*
X026470Y003247D01*
X026535Y003253D01*
X026599Y003255D01*
X026664Y003253D01*
X026729Y003247D01*
X026793Y003238D01*
X026856Y003224D01*
X026919Y003207D01*
X026980Y003186D01*
X027040Y003161D01*
X027098Y003133D01*
X027155Y003101D01*
X027209Y003066D01*
X027262Y003027D01*
X027256Y003020D01*
X027204Y003058D01*
X027150Y003093D01*
X027094Y003125D01*
X027036Y003153D01*
X026977Y003177D01*
X026916Y003198D01*
X026854Y003215D01*
X026791Y003229D01*
X026728Y003238D01*
X026664Y003244D01*
X026599Y003246D01*
X026535Y003244D01*
X026471Y003238D01*
X026408Y003229D01*
X026345Y003215D01*
X026283Y003198D01*
X026222Y003177D01*
X026163Y003152D01*
X026105Y003124D01*
X026049Y003093D01*
X025995Y003058D01*
X025943Y003020D01*
X025894Y002979D01*
X025847Y002935D01*
X025803Y002888D01*
X025762Y002838D01*
X025724Y002787D01*
X025689Y002733D01*
X025657Y002677D01*
X025629Y002619D01*
X025604Y002560D01*
X025583Y002499D01*
X025591Y002496D01*
X025612Y002557D01*
X025637Y002615D01*
X025665Y002673D01*
X025696Y002728D01*
X025731Y002782D01*
X025769Y002833D01*
X025810Y002882D01*
X025853Y002928D01*
X025900Y002972D01*
X025949Y003013D01*
X026000Y003050D01*
X026054Y003085D01*
X026109Y003116D01*
X026166Y003144D01*
X026225Y003168D01*
X026286Y003189D01*
X026347Y003206D01*
X026409Y003220D01*
X026472Y003229D01*
X026536Y003235D01*
X026599Y003237D01*
X026663Y003235D01*
X026727Y003229D01*
X026790Y003220D01*
X026852Y003207D01*
X026913Y003189D01*
X026974Y003169D01*
X027033Y003144D01*
X027090Y003117D01*
X027145Y003085D01*
X027199Y003051D01*
X027250Y003013D01*
X027245Y003006D01*
X027194Y003043D01*
X027141Y003078D01*
X027086Y003109D01*
X027029Y003136D01*
X026970Y003160D01*
X026911Y003181D01*
X026850Y003198D01*
X026788Y003211D01*
X026726Y003220D01*
X026663Y003226D01*
X026599Y003228D01*
X026536Y003226D01*
X026473Y003220D01*
X026411Y003211D01*
X026349Y003198D01*
X026288Y003181D01*
X026229Y003160D01*
X026170Y003136D01*
X026113Y003108D01*
X026058Y003077D01*
X026005Y003043D01*
X025954Y003005D01*
X025906Y002965D01*
X025860Y002922D01*
X025816Y002876D01*
X025776Y002827D01*
X025738Y002777D01*
X025704Y002724D01*
X025673Y002669D01*
X025645Y002612D01*
X025621Y002553D01*
X025600Y002494D01*
X025609Y002491D01*
X025629Y002550D01*
X025653Y002608D01*
X025681Y002664D01*
X025712Y002719D01*
X025746Y002771D01*
X025783Y002822D01*
X025823Y002870D01*
X025866Y002915D01*
X025912Y002958D01*
X025960Y002998D01*
X026010Y003035D01*
X026063Y003069D01*
X026118Y003100D01*
X026174Y003128D01*
X026232Y003152D01*
X026291Y003172D01*
X026351Y003189D01*
X026413Y003202D01*
X026474Y003211D01*
X026537Y003217D01*
X026599Y003219D01*
X026662Y003217D01*
X026724Y003212D01*
X026786Y003202D01*
X026848Y003189D01*
X026908Y003172D01*
X026967Y003152D01*
X027025Y003128D01*
X027081Y003101D01*
X027136Y003070D01*
X027189Y003036D01*
X027239Y002999D01*
X027234Y002992D01*
X027184Y003029D01*
X027131Y003062D01*
X027077Y003093D01*
X027021Y003120D01*
X026964Y003144D01*
X026905Y003164D01*
X026845Y003180D01*
X026785Y003193D01*
X026723Y003203D01*
X026662Y003208D01*
X026599Y003210D01*
X026537Y003208D01*
X026476Y003202D01*
X026414Y003193D01*
X026353Y003180D01*
X026294Y003163D01*
X026235Y003143D01*
X026178Y003119D01*
X026122Y003092D01*
X026068Y003062D01*
X026015Y003028D01*
X025965Y002991D01*
X025918Y002952D01*
X025872Y002909D01*
X025830Y002864D01*
X025790Y002816D01*
X025753Y002766D01*
X025719Y002714D01*
X025689Y002660D01*
X025662Y002604D01*
X025638Y002547D01*
X025617Y002488D01*
X025575Y001859D02*
X025623Y001874D01*
X025622Y001873D02*
X025642Y001815D01*
X025666Y001758D01*
X025693Y001702D01*
X025724Y001648D01*
X025757Y001597D01*
X025794Y001547D01*
X025834Y001499D01*
X025876Y001454D01*
X025921Y001412D01*
X025969Y001373D01*
X026018Y001336D01*
X026070Y001303D01*
X026124Y001272D01*
X026180Y001245D01*
X026237Y001222D01*
X026295Y001201D01*
X026355Y001185D01*
X026415Y001172D01*
X026476Y001163D01*
X026538Y001157D01*
X026599Y001155D01*
X026661Y001157D01*
X026723Y001162D01*
X026784Y001172D01*
X026844Y001185D01*
X026904Y001201D01*
X026962Y001221D01*
X027019Y001245D01*
X027075Y001272D01*
X027129Y001302D01*
X027181Y001335D01*
X027231Y001372D01*
X027261Y001333D01*
X027262Y001333D01*
X027209Y001294D01*
X027155Y001259D01*
X027098Y001227D01*
X027040Y001199D01*
X026980Y001174D01*
X026919Y001153D01*
X026856Y001136D01*
X026793Y001122D01*
X026729Y001113D01*
X026664Y001107D01*
X026599Y001105D01*
X026535Y001107D01*
X026470Y001113D01*
X026406Y001123D01*
X026343Y001136D01*
X026280Y001154D01*
X026219Y001175D01*
X026159Y001200D01*
X026101Y001228D01*
X026044Y001260D01*
X025990Y001295D01*
X025938Y001333D01*
X025888Y001375D01*
X025841Y001419D01*
X025796Y001466D01*
X025755Y001516D01*
X025716Y001568D01*
X025681Y001623D01*
X025649Y001679D01*
X025620Y001737D01*
X025596Y001797D01*
X025574Y001858D01*
X025583Y001861D01*
X025604Y001800D01*
X025629Y001741D01*
X025657Y001683D01*
X025689Y001627D01*
X025723Y001573D01*
X025762Y001522D01*
X025803Y001472D01*
X025847Y001425D01*
X025894Y001381D01*
X025943Y001340D01*
X025995Y001302D01*
X026049Y001267D01*
X026105Y001236D01*
X026163Y001208D01*
X026222Y001183D01*
X026283Y001162D01*
X026345Y001145D01*
X026408Y001131D01*
X026471Y001122D01*
X026535Y001116D01*
X026599Y001114D01*
X026664Y001116D01*
X026728Y001122D01*
X026791Y001131D01*
X026854Y001145D01*
X026916Y001162D01*
X026977Y001183D01*
X027036Y001207D01*
X027094Y001235D01*
X027150Y001267D01*
X027204Y001302D01*
X027256Y001340D01*
X027250Y001347D01*
X027199Y001309D01*
X027145Y001275D01*
X027090Y001243D01*
X027033Y001216D01*
X026974Y001191D01*
X026913Y001171D01*
X026852Y001153D01*
X026790Y001140D01*
X026727Y001131D01*
X026663Y001125D01*
X026599Y001123D01*
X026536Y001125D01*
X026472Y001131D01*
X026409Y001140D01*
X026347Y001154D01*
X026286Y001171D01*
X026225Y001192D01*
X026166Y001216D01*
X026109Y001244D01*
X026054Y001275D01*
X026000Y001310D01*
X025949Y001347D01*
X025900Y001388D01*
X025853Y001432D01*
X025810Y001478D01*
X025769Y001527D01*
X025731Y001578D01*
X025696Y001632D01*
X025665Y001687D01*
X025637Y001745D01*
X025612Y001803D01*
X025591Y001864D01*
X025600Y001866D01*
X025621Y001807D01*
X025645Y001748D01*
X025673Y001691D01*
X025704Y001636D01*
X025738Y001583D01*
X025776Y001533D01*
X025816Y001484D01*
X025860Y001438D01*
X025906Y001395D01*
X025954Y001355D01*
X026005Y001317D01*
X026058Y001283D01*
X026113Y001252D01*
X026170Y001224D01*
X026229Y001200D01*
X026288Y001179D01*
X026349Y001162D01*
X026411Y001149D01*
X026473Y001140D01*
X026536Y001134D01*
X026599Y001132D01*
X026663Y001134D01*
X026726Y001140D01*
X026788Y001149D01*
X026850Y001162D01*
X026911Y001179D01*
X026970Y001200D01*
X027029Y001224D01*
X027086Y001251D01*
X027141Y001282D01*
X027194Y001316D01*
X027245Y001354D01*
X027239Y001361D01*
X027189Y001324D01*
X027136Y001290D01*
X027081Y001259D01*
X027025Y001232D01*
X026967Y001208D01*
X026908Y001188D01*
X026848Y001171D01*
X026786Y001158D01*
X026724Y001148D01*
X026662Y001143D01*
X026599Y001141D01*
X026537Y001143D01*
X026474Y001149D01*
X026413Y001158D01*
X026351Y001171D01*
X026291Y001188D01*
X026232Y001208D01*
X026174Y001232D01*
X026118Y001260D01*
X026063Y001291D01*
X026010Y001325D01*
X025960Y001362D01*
X025912Y001402D01*
X025866Y001445D01*
X025823Y001490D01*
X025783Y001538D01*
X025746Y001589D01*
X025712Y001641D01*
X025681Y001696D01*
X025653Y001752D01*
X025629Y001810D01*
X025609Y001869D01*
X025617Y001872D01*
X025638Y001813D01*
X025662Y001756D01*
X025689Y001700D01*
X025719Y001646D01*
X025753Y001594D01*
X025790Y001544D01*
X025830Y001496D01*
X025872Y001451D01*
X025918Y001408D01*
X025965Y001369D01*
X026015Y001332D01*
X026068Y001298D01*
X026122Y001268D01*
X026178Y001241D01*
X026235Y001217D01*
X026294Y001197D01*
X026353Y001180D01*
X026414Y001167D01*
X026476Y001158D01*
X026537Y001152D01*
X026599Y001150D01*
X026661Y001152D01*
X026723Y001157D01*
X026785Y001167D01*
X026845Y001180D01*
X026905Y001196D01*
X026964Y001216D01*
X027021Y001240D01*
X027077Y001267D01*
X027131Y001298D01*
X027184Y001331D01*
X027234Y001368D01*
X014831Y001603D02*
X014753Y001558D01*
X014753Y001559D02*
X014725Y001603D01*
X014694Y001645D01*
X014661Y001685D01*
X014625Y001723D01*
X014586Y001758D01*
X014545Y001790D01*
X014501Y001820D01*
X014456Y001846D01*
X014409Y001869D01*
X014361Y001889D01*
X014311Y001905D01*
X014261Y001918D01*
X014209Y001927D01*
X014157Y001933D01*
X014105Y001935D01*
X014104Y002024D01*
X014105Y002025D01*
X014160Y002023D01*
X014214Y002017D01*
X014269Y002008D01*
X014322Y001995D01*
X014374Y001979D01*
X014426Y001960D01*
X014476Y001937D01*
X014524Y001911D01*
X014571Y001882D01*
X014615Y001850D01*
X014658Y001815D01*
X014698Y001777D01*
X014735Y001737D01*
X014770Y001695D01*
X014802Y001650D01*
X014831Y001604D01*
X014823Y001599D01*
X014795Y001645D01*
X014763Y001689D01*
X014728Y001731D01*
X014691Y001771D01*
X014652Y001808D01*
X014610Y001843D01*
X014566Y001874D01*
X014520Y001903D01*
X014472Y001929D01*
X014422Y001951D01*
X014372Y001971D01*
X014320Y001987D01*
X014267Y001999D01*
X014213Y002008D01*
X014159Y002014D01*
X014105Y002016D01*
X014105Y002007D01*
X014159Y002005D01*
X014212Y001999D01*
X014265Y001990D01*
X014317Y001978D01*
X014369Y001962D01*
X014419Y001943D01*
X014468Y001921D01*
X014515Y001895D01*
X014561Y001867D01*
X014604Y001835D01*
X014646Y001801D01*
X014685Y001765D01*
X014722Y001725D01*
X014756Y001684D01*
X014787Y001640D01*
X014816Y001595D01*
X014808Y001590D01*
X014778Y001638D01*
X014744Y001684D01*
X014708Y001727D01*
X014668Y001768D01*
X014626Y001806D01*
X014582Y001841D01*
X014535Y001873D01*
X014486Y001901D01*
X014435Y001926D01*
X014382Y001948D01*
X014329Y001965D01*
X014274Y001979D01*
X014218Y001989D01*
X014162Y001996D01*
X014105Y001998D01*
X014105Y001989D01*
X014161Y001987D01*
X014217Y001981D01*
X014272Y001971D01*
X014326Y001957D01*
X014379Y001939D01*
X014431Y001918D01*
X014482Y001893D01*
X014530Y001865D01*
X014576Y001834D01*
X014621Y001799D01*
X014662Y001762D01*
X014701Y001721D01*
X014737Y001679D01*
X014770Y001633D01*
X014800Y001586D01*
X014792Y001581D01*
X014763Y001628D01*
X014730Y001673D01*
X014694Y001715D01*
X014656Y001755D01*
X014615Y001792D01*
X014571Y001827D01*
X014525Y001858D01*
X014477Y001885D01*
X014428Y001910D01*
X014376Y001931D01*
X014324Y001948D01*
X014270Y001962D01*
X014215Y001972D01*
X014160Y001978D01*
X014105Y001980D01*
X014105Y001971D01*
X014160Y001969D01*
X014214Y001963D01*
X014268Y001953D01*
X014321Y001939D01*
X014373Y001922D01*
X014424Y001902D01*
X014473Y001877D01*
X014520Y001850D01*
X014566Y001819D01*
X014609Y001786D01*
X014650Y001749D01*
X014688Y001709D01*
X014723Y001667D01*
X014755Y001623D01*
X014784Y001577D01*
X014776Y001572D01*
X014748Y001618D01*
X014716Y001662D01*
X014681Y001703D01*
X014643Y001742D01*
X014603Y001779D01*
X014561Y001812D01*
X014516Y001842D01*
X014469Y001870D01*
X014420Y001893D01*
X014370Y001914D01*
X014319Y001931D01*
X014266Y001944D01*
X014213Y001954D01*
X014159Y001960D01*
X014105Y001962D01*
X014105Y001953D01*
X014158Y001951D01*
X014212Y001945D01*
X014264Y001935D01*
X014316Y001922D01*
X014367Y001905D01*
X014417Y001885D01*
X014465Y001862D01*
X014511Y001835D01*
X014555Y001805D01*
X014597Y001772D01*
X014637Y001736D01*
X014674Y001697D01*
X014709Y001656D01*
X014740Y001613D01*
X014769Y001568D01*
X014761Y001563D01*
X014733Y001608D01*
X014702Y001651D01*
X014668Y001691D01*
X014631Y001729D01*
X014592Y001765D01*
X014550Y001797D01*
X014506Y001827D01*
X014460Y001854D01*
X014413Y001877D01*
X014364Y001897D01*
X014314Y001914D01*
X014262Y001927D01*
X014210Y001936D01*
X014158Y001942D01*
X014105Y001944D01*
X014105Y000336D02*
X014105Y000426D01*
X014105Y000425D02*
X014159Y000427D01*
X014212Y000433D01*
X014265Y000443D01*
X014317Y000457D01*
X014368Y000474D01*
X014417Y000495D01*
X014465Y000519D01*
X014511Y000547D01*
X014555Y000578D01*
X014597Y000612D01*
X014636Y000648D01*
X014673Y000688D01*
X014706Y000730D01*
X014737Y000774D01*
X014764Y000820D01*
X014843Y000778D01*
X014815Y000729D01*
X014783Y000683D01*
X014748Y000638D01*
X014711Y000596D01*
X014670Y000556D01*
X014627Y000520D01*
X014582Y000486D01*
X014535Y000455D01*
X014485Y000428D01*
X014434Y000404D01*
X014382Y000383D01*
X014328Y000366D01*
X014273Y000353D01*
X014218Y000343D01*
X014161Y000337D01*
X014105Y000335D01*
X014105Y000344D01*
X014161Y000346D01*
X014216Y000352D01*
X014271Y000362D01*
X014326Y000375D01*
X014379Y000392D01*
X014431Y000412D01*
X014481Y000436D01*
X014530Y000463D01*
X014577Y000493D01*
X014622Y000527D01*
X014664Y000563D01*
X014704Y000602D01*
X014741Y000644D01*
X014776Y000688D01*
X014807Y000734D01*
X014835Y000782D01*
X014827Y000786D01*
X014799Y000739D01*
X014768Y000693D01*
X014734Y000650D01*
X014698Y000608D01*
X014658Y000570D01*
X014616Y000534D01*
X014572Y000501D01*
X014526Y000471D01*
X014477Y000444D01*
X014427Y000421D01*
X014376Y000400D01*
X014323Y000384D01*
X014270Y000371D01*
X014215Y000361D01*
X014160Y000355D01*
X014105Y000353D01*
X014105Y000362D01*
X014160Y000364D01*
X014214Y000370D01*
X014268Y000379D01*
X014321Y000392D01*
X014373Y000409D01*
X014424Y000429D01*
X014473Y000452D01*
X014521Y000479D01*
X014567Y000508D01*
X014611Y000541D01*
X014652Y000576D01*
X014691Y000615D01*
X014728Y000655D01*
X014761Y000698D01*
X014792Y000744D01*
X014819Y000791D01*
X014811Y000795D01*
X014784Y000748D01*
X014754Y000704D01*
X014721Y000661D01*
X014685Y000621D01*
X014646Y000583D01*
X014605Y000548D01*
X014562Y000516D01*
X014516Y000486D01*
X014469Y000460D01*
X014420Y000437D01*
X014370Y000417D01*
X014318Y000401D01*
X014266Y000388D01*
X014213Y000379D01*
X014159Y000373D01*
X014105Y000371D01*
X014105Y000380D01*
X014158Y000382D01*
X014211Y000388D01*
X014264Y000397D01*
X014316Y000410D01*
X014367Y000426D01*
X014417Y000445D01*
X014465Y000468D01*
X014512Y000494D01*
X014556Y000523D01*
X014599Y000555D01*
X014640Y000590D01*
X014678Y000627D01*
X014714Y000667D01*
X014747Y000709D01*
X014777Y000753D01*
X014804Y000799D01*
X014796Y000803D01*
X014769Y000758D01*
X014739Y000714D01*
X014707Y000673D01*
X014672Y000633D01*
X014634Y000596D01*
X014594Y000562D01*
X014551Y000530D01*
X014507Y000502D01*
X014461Y000476D01*
X014413Y000454D01*
X014364Y000434D01*
X014314Y000418D01*
X014262Y000406D01*
X014210Y000397D01*
X014158Y000391D01*
X014105Y000389D01*
X014105Y000398D01*
X014161Y000400D01*
X014216Y000407D01*
X014271Y000417D01*
X014325Y000431D01*
X014377Y000449D01*
X014429Y000470D01*
X014478Y000496D01*
X014526Y000524D01*
X014572Y000556D01*
X014615Y000591D01*
X014655Y000629D01*
X014693Y000670D01*
X014728Y000714D01*
X014759Y000760D01*
X014788Y000808D01*
X014780Y000812D01*
X014752Y000764D01*
X014721Y000719D01*
X014686Y000676D01*
X014649Y000636D01*
X014609Y000598D01*
X014566Y000563D01*
X014521Y000532D01*
X014474Y000503D01*
X014425Y000479D01*
X014374Y000457D01*
X014322Y000440D01*
X014269Y000426D01*
X014215Y000416D01*
X014160Y000409D01*
X014105Y000407D01*
X014105Y000416D01*
X014159Y000418D01*
X014213Y000424D01*
X014267Y000434D01*
X014319Y000448D01*
X014371Y000466D01*
X014421Y000487D01*
X014470Y000511D01*
X014516Y000539D01*
X014561Y000571D01*
X014603Y000605D01*
X014642Y000642D01*
X014679Y000682D01*
X014713Y000724D01*
X014744Y000769D01*
X014772Y000816D01*
X013455Y000636D02*
X013524Y000693D01*
X013523Y000693D02*
X013560Y000653D01*
X013599Y000615D01*
X013641Y000581D01*
X013685Y000549D01*
X013731Y000521D01*
X013780Y000496D01*
X013830Y000475D01*
X013881Y000457D01*
X013934Y000444D01*
X013987Y000434D01*
X014041Y000427D01*
X014095Y000425D01*
X014096Y000336D01*
X014095Y000335D01*
X014039Y000337D01*
X013983Y000343D01*
X013928Y000353D01*
X013873Y000366D01*
X013820Y000383D01*
X013767Y000403D01*
X013716Y000427D01*
X013667Y000454D01*
X013620Y000485D01*
X013575Y000518D01*
X013532Y000554D01*
X013492Y000593D01*
X013454Y000635D01*
X013461Y000641D01*
X013498Y000600D01*
X013538Y000561D01*
X013580Y000525D01*
X013625Y000492D01*
X013672Y000462D01*
X013720Y000435D01*
X013771Y000412D01*
X013823Y000391D01*
X013876Y000375D01*
X013930Y000362D01*
X013984Y000352D01*
X014039Y000346D01*
X014095Y000344D01*
X014095Y000353D01*
X014040Y000355D01*
X013985Y000361D01*
X013931Y000370D01*
X013878Y000383D01*
X013826Y000400D01*
X013774Y000420D01*
X013725Y000443D01*
X013676Y000470D01*
X013630Y000499D01*
X013586Y000532D01*
X013544Y000568D01*
X013505Y000606D01*
X013468Y000647D01*
X013475Y000652D01*
X013511Y000612D01*
X013550Y000574D01*
X013592Y000539D01*
X013635Y000507D01*
X013681Y000477D01*
X013729Y000451D01*
X013778Y000428D01*
X013828Y000408D01*
X013880Y000392D01*
X013933Y000379D01*
X013987Y000370D01*
X014041Y000364D01*
X014095Y000362D01*
X014095Y000371D01*
X014041Y000373D01*
X013988Y000379D01*
X013935Y000388D01*
X013883Y000401D01*
X013831Y000417D01*
X013781Y000436D01*
X013733Y000459D01*
X013686Y000485D01*
X013640Y000514D01*
X013597Y000546D01*
X013556Y000581D01*
X013518Y000618D01*
X013482Y000658D01*
X013489Y000664D01*
X013524Y000625D01*
X013562Y000588D01*
X013603Y000553D01*
X013646Y000522D01*
X013690Y000493D01*
X013737Y000467D01*
X013785Y000445D01*
X013834Y000425D01*
X013885Y000409D01*
X013937Y000397D01*
X013989Y000388D01*
X014042Y000382D01*
X014095Y000380D01*
X014095Y000389D01*
X014043Y000391D01*
X013990Y000397D01*
X013939Y000406D01*
X013888Y000418D01*
X013837Y000434D01*
X013788Y000453D01*
X013741Y000475D01*
X013695Y000501D01*
X013651Y000529D01*
X013609Y000560D01*
X013568Y000594D01*
X013531Y000631D01*
X013496Y000670D01*
X013502Y000676D01*
X013537Y000637D01*
X013575Y000601D01*
X013614Y000567D01*
X013656Y000536D01*
X013700Y000508D01*
X013745Y000483D01*
X013792Y000461D01*
X013840Y000442D01*
X013890Y000427D01*
X013940Y000414D01*
X013992Y000406D01*
X014043Y000400D01*
X014095Y000398D01*
X014095Y000407D01*
X014044Y000409D01*
X013993Y000414D01*
X013942Y000423D01*
X013892Y000435D01*
X013843Y000451D01*
X013796Y000469D01*
X013749Y000491D01*
X013704Y000516D01*
X013661Y000544D01*
X013620Y000574D01*
X013581Y000607D01*
X013544Y000643D01*
X013509Y000681D01*
X013516Y000687D01*
X013553Y000646D01*
X013593Y000608D01*
X013635Y000574D01*
X013680Y000542D01*
X013727Y000513D01*
X013776Y000488D01*
X013827Y000467D01*
X013878Y000449D01*
X013932Y000435D01*
X013986Y000425D01*
X014040Y000418D01*
X014095Y000416D01*
X014096Y002024D02*
X014096Y001934D01*
X014095Y001935D02*
X014041Y001933D01*
X013988Y001927D01*
X013935Y001917D01*
X013883Y001903D01*
X013832Y001886D01*
X013782Y001865D01*
X013734Y001841D01*
X013688Y001813D01*
X013644Y001782D01*
X013603Y001748D01*
X013563Y001711D01*
X013527Y001672D01*
X013459Y001729D01*
X013458Y001730D01*
X013496Y001771D01*
X013536Y001809D01*
X013579Y001845D01*
X013624Y001878D01*
X013671Y001908D01*
X013719Y001934D01*
X013770Y001958D01*
X013822Y001978D01*
X013875Y001994D01*
X013929Y002008D01*
X013984Y002017D01*
X014039Y002023D01*
X014095Y002025D01*
X014095Y002016D01*
X014040Y002014D01*
X013985Y002008D01*
X013931Y001999D01*
X013877Y001986D01*
X013825Y001969D01*
X013773Y001950D01*
X013723Y001926D01*
X013675Y001900D01*
X013629Y001870D01*
X013584Y001838D01*
X013542Y001803D01*
X013502Y001764D01*
X013465Y001724D01*
X013472Y001718D01*
X013509Y001758D01*
X013548Y001796D01*
X013590Y001831D01*
X013634Y001863D01*
X013680Y001892D01*
X013728Y001918D01*
X013777Y001941D01*
X013828Y001961D01*
X013880Y001977D01*
X013933Y001990D01*
X013986Y001999D01*
X014041Y002005D01*
X014095Y002007D01*
X014095Y001998D01*
X014041Y001996D01*
X013988Y001990D01*
X013935Y001981D01*
X013882Y001968D01*
X013831Y001952D01*
X013780Y001933D01*
X013732Y001910D01*
X013684Y001885D01*
X013639Y001856D01*
X013595Y001824D01*
X013554Y001789D01*
X013515Y001752D01*
X013479Y001712D01*
X013486Y001706D01*
X013522Y001746D01*
X013560Y001783D01*
X013601Y001817D01*
X013644Y001848D01*
X013689Y001877D01*
X013736Y001902D01*
X013784Y001925D01*
X013834Y001944D01*
X013885Y001960D01*
X013936Y001972D01*
X013989Y001981D01*
X014042Y001987D01*
X014095Y001989D01*
X014095Y001980D01*
X014042Y001978D01*
X013990Y001972D01*
X013938Y001963D01*
X013887Y001951D01*
X013837Y001935D01*
X013787Y001916D01*
X013740Y001894D01*
X013693Y001869D01*
X013649Y001841D01*
X013607Y001810D01*
X013566Y001776D01*
X013528Y001739D01*
X013493Y001701D01*
X013499Y001695D01*
X013535Y001733D01*
X013572Y001769D01*
X013612Y001803D01*
X013654Y001833D01*
X013698Y001861D01*
X013744Y001886D01*
X013791Y001908D01*
X013840Y001927D01*
X013889Y001942D01*
X013940Y001955D01*
X013991Y001963D01*
X014043Y001969D01*
X014095Y001971D01*
X014095Y001962D01*
X014039Y001960D01*
X013984Y001953D01*
X013929Y001943D01*
X013875Y001929D01*
X013822Y001911D01*
X013771Y001889D01*
X013721Y001864D01*
X013673Y001835D01*
X013628Y001803D01*
X013585Y001768D01*
X013544Y001730D01*
X013506Y001689D01*
X013513Y001683D01*
X013550Y001724D01*
X013591Y001761D01*
X013633Y001796D01*
X013678Y001828D01*
X013726Y001856D01*
X013775Y001881D01*
X013826Y001903D01*
X013878Y001920D01*
X013931Y001934D01*
X013985Y001944D01*
X014040Y001951D01*
X014095Y001953D01*
X014095Y001944D01*
X014041Y001942D01*
X013987Y001936D01*
X013933Y001926D01*
X013880Y001912D01*
X013829Y001894D01*
X013779Y001873D01*
X013730Y001848D01*
X013683Y001820D01*
X013639Y001789D01*
X013597Y001755D01*
X013557Y001717D01*
X013520Y001677D01*
D19*
X018000Y001180D02*
X018100Y001180D01*
X018100Y001480D01*
X020100Y001480D01*
X020100Y001180D01*
X020200Y001180D01*
X020100Y001180D02*
X020100Y000880D01*
X018100Y000880D01*
X018100Y001180D01*
X023600Y000930D02*
X023600Y001430D01*
X027900Y001830D02*
X028400Y001830D01*
X027483Y009270D02*
X026617Y009270D01*
X025790Y010097D02*
X025790Y010963D01*
X026381Y010530D02*
X026383Y010581D01*
X026389Y010632D01*
X026399Y010682D01*
X026412Y010732D01*
X026430Y010780D01*
X026450Y010827D01*
X026475Y010872D01*
X026503Y010915D01*
X026534Y010956D01*
X026568Y010994D01*
X026605Y011029D01*
X026644Y011062D01*
X026686Y011092D01*
X026730Y011118D01*
X026776Y011140D01*
X026824Y011160D01*
X026873Y011175D01*
X026923Y011187D01*
X026973Y011195D01*
X027024Y011199D01*
X027076Y011199D01*
X027127Y011195D01*
X027177Y011187D01*
X027227Y011175D01*
X027276Y011160D01*
X027324Y011140D01*
X027370Y011118D01*
X027414Y011092D01*
X027456Y011062D01*
X027495Y011029D01*
X027532Y010994D01*
X027566Y010956D01*
X027597Y010915D01*
X027625Y010872D01*
X027650Y010827D01*
X027670Y010780D01*
X027688Y010732D01*
X027701Y010682D01*
X027711Y010632D01*
X027717Y010581D01*
X027719Y010530D01*
X027717Y010479D01*
X027711Y010428D01*
X027701Y010378D01*
X027688Y010328D01*
X027670Y010280D01*
X027650Y010233D01*
X027625Y010188D01*
X027597Y010145D01*
X027566Y010104D01*
X027532Y010066D01*
X027495Y010031D01*
X027456Y009998D01*
X027414Y009968D01*
X027370Y009942D01*
X027324Y009920D01*
X027276Y009900D01*
X027227Y009885D01*
X027177Y009873D01*
X027127Y009865D01*
X027076Y009861D01*
X027024Y009861D01*
X026973Y009865D01*
X026923Y009873D01*
X026873Y009885D01*
X026824Y009900D01*
X026776Y009920D01*
X026730Y009942D01*
X026686Y009968D01*
X026644Y009998D01*
X026605Y010031D01*
X026568Y010066D01*
X026534Y010104D01*
X026503Y010145D01*
X026475Y010188D01*
X026450Y010233D01*
X026430Y010280D01*
X026412Y010328D01*
X026399Y010378D01*
X026389Y010428D01*
X026383Y010479D01*
X026381Y010530D01*
X028310Y010963D02*
X028310Y010097D01*
X028743Y009388D02*
X030318Y009388D01*
X030318Y011672D01*
X030436Y011869D01*
X031263Y011869D01*
X031381Y011672D01*
X031381Y009388D01*
X031617Y009388D01*
X031617Y011672D01*
X031381Y011672D01*
X030318Y011672D02*
X028743Y011672D01*
X027483Y011790D02*
X026617Y011790D01*
X030318Y009388D02*
X030436Y009191D01*
X031263Y009191D01*
X031381Y009388D01*
X021700Y010680D02*
X021600Y010680D01*
X021600Y010380D01*
X019600Y010380D01*
X019600Y010680D01*
X019500Y010680D01*
X019600Y010680D02*
X019600Y010980D01*
X021600Y010980D01*
X021600Y010680D01*
X021600Y011380D02*
X021600Y011680D01*
X021700Y011680D01*
X021600Y011680D02*
X021600Y011980D01*
X019600Y011980D01*
X019600Y011680D01*
X019500Y011680D01*
X019600Y011680D02*
X019600Y011380D01*
X021600Y011380D01*
X016700Y011680D02*
X016600Y011680D01*
X016600Y011380D01*
X014600Y011380D01*
X014600Y011680D01*
X014500Y011680D01*
X014600Y011680D02*
X014600Y011980D01*
X016600Y011980D01*
X016600Y011680D01*
X016600Y010980D02*
X016600Y010680D01*
X016700Y010680D01*
X016600Y010680D02*
X016600Y010380D01*
X014600Y010380D01*
X014600Y010680D01*
X014500Y010680D01*
X014600Y010680D02*
X014600Y010980D01*
X016600Y010980D01*
X010675Y012700D02*
X010399Y012700D01*
X010399Y013211D01*
X010675Y012700D02*
X010675Y015771D01*
X007525Y015771D01*
X007525Y012700D01*
X007801Y012700D01*
X007801Y013211D01*
X006675Y012700D02*
X006399Y012700D01*
X006399Y013211D01*
X006675Y012700D02*
X006675Y015771D01*
X003525Y015771D01*
X003525Y012700D01*
X003801Y012700D01*
X003801Y013211D01*
X004850Y011680D02*
X005350Y011680D01*
X005600Y011430D01*
X005600Y010930D01*
X005350Y010680D01*
X005600Y010430D01*
X005600Y009930D01*
X005350Y009680D01*
X005600Y009430D01*
X005600Y008930D01*
X005350Y008680D01*
X005600Y008430D01*
X005600Y007930D01*
X005350Y007680D01*
X005600Y007430D01*
X005600Y006930D01*
X005350Y006680D01*
X005600Y006430D01*
X005600Y005930D01*
X005350Y005680D01*
X005600Y005430D01*
X005600Y004930D01*
X005350Y004680D01*
X005600Y004430D01*
X005600Y003930D01*
X005350Y003680D01*
X004850Y003680D01*
X004600Y003930D01*
X004600Y004430D01*
X004850Y004680D01*
X004600Y004930D01*
X004600Y005430D01*
X004850Y005680D01*
X004600Y005930D01*
X004600Y006430D01*
X004850Y006680D01*
X004600Y006930D01*
X004600Y007430D01*
X004850Y007680D01*
X004600Y007930D01*
X004600Y008430D01*
X004850Y008680D01*
X004600Y008930D01*
X004600Y009430D01*
X004850Y009680D01*
X004600Y009930D01*
X004600Y010430D01*
X004850Y010680D01*
X004600Y010930D01*
X004600Y011430D01*
X004850Y011680D01*
X009100Y007780D02*
X009100Y007680D01*
X009400Y007680D01*
X009400Y005680D01*
X009100Y005680D01*
X009100Y005580D01*
X009100Y005680D02*
X008800Y005680D01*
X008800Y007680D01*
X009100Y007680D01*
X010300Y007680D02*
X010600Y007680D01*
X010600Y007780D01*
X010600Y007680D02*
X010900Y007680D01*
X010900Y005680D01*
X010600Y005680D01*
X010600Y005580D01*
X010600Y005680D02*
X010300Y005680D01*
X010300Y007680D01*
D20*
X020291Y014700D02*
X020291Y015160D01*
X020521Y015160D01*
X020598Y015084D01*
X020598Y014930D01*
X020521Y014853D01*
X020291Y014853D01*
X020444Y014853D02*
X020598Y014700D01*
X020751Y014777D02*
X020828Y014853D01*
X021058Y014853D01*
X021058Y014930D02*
X021058Y014700D01*
X020828Y014700D01*
X020751Y014777D01*
X020828Y015007D02*
X020981Y015007D01*
X021058Y014930D01*
X021212Y014930D02*
X021288Y015007D01*
X021519Y015007D01*
X021672Y015007D02*
X021749Y015007D01*
X021749Y014700D01*
X021825Y014700D02*
X021672Y014700D01*
X021519Y014700D02*
X021288Y014700D01*
X021212Y014777D01*
X021212Y014930D01*
X021519Y015160D02*
X021519Y014700D01*
X021979Y014777D02*
X021979Y014930D01*
X022056Y015007D01*
X022209Y015007D01*
X022286Y014930D01*
X022286Y014777D01*
X022209Y014700D01*
X022056Y014700D01*
X021979Y014777D01*
X022439Y014700D02*
X022439Y015007D01*
X022516Y015007D01*
X022593Y014930D01*
X022670Y015007D01*
X022746Y014930D01*
X022746Y014700D01*
X022593Y014700D02*
X022593Y014930D01*
X022900Y014930D02*
X022900Y014777D01*
X022976Y014700D01*
X023130Y014700D01*
X023207Y014853D02*
X022900Y014853D01*
X022900Y014930D02*
X022976Y015007D01*
X023130Y015007D01*
X023207Y014930D01*
X023207Y014853D01*
X023360Y015007D02*
X023514Y015007D01*
X023437Y015084D02*
X023437Y014777D01*
X023514Y014700D01*
X023667Y014700D02*
X023667Y015007D01*
X023667Y014853D02*
X023821Y015007D01*
X023897Y015007D01*
X024051Y015007D02*
X024127Y015007D01*
X024127Y014700D01*
X024051Y014700D02*
X024204Y014700D01*
X024358Y014700D02*
X024665Y015007D01*
X024358Y015007D02*
X024665Y014700D01*
X025278Y014700D02*
X025278Y015160D01*
X025585Y014700D01*
X025585Y015160D01*
X025739Y015160D02*
X026046Y015160D01*
X026199Y015160D02*
X026506Y014700D01*
X026660Y014700D02*
X026967Y015007D01*
X026967Y015084D01*
X026890Y015160D01*
X026736Y015160D01*
X026660Y015084D01*
X026506Y015160D02*
X026199Y014700D01*
X025892Y014700D02*
X025892Y015160D01*
X026660Y014700D02*
X026967Y014700D01*
X024127Y015160D02*
X024127Y015237D01*
X021749Y015237D02*
X021749Y015160D01*
M02*
