G75*
G70*
%OFA0B0*%
%FSLAX24Y24*%
%IPPOS*%
%LPD*%
%AMOC8*
5,1,8,0,0,1.08239X$1,22.5*
%
%ADD10C,0.0060*%
%ADD11C,0.0740*%
%ADD12OC8,0.0740*%
%ADD13C,0.0555*%
%ADD14C,0.0560*%
%ADD15OC8,0.0660*%
%ADD16C,0.0750*%
%ADD17C,0.1050*%
%ADD18C,0.0860*%
%ADD19C,0.0640*%
%ADD20R,0.0740X0.0740*%
%ADD21C,0.0650*%
%ADD22C,0.0157*%
%ADD23C,0.0240*%
%ADD24C,0.0400*%
%ADD25C,0.0320*%
%ADD26C,0.0377*%
D10*
X002687Y001210D02*
X002630Y001267D01*
X002687Y001210D02*
X002800Y001210D01*
X002857Y001267D01*
X002857Y001323D01*
X002800Y001380D01*
X002687Y001380D01*
X002630Y001437D01*
X002630Y001494D01*
X002687Y001550D01*
X002800Y001550D01*
X002857Y001494D01*
X002998Y001437D02*
X003055Y001437D01*
X003055Y001210D01*
X002998Y001210D02*
X003112Y001210D01*
X003244Y001267D02*
X003244Y001380D01*
X003301Y001437D01*
X003471Y001437D01*
X003471Y001550D02*
X003471Y001210D01*
X003301Y001210D01*
X003244Y001267D01*
X003612Y001267D02*
X003612Y001380D01*
X003669Y001437D01*
X003782Y001437D01*
X003839Y001380D01*
X003839Y001323D01*
X003612Y001323D01*
X003612Y001267D02*
X003669Y001210D01*
X003782Y001210D01*
X004349Y001210D02*
X004576Y001210D01*
X004462Y001210D02*
X004462Y001550D01*
X004349Y001437D01*
X003055Y001550D02*
X003055Y001607D01*
D11*
X005100Y005180D03*
X005100Y006180D03*
X005100Y007180D03*
X005100Y008180D03*
X005100Y009180D03*
X005100Y010180D03*
X005100Y011180D03*
X009100Y008180D03*
X010600Y008180D03*
X013100Y009180D03*
X014100Y009180D03*
X015100Y009180D03*
X016100Y009180D03*
X017100Y009180D03*
X018100Y009180D03*
X019100Y009180D03*
X020100Y009180D03*
X021100Y009180D03*
X022100Y009180D03*
X023100Y009180D03*
X024100Y009180D03*
X022100Y010680D03*
X022100Y011680D03*
X019100Y011680D03*
X019100Y010680D03*
X017100Y010680D03*
X017100Y011680D03*
X014100Y011680D03*
X014100Y010680D03*
X010600Y005180D03*
X009100Y005180D03*
X013100Y003180D03*
X014100Y003180D03*
X015100Y003180D03*
X016100Y003180D03*
X017100Y003180D03*
X018100Y003180D03*
X019100Y003180D03*
X020100Y003180D03*
X021100Y003180D03*
X022100Y003180D03*
X023100Y003180D03*
X024100Y003180D03*
X020600Y001180D03*
X017600Y001180D03*
X014600Y001180D03*
X013600Y001180D03*
D12*
X009600Y001680D03*
X008600Y001680D03*
X007600Y001680D03*
X007600Y002680D03*
X008600Y002680D03*
X009600Y002680D03*
X003600Y006180D03*
X002600Y006180D03*
X001600Y006180D03*
X001600Y007180D03*
X002600Y007180D03*
X003600Y007180D03*
D13*
X008900Y009430D03*
X008900Y010180D03*
X008900Y010930D03*
D14*
X026600Y005474D03*
X026600Y004686D03*
D15*
X026600Y003030D03*
X026600Y002180D03*
X026600Y001330D03*
D16*
X027050Y010530D03*
D17*
X026046Y009526D03*
X028054Y009526D03*
X028054Y011534D03*
X026046Y011534D03*
D18*
X025600Y014180D03*
X024600Y014180D03*
X026600Y014180D03*
X018600Y014180D03*
X017600Y014180D03*
X016600Y014180D03*
X015600Y014180D03*
D19*
X009887Y013211D03*
X009100Y013211D03*
X008313Y013211D03*
X005887Y013211D03*
X005100Y013211D03*
X004313Y013211D03*
D20*
X005100Y004180D03*
D21*
X022616Y001180D03*
X024584Y001180D03*
X028150Y000846D03*
X028150Y002814D03*
D22*
X026740Y002340D02*
X026600Y002180D01*
X024760Y005760D02*
X022240Y003240D01*
X022100Y003180D01*
X020100Y003180D02*
X020080Y003240D01*
X020080Y004140D01*
X017380Y004140D01*
X012520Y009000D01*
X012520Y013860D01*
X009640Y013860D01*
X009100Y013320D01*
X009100Y013211D01*
X008380Y013140D02*
X008313Y013211D01*
X008380Y013140D02*
X008380Y011340D01*
X008740Y010980D01*
X008900Y010930D01*
X008920Y010800D01*
X009640Y010080D01*
X009640Y006120D01*
X010540Y005220D01*
X010600Y005180D01*
X010540Y005040D01*
X010540Y004140D01*
X015940Y004140D01*
X015940Y003240D01*
X016100Y003180D01*
X015100Y003180D02*
X015040Y003240D01*
X015040Y003780D01*
X011620Y003780D01*
X009640Y001800D01*
X009600Y001680D01*
X011080Y001080D02*
X005680Y001080D01*
X005680Y006480D01*
X005140Y007020D01*
X005100Y007180D01*
X004420Y007020D02*
X004420Y009540D01*
X004960Y010080D01*
X005100Y010180D01*
X004960Y011160D02*
X004060Y010260D01*
X004060Y007560D01*
X003700Y007200D01*
X003600Y007180D01*
X004420Y007020D02*
X003700Y006300D01*
X003600Y006180D01*
X004960Y005220D02*
X001720Y005220D01*
X001000Y005940D01*
X001000Y006480D01*
X001540Y007020D01*
X001600Y007180D01*
X004960Y005220D02*
X005100Y005180D01*
X008560Y005760D02*
X008560Y007740D01*
X005140Y011160D01*
X005100Y011180D01*
X004960Y011160D01*
X005100Y011180D02*
X004960Y011340D01*
X004960Y012600D01*
X004420Y013140D01*
X004313Y013211D01*
X005887Y013211D02*
X006040Y013140D01*
X006040Y012960D01*
X008740Y010260D01*
X008900Y010180D01*
X008900Y009430D02*
X008740Y009360D01*
X008560Y009180D01*
X008560Y007740D01*
X008560Y005760D02*
X009100Y005220D01*
X009100Y005180D01*
X009100Y004140D01*
X007660Y002700D01*
X007600Y002680D01*
X009600Y002680D02*
X009640Y002700D01*
X010540Y003600D01*
X010540Y004140D01*
X013100Y003180D02*
X013060Y003060D01*
X011080Y001080D01*
X017380Y003780D02*
X019000Y003780D01*
X019000Y003240D01*
X019100Y003180D01*
X017380Y003780D02*
X012160Y009000D01*
X012160Y010980D01*
X010000Y013140D01*
X009887Y013211D01*
X018640Y006840D02*
X020980Y009180D01*
X021100Y009180D01*
X022780Y010080D02*
X022780Y010980D01*
X022240Y011520D01*
X022100Y011680D01*
X022780Y010080D02*
X024040Y010080D01*
X024760Y009360D01*
X024760Y005760D01*
D23*
X015100Y010180D02*
X015100Y011180D01*
X014600Y011680D01*
X014100Y011680D01*
X015100Y010180D02*
X014100Y009180D01*
D24*
X017100Y010680D02*
X017100Y011680D01*
X015600Y013180D01*
X015600Y014180D01*
X020100Y010180D02*
X020600Y010680D01*
X022100Y010680D01*
X020100Y010180D02*
X020100Y009180D01*
X027050Y010530D02*
X027100Y010530D01*
X027100Y012180D01*
X025600Y013680D01*
X025600Y014180D01*
X026600Y004686D02*
X028150Y003136D01*
X028150Y002814D01*
X027516Y002180D01*
X026600Y002180D01*
X026600Y003030D02*
X025950Y003030D01*
X024584Y001664D01*
X024584Y001180D01*
X020600Y001180D02*
X019100Y001180D01*
X017100Y003180D01*
X017600Y001180D02*
X014600Y001180D01*
D25*
X025100Y004530D02*
X026600Y003030D01*
X025100Y004530D02*
X025100Y010180D01*
X022600Y012680D01*
X021600Y012680D01*
X020100Y011180D01*
X019600Y011180D01*
X019100Y010680D01*
X018600Y010680D01*
X018100Y011180D01*
X018100Y013680D01*
X017600Y014180D01*
D26*
X018640Y006840D03*
M02*
