G75*
G70*
%OFA0B0*%
%FSLAX24Y24*%
%IPPOS*%
%LPD*%
%AMOC8*
5,1,8,0,0,1.08239X$1,22.5*
%
%ADD10C,0.0740*%
%ADD11OC8,0.0740*%
%ADD12C,0.0515*%
%ADD13C,0.0560*%
%ADD14OC8,0.0660*%
%ADD15C,0.0750*%
%ADD16C,0.1050*%
%ADD17C,0.0860*%
%ADD18C,0.0640*%
%ADD19R,0.0740X0.0740*%
%ADD20C,0.0650*%
%ADD21C,0.0357*%
D10*
X005100Y005100D03*
X005100Y006100D03*
X005100Y007100D03*
X005100Y008100D03*
X005100Y009100D03*
X005100Y010100D03*
X005100Y011100D03*
X009100Y008100D03*
X010600Y008100D03*
X013100Y009100D03*
X014100Y009100D03*
X015100Y009100D03*
X016100Y009100D03*
X017100Y009100D03*
X018100Y009100D03*
X019100Y009100D03*
X020100Y009100D03*
X021100Y009100D03*
X022100Y009100D03*
X023100Y009100D03*
X024100Y009100D03*
X022100Y010600D03*
X022100Y011600D03*
X019100Y011600D03*
X019100Y010600D03*
X017100Y010600D03*
X017100Y011600D03*
X014100Y011600D03*
X014100Y010600D03*
X010600Y005100D03*
X009100Y005100D03*
X013100Y003100D03*
X014100Y003100D03*
X015100Y003100D03*
X016100Y003100D03*
X017100Y003100D03*
X018100Y003100D03*
X019100Y003100D03*
X020100Y003100D03*
X021100Y003100D03*
X022100Y003100D03*
X023100Y003100D03*
X024100Y003100D03*
X020600Y001100D03*
X017600Y001100D03*
X014600Y001100D03*
X013600Y001100D03*
D11*
X007600Y001600D03*
X008600Y001600D03*
X009600Y001600D03*
X009600Y002600D03*
X008600Y002600D03*
X007600Y002600D03*
X003600Y006100D03*
X002600Y006100D03*
X001600Y006100D03*
X001600Y007100D03*
X002600Y007100D03*
X003600Y007100D03*
D12*
X008900Y009350D03*
X008900Y010100D03*
X008900Y010850D03*
D13*
X026600Y005394D03*
X026600Y004606D03*
D14*
X026600Y002950D03*
X026600Y002100D03*
X026600Y001250D03*
D15*
X027050Y010450D03*
D16*
X026046Y009446D03*
X028054Y009446D03*
X028054Y011454D03*
X026046Y011454D03*
D17*
X025600Y014100D03*
X024600Y014100D03*
X026600Y014100D03*
X018600Y014100D03*
X017600Y014100D03*
X016600Y014100D03*
X015600Y014100D03*
D18*
X009887Y013131D03*
X009100Y013131D03*
X008313Y013131D03*
X005887Y013131D03*
X005100Y013131D03*
X004313Y013131D03*
D19*
X005100Y004100D03*
D20*
X022616Y001100D03*
X024584Y001100D03*
X028150Y000766D03*
X028150Y002734D03*
D21*
X011440Y007660D03*
X008560Y005500D03*
X006940Y004960D03*
M02*
