G75*
G70*
%OFA0B0*%
%FSLAX24Y24*%
%IPPOS*%
%LPD*%
%AMOC8*
5,1,8,0,0,1.08239X$1,22.5*
%
%ADD10C,0.0080*%
%ADD11C,0.0040*%
D10*
X008709Y006340D02*
X009322Y006340D01*
X009016Y006340D02*
X009016Y007261D01*
X009322Y006954D01*
X009629Y006954D02*
X009936Y006340D01*
X010243Y006954D01*
X011471Y006954D02*
X011624Y006954D01*
X011931Y006647D01*
X011931Y006340D02*
X011931Y006954D01*
X012238Y006800D02*
X012238Y006647D01*
X012852Y006647D01*
X012852Y006800D02*
X012852Y006493D01*
X012699Y006340D01*
X012392Y006340D01*
X012238Y006800D02*
X012392Y006954D01*
X012699Y006954D01*
X012852Y006800D01*
X013159Y006954D02*
X013619Y006647D01*
X013159Y006340D01*
X013619Y006340D02*
X013619Y007261D01*
X013926Y006954D02*
X014387Y006954D01*
X014540Y006800D01*
X014540Y006493D01*
X014387Y006340D01*
X013926Y006340D01*
X014847Y006340D02*
X015308Y006340D01*
X015461Y006493D01*
X015308Y006647D01*
X014847Y006647D01*
X014847Y006800D02*
X014847Y006340D01*
X014847Y006800D02*
X015001Y006954D01*
X015308Y006954D01*
X015768Y006954D02*
X015921Y006954D01*
X016228Y006647D01*
X016228Y006340D02*
X016228Y006954D01*
X016535Y006954D02*
X016842Y006954D01*
X016689Y007107D02*
X016689Y006493D01*
X016535Y006340D01*
X018070Y006340D02*
X018530Y006340D01*
X018684Y006493D01*
X018684Y006800D01*
X018530Y006954D01*
X018070Y006954D01*
X018991Y006340D02*
X019298Y006340D01*
X019144Y006340D02*
X019144Y006954D01*
X019298Y006954D01*
X019605Y006954D02*
X020065Y006954D01*
X020218Y006800D01*
X020065Y006647D01*
X019758Y006647D01*
X019605Y006493D01*
X019758Y006340D01*
X020218Y006340D01*
X020525Y006340D02*
X020986Y006340D01*
X021139Y006493D01*
X020986Y006647D01*
X020525Y006647D01*
X020525Y006800D02*
X020525Y006340D01*
X020525Y006800D02*
X020679Y006954D01*
X020986Y006954D01*
X021446Y006800D02*
X021600Y006954D01*
X022060Y006954D01*
X022060Y007261D02*
X022060Y006340D01*
X021600Y006340D01*
X021446Y006493D01*
X021446Y006800D01*
X021139Y007333D02*
X020986Y007333D01*
X020832Y007487D01*
X020832Y008254D01*
X020525Y008100D02*
X020372Y008254D01*
X020065Y008254D01*
X019911Y008100D01*
X019911Y007640D01*
X019605Y007793D02*
X019451Y007640D01*
X019144Y007640D01*
X018991Y007793D01*
X018991Y008100D01*
X019144Y008254D01*
X019451Y008254D01*
X019605Y008100D01*
X019605Y007793D01*
X019144Y007414D02*
X019144Y007261D01*
X018684Y007640D02*
X018377Y007640D01*
X018530Y007640D02*
X018530Y008561D01*
X018684Y008561D01*
X018070Y008254D02*
X017916Y008254D01*
X017763Y008100D01*
X017610Y008254D01*
X017456Y008100D01*
X017456Y007640D01*
X017763Y007640D02*
X017763Y008100D01*
X018070Y008254D02*
X018070Y007640D01*
X017149Y007793D02*
X017149Y008100D01*
X016996Y008254D01*
X016689Y008254D01*
X016535Y008100D01*
X016535Y007947D01*
X017149Y007947D01*
X017149Y007793D02*
X016996Y007640D01*
X016689Y007640D01*
X016228Y007640D02*
X015768Y007640D01*
X015614Y007793D01*
X015768Y007947D01*
X016075Y007947D01*
X016228Y008100D01*
X016075Y008254D01*
X015614Y008254D01*
X015308Y007793D02*
X015154Y007793D01*
X015154Y007640D01*
X015308Y007640D01*
X015308Y007793D01*
X014847Y007793D02*
X014847Y008100D01*
X014694Y008254D01*
X014387Y008254D01*
X014233Y008100D01*
X014233Y007793D01*
X014387Y007640D01*
X014694Y007640D01*
X014847Y007793D01*
X013926Y007640D02*
X013926Y008254D01*
X013619Y008254D02*
X013466Y008254D01*
X013619Y008254D02*
X013926Y007947D01*
X013159Y008100D02*
X013159Y007793D01*
X013006Y007640D01*
X012545Y007640D01*
X012545Y007487D02*
X012545Y008254D01*
X013006Y008254D01*
X013159Y008100D01*
X012545Y007487D02*
X012699Y007333D01*
X012852Y007333D01*
X020525Y007640D02*
X020525Y008561D01*
X020832Y008561D02*
X020832Y008714D01*
X021446Y008100D02*
X021600Y008254D01*
X021753Y008100D01*
X021753Y007640D01*
X021446Y007640D02*
X021446Y008100D01*
X021753Y008100D02*
X021907Y008254D01*
X022060Y008254D01*
X022060Y007640D01*
D11*
X022003Y005780D02*
X021850Y005780D01*
X021773Y005704D01*
X021773Y005627D01*
X022080Y005320D01*
X021773Y005320D01*
X021620Y005397D02*
X021313Y005704D01*
X021313Y005397D01*
X021389Y005320D01*
X021543Y005320D01*
X021620Y005397D01*
X021620Y005704D01*
X021543Y005780D01*
X021389Y005780D01*
X021313Y005704D01*
X021159Y005627D02*
X021006Y005780D01*
X021006Y005320D01*
X021159Y005320D02*
X020852Y005320D01*
X020699Y005320D02*
X020392Y005627D01*
X020392Y005704D01*
X020469Y005780D01*
X020622Y005780D01*
X020699Y005704D01*
X020238Y005550D02*
X019932Y005550D01*
X019778Y005397D02*
X019471Y005704D01*
X019471Y005397D01*
X019548Y005320D01*
X019701Y005320D01*
X019778Y005397D01*
X019778Y005704D01*
X019701Y005780D01*
X019548Y005780D01*
X019471Y005704D01*
X019318Y005704D02*
X019318Y005627D01*
X019241Y005550D01*
X019087Y005550D01*
X019011Y005473D01*
X019011Y005397D01*
X019087Y005320D01*
X019241Y005320D01*
X019318Y005397D01*
X019318Y005473D01*
X019241Y005550D01*
X019087Y005550D02*
X019011Y005627D01*
X019011Y005704D01*
X019087Y005780D01*
X019241Y005780D01*
X019318Y005704D01*
X018857Y005550D02*
X018550Y005550D01*
X018397Y005704D02*
X018320Y005780D01*
X018167Y005780D01*
X018090Y005704D01*
X018090Y005627D01*
X018397Y005320D01*
X018090Y005320D01*
X017936Y005397D02*
X017860Y005320D01*
X017706Y005320D01*
X017630Y005397D01*
X017630Y005704D01*
X017706Y005780D01*
X017860Y005780D01*
X017936Y005704D01*
X017936Y005627D01*
X017860Y005550D01*
X017630Y005550D01*
X020392Y005320D02*
X020699Y005320D01*
X022003Y005780D02*
X022080Y005704D01*
M02*
