G75*
G70*
%OFA0B0*%
%FSLAX24Y24*%
%IPPOS*%
%LPD*%
%AMOC8*
5,1,8,0,0,1.08239X$1,22.5*
%
%ADD10C,0.0080*%
D10*
X015173Y005640D02*
X015173Y006254D01*
X015327Y006254D01*
X015480Y006100D01*
X015634Y006254D01*
X015787Y006100D01*
X015787Y005640D01*
X015480Y005640D02*
X015480Y006100D01*
X016401Y006254D02*
X016401Y005487D01*
X016248Y005333D01*
X016094Y005333D01*
X016708Y005640D02*
X016708Y006561D01*
X016401Y006561D02*
X016401Y006714D01*
X016861Y006254D02*
X017168Y006254D01*
X017322Y006100D01*
X017322Y005640D01*
X017629Y005793D02*
X017782Y005640D01*
X018089Y005640D01*
X018243Y005793D01*
X018243Y006100D01*
X018089Y006254D01*
X017782Y006254D01*
X017629Y006100D01*
X017629Y005793D01*
X016861Y006254D02*
X016708Y006100D01*
X018550Y005640D02*
X018856Y005640D01*
X018703Y005640D02*
X018703Y006561D01*
X018550Y006561D01*
X019163Y006254D02*
X019317Y006254D01*
X019470Y006100D01*
X019624Y006254D01*
X019777Y006100D01*
X019777Y005640D01*
X019470Y005640D02*
X019470Y006100D01*
X019163Y006254D02*
X019163Y005640D01*
X020084Y005793D02*
X020084Y006100D01*
X020238Y006254D01*
X020545Y006254D01*
X020698Y006100D01*
X020698Y005947D01*
X020084Y005947D01*
X020084Y005793D02*
X020238Y005640D01*
X020545Y005640D01*
X021005Y005640D02*
X021465Y005640D01*
X021619Y005793D01*
X021465Y005947D01*
X021158Y005947D01*
X021005Y006100D01*
X021158Y006254D01*
X021619Y006254D01*
X021926Y005793D02*
X022079Y005793D01*
X022079Y005640D01*
X021926Y005640D01*
X021926Y005793D01*
X022386Y005793D02*
X022386Y006100D01*
X022540Y006254D01*
X022847Y006254D01*
X023000Y006100D01*
X023000Y005793D01*
X022847Y005640D01*
X022540Y005640D01*
X022386Y005793D01*
X023307Y005640D02*
X023307Y006254D01*
X023614Y006254D02*
X023767Y006254D01*
X023614Y006254D02*
X023307Y005947D01*
X024074Y006100D02*
X024074Y005793D01*
X024228Y005640D01*
X024688Y005640D01*
X024688Y005487D02*
X024688Y006254D01*
X024228Y006254D01*
X024074Y006100D01*
X024688Y005487D02*
X024535Y005333D01*
X024381Y005333D01*
M02*
